SplineFontDB: 3.0
FontName: Caladea-BoldItalic
FullName: Caladea Bold Italic
FamilyName: Caladea
Weight: Bold
Copyright: Copyright (c) 2012, Huerta Tipografica (info@huertatipografica.com.ar), with Reserved Font Name 'Caladea'
Version: 1.002
ItalicAngle: -9
UnderlinePosition: -13
UnderlineWidth: 76
Ascent: 800
Descent: 200
sfntRevision: 0x00010083
LayerCount: 2
Layer: 0 1 "Back"  1
Layer: 1 1 "Fore"  0
XUID: [1021 830 1847461180 9509096]
FSType: 0
OS2Version: 3
OS2_WeightWidthSlopeOnly: 0
OS2_UseTypoMetrics: 1
CreationTime: 1346472720
ModificationTime: 1354992061
PfmFamily: 17
TTFWeight: 700
TTFWidth: 5
LineGap: 0
VLineGap: 0
Panose: 2 4 5 3 5 4 6 3 2 4
OS2TypoAscent: 945
OS2TypoAOffset: 0
OS2TypoDescent: -222
OS2TypoDOffset: 0
OS2TypoLinegap: 0
OS2WinAscent: 945
OS2WinAOffset: 0
OS2WinDescent: 222
OS2WinDOffset: 0
HheadAscent: 945
HheadAOffset: 0
HheadDescent: -222
HheadDOffset: 0
OS2SubXSize: 650
OS2SubYSize: 600
OS2SubXOff: -12
OS2SubYOff: 75
OS2SupXSize: 650
OS2SupYSize: 600
OS2SupXOff: 55
OS2SupYOff: 350
OS2StrikeYSize: 76
OS2StrikeYPos: 290
OS2CodePages: 20000093.00000000
OS2UnicodeRanges: a000002f.500000fb.00000000.00000000
Lookup: 258 0 0 "'kern' Horizontal Kerning in Latin lookup 0"  {"'kern' Horizontal Kerning in Latin lookup 0 subtable"  } ['kern' ('latn' <'dflt' > ) ]
DEI: 91125
TtTable: prep
PUSHW_1
 511
SCANCTRL
PUSHB_1
 4
SCANTYPE
EndTTInstrs
ShortTable: maxp 16
  1
  0
  420
  84
  7
  0
  0
  2
  0
  1
  1
  0
  64
  0
  0
  0
EndShort
LangName: 1033 "" "" "Bold Italic" "HuertaTipografica: Caladea Bold Italic: 2012" "" "1.002" "" "Caladea is a trademark of Huerta Tipografica" "Huerta Tipografica" "Carolina Giovagnoli, Andres Torresi" "" "http://www.huertatipografica.com.ar" "http://www.huertatipografica.com.ar" "This Font Software is licensed under the SIL Open Font License, Version 1.1. This license is available with a FAQ at: http://scripts.sil.org/OFL" "http://scripts.sil.org/OFL" 
GaspTable: 1 65535 15 1
Encoding: UnicodeBmp
UnicodeInterp: none

StartChar: exclam
Encoding: 33 33 4
Width: 328
GlyphClass: 2
Flags: W
LayerCount: 2
Fore
SplineSet
140.5 430 m 128,-1,1
 149 491 149 491 149 558.5 c 128,-1,2
 149 626 149 626 146 655 c 1,3,4
 154 668 154 668 174 679 c 128,-1,5
 194 690 194 690 219 690 c 0,6,7
 300 690 300 690 300 623 c 0,8,9
 300 589 300 589 244 437 c 128,-1,10
 188 285 188 285 172 220 c 1,11,-1
 95 206 l 1,12,13
 96 211 96 211 114 290 c 128,-1,0
 132 369 132 369 140.5 430 c 128,-1,1
68.5 110 m 128,-1,15
 89 132 89 132 118 132 c 128,-1,16
 147 132 147 132 161 116.5 c 128,-1,17
 175 101 175 101 175 71 c 128,-1,18
 175 41 175 41 154.5 18.5 c 128,-1,19
 134 -4 134 -4 105 -4 c 128,-1,20
 76 -4 76 -4 62 12 c 128,-1,21
 48 28 48 28 48 58 c 128,-1,14
 48 88 48 88 68.5 110 c 128,-1,15
EndSplineSet
EndChar

StartChar: quotedbl
Encoding: 34 34 5
Width: 400
GlyphClass: 2
Flags: W
LayerCount: 2
Fore
SplineSet
128 572 m 0,0,1
 128 703 128 703 192 703 c 0,2,3
 213 703 213 703 226.5 691 c 128,-1,4
 240 679 240 679 240 662 c 0,5,6
 240 637 240 637 196 504 c 1,7,-1
 181 460 l 1,8,-1
 129 460 l 1,9,10
 128 533 128 533 128 572 c 0,0,1
302 572 m 0,11,12
 302 703 302 703 366 703 c 0,13,14
 387 703 387 703 400.5 691 c 128,-1,15
 414 679 414 679 414 662 c 0,16,17
 414 637 414 637 370 504 c 1,18,-1
 355 460 l 1,19,-1
 303 460 l 1,20,21
 302 533 302 533 302 572 c 0,11,12
EndSplineSet
EndChar

StartChar: numbersign
Encoding: 35 35 6
Width: 602
GlyphClass: 2
Flags: W
LayerCount: 2
Fore
SplineSet
94 346 m 1,0,-1
 118 426 l 1,1,-1
 218 426 l 1,2,-1
 279 588 l 1,3,-1
 354 570 l 1,4,-1
 299 426 l 1,5,-1
 409 426 l 1,6,-1
 470 588 l 1,7,-1
 545 570 l 1,8,-1
 490 426 l 1,9,-1
 607 426 l 1,10,-1
 583 346 l 1,11,-1
 461 346 l 1,12,-1
 420 237 l 1,13,-1
 526 237 l 1,14,-1
 501 157 l 1,15,-1
 390 157 l 1,16,-1
 324 -18 l 1,17,-1
 249 0 l 1,18,-1
 308 157 l 1,19,-1
 199 157 l 1,20,-1
 133 -18 l 1,21,-1
 58 0 l 1,22,-1
 117 157 l 1,23,-1
 12 157 l 1,24,-1
 37 237 l 1,25,-1
 147 237 l 1,26,-1
 188 346 l 1,27,-1
 94 346 l 1,0,-1
270 346 m 1,28,-1
 229 237 l 1,29,-1
 338 237 l 1,30,-1
 379 346 l 1,31,-1
 270 346 l 1,28,-1
EndSplineSet
EndChar

StartChar: dollar
Encoding: 36 36 7
Width: 501
GlyphClass: 2
Flags: W
LayerCount: 2
Fore
SplineSet
453.5 597.5 m 128,-1,1
 493 568 493 568 493 532 c 128,-1,2
 493 496 493 496 473.5 474.5 c 128,-1,3
 454 453 454 453 422.5 453 c 128,-1,4
 391 453 391 453 361 480 c 1,5,6
 393 509 393 509 393 539 c 0,7,8
 393 574 393 574 345 584 c 1,9,-1
 317 403 l 1,10,11
 388 371 388 371 420 331 c 128,-1,12
 452 291 452 291 452 233 c 0,13,14
 452 149 452 149 398.5 95 c 128,-1,15
 345 41 345 41 258 32 c 1,16,-1
 244 -61 l 1,17,-1
 229 -72 l 1,18,-1
 182 -67 l 1,19,-1
 197 30 l 1,20,21
 34 37 34 37 34 139 c 0,22,23
 34 172 34 172 55.5 194.5 c 128,-1,24
 77 217 77 217 107 217 c 128,-1,25
 137 217 137 217 163 191 c 1,26,27
 148 167 148 167 148 143 c 128,-1,28
 148 119 148 119 163 102 c 128,-1,29
 178 85 178 85 205 80 c 1,30,-1
 238 286 l 1,31,32
 162 318 162 318 131 354 c 128,-1,33
 100 390 100 390 100 442 c 0,34,35
 100 517 100 517 154.5 569 c 128,-1,36
 209 621 209 621 292 631 c 1,37,-1
 308 732 l 1,38,-1
 330 744 l 1,39,-1
 370 739 l 1,40,-1
 353 632 l 1,41,0
 414 627 414 627 453.5 597.5 c 128,-1,1
227 500 m 0,42,43
 227 462 227 462 261 435 c 1,44,-1
 284 580 l 1,45,46
 227 560 227 560 227 500 c 0,42,43
319 179 m 0,47,48
 319 220 319 220 292 248 c 1,49,-1
 267 89 l 1,50,51
 319 114 319 114 319 179 c 0,47,48
EndSplineSet
EndChar

StartChar: percent
Encoding: 37 37 8
Width: 972
GlyphClass: 2
Flags: W
LayerCount: 2
Fore
SplineSet
228 296 m 0,0,1
 260 296 260 296 292 372.5 c 128,-1,2
 324 449 324 449 324 539 c 128,-1,3
 324 629 324 629 281 629 c 0,4,5
 249 629 249 629 217 551.5 c 128,-1,6
 185 474 185 474 185 385 c 128,-1,7
 185 296 185 296 228 296 c 0,0,1
221 253 m 0,8,9
 155 253 155 253 119.5 294.5 c 128,-1,10
 84 336 84 336 84 413 c 0,11,12
 84 532 84 532 138 600.5 c 128,-1,13
 192 669 192 669 287 669 c 0,14,15
 354 669 354 669 389 628 c 128,-1,16
 424 587 424 587 424 510 c 0,17,18
 424 391 424 391 370 322 c 128,-1,19
 316 253 316 253 221 253 c 0,8,9
725 39 m 0,20,21
 757 39 757 39 789 115.5 c 128,-1,22
 821 192 821 192 821 282 c 128,-1,23
 821 372 821 372 778 372 c 0,24,25
 746 372 746 372 714 294.5 c 128,-1,26
 682 217 682 217 682 128 c 128,-1,27
 682 39 682 39 725 39 c 0,20,21
718 -4 m 0,28,29
 652 -4 652 -4 616.5 37.5 c 128,-1,30
 581 79 581 79 581 156 c 0,31,32
 581 275 581 275 635 343.5 c 128,-1,33
 689 412 689 412 784 412 c 0,34,35
 851 412 851 412 886 371 c 128,-1,36
 921 330 921 330 921 253 c 0,37,38
 921 134 921 134 867 65 c 128,-1,39
 813 -4 813 -4 718 -4 c 0,28,29
313 -30 m 1,40,-1
 252 2 l 1,41,-1
 681 684 l 1,42,-1
 742 652 l 1,43,-1
 313 -30 l 1,40,-1
EndSplineSet
EndChar

StartChar: ampersand
Encoding: 38 38 9
Width: 712
GlyphClass: 2
Flags: W
LayerCount: 2
Fore
SplineSet
35 173 m 0,0,1
 35 331 35 331 201 386 c 1,2,3
 135 418 135 418 135 498.5 c 128,-1,4
 135 579 135 579 205.5 633 c 128,-1,5
 276 687 276 687 385 687 c 0,6,7
 463 687 463 687 515.5 656 c 128,-1,8
 568 625 568 625 568 582.5 c 128,-1,9
 568 540 568 540 538 510 c 128,-1,10
 508 480 508 480 472.5 480 c 128,-1,11
 437 480 437 480 416 504 c 1,12,13
 441 539 441 539 441 566 c 128,-1,14
 441 593 441 593 424.5 608 c 128,-1,15
 408 623 408 623 380 623 c 0,16,17
 337 623 337 623 310.5 591 c 128,-1,18
 284 559 284 559 284 507 c 0,19,20
 284 434 284 434 352 414 c 1,21,-1
 342 354 l 1,22,23
 182 314 182 314 182 184 c 0,24,25
 182 129 182 129 218 98 c 128,-1,26
 254 67 254 67 311 67 c 0,27,28
 417 67 417 67 483.5 130 c 128,-1,29
 550 193 550 193 550 305 c 0,30,31
 550 350 550 350 544 378 c 1,32,-1
 607 390 l 1,33,34
 612 352 612 352 612 318 c 0,35,36
 612 195 612 195 546 106 c 0,37,38
 462 -8 462 -8 289 -8 c 0,39,40
 175 -8 175 -8 105 42.5 c 128,-1,41
 35 93 35 93 35 173 c 0,0,1
680 554 m 0,42,43
 723 543 723 543 723 497 c 128,-1,44
 723 451 723 451 701 424 c 128,-1,45
 679 397 679 397 647 386 c 128,-1,46
 615 375 615 375 578.5 363.5 c 128,-1,47
 542 352 542 352 512 342.5 c 128,-1,48
 482 333 482 333 468 313.5 c 128,-1,49
 454 294 454 294 454 278 c 128,-1,50
 454 262 454 262 456 251 c 1,51,52
 428 251 428 251 408.5 267.5 c 128,-1,53
 389 284 389 284 389 314 c 128,-1,54
 389 344 389 344 413.5 366 c 128,-1,55
 438 388 438 388 472.5 397 c 128,-1,56
 507 406 507 406 541.5 414 c 128,-1,57
 576 422 576 422 600.5 441 c 128,-1,58
 625 460 625 460 625 486 c 128,-1,59
 625 512 625 512 608 523 c 1,60,61
 630 557 630 557 662 557 c 0,62,63
 670 557 670 557 680 554 c 0,42,43
EndSplineSet
EndChar

StartChar: quotesingle
Encoding: 39 39 10
Width: 244
GlyphClass: 2
Flags: W
LayerCount: 2
Fore
SplineSet
124 572 m 0,0,1
 124 703 124 703 188 703 c 0,2,3
 209 703 209 703 222.5 691 c 128,-1,4
 236 679 236 679 236 662 c 0,5,6
 236 637 236 637 192 504 c 1,7,-1
 177 460 l 1,8,-1
 125 460 l 1,9,10
 124 533 124 533 124 572 c 0,0,1
EndSplineSet
EndChar

StartChar: parenleft
Encoding: 40 40 11
Width: 396
GlyphClass: 2
Flags: W
LayerCount: 2
Fore
SplineSet
102.5 80.5 m 128,-1,1
 81 147 81 147 81 210 c 128,-1,2
 81 273 81 273 92.5 325.5 c 128,-1,3
 104 378 104 378 123.5 420.5 c 128,-1,4
 143 463 143 463 168.5 502.5 c 128,-1,5
 194 542 194 542 222.5 572.5 c 128,-1,6
 251 603 251 603 279 629 c 128,-1,7
 307 655 307 655 332 674 c 1,8,9
 386 712 386 712 408 724 c 2,10,-1
 420 730 l 1,11,-1
 441 705 l 1,12,13
 196 502 196 502 196 192 c 0,14,15
 196 -14 196 -14 307 -139 c 1,16,-1
 278 -165 l 1,17,18
 253 -149 253 -149 214 -108 c 128,-1,19
 175 -67 175 -67 149.5 -26.5 c 128,-1,0
 124 14 124 14 102.5 80.5 c 128,-1,1
EndSplineSet
EndChar

StartChar: parenright
Encoding: 41 41 12
Width: 396
GlyphClass: 2
Flags: W
LayerCount: 2
Fore
SplineSet
197 374 m 0,0,1
 197 578 197 578 86 705 c 1,2,-1
 115 730 l 1,3,4
 138 716 138 716 177.5 674 c 128,-1,5
 217 632 217 632 243 591 c 128,-1,6
 269 550 269 550 290 483.5 c 128,-1,7
 311 417 311 417 311 346.5 c 128,-1,8
 311 276 311 276 292.5 210 c 128,-1,9
 274 144 274 144 244 94.5 c 128,-1,10
 214 45 214 45 178 1.5 c 128,-1,11
 142 -42 142 -42 106 -72 c 0,12,13
 34 -132 34 -132 -8 -155 c 2,14,-1
 -27 -165 l 1,15,-1
 -48 -139 l 1,16,17
 197 64 197 64 197 374 c 0,0,1
EndSplineSet
EndChar

StartChar: asterisk
Encoding: 42 42 13
Width: 439
GlyphClass: 2
Flags: W
LayerCount: 2
Fore
SplineSet
290 424 m 1,0,-1
 291 458 l 2,1,2
 291 479 291 479 284 504 c 1,3,4
 267 477 267 477 259.5 446 c 128,-1,5
 252 415 252 415 247 408 c 0,6,7
 231 389 231 389 214.5 389 c 128,-1,8
 198 389 198 389 189 398.5 c 128,-1,9
 180 408 180 408 180 422.5 c 128,-1,10
 180 437 180 437 191 446.5 c 128,-1,11
 202 456 202 456 226.5 472 c 128,-1,12
 251 488 251 488 271 512 c 1,13,14
 242 509 242 509 211.5 496.5 c 128,-1,15
 181 484 181 484 170 484 c 128,-1,16
 159 484 159 484 150.5 492.5 c 128,-1,17
 142 501 142 501 142 516.5 c 128,-1,18
 142 532 142 532 154 544.5 c 128,-1,19
 166 557 166 557 179.5 557 c 128,-1,20
 193 557 193 557 219.5 544 c 128,-1,21
 246 531 246 531 274 528 c 1,22,23
 261 552 261 552 235.5 573 c 128,-1,24
 210 594 210 594 210 610 c 128,-1,25
 210 626 210 626 222.5 638.5 c 128,-1,26
 235 651 235 651 254 651 c 0,27,28
 285 651 285 651 285 612 c 1,29,30
 285 612 285 612 284 585 c 0,31,32
 284 558 284 558 290 538 c 1,33,34
 304 562 304 562 313 593.5 c 128,-1,35
 322 625 322 625 332 638 c 128,-1,36
 342 651 342 651 358.5 651 c 128,-1,37
 375 651 375 651 384.5 642 c 128,-1,38
 394 633 394 633 394 618.5 c 128,-1,39
 394 604 394 604 382.5 593 c 128,-1,40
 371 582 371 582 346 566 c 128,-1,41
 321 550 321 550 303 529 c 1,42,43
 330 532 330 532 361 544.5 c 128,-1,44
 392 557 392 557 404 557 c 128,-1,45
 416 557 416 557 424.5 548.5 c 128,-1,46
 433 540 433 540 433 524.5 c 128,-1,47
 433 509 433 509 420.5 496.5 c 128,-1,48
 408 484 408 484 394.5 484 c 128,-1,49
 381 484 381 484 353.5 496.5 c 128,-1,50
 326 509 326 509 299 512 c 1,51,52
 312 488 312 488 335 470 c 128,-1,53
 358 452 358 452 361 445 c 1,54,55
 363 435 363 435 363 425 c 128,-1,56
 363 415 363 415 350.5 402 c 128,-1,57
 338 389 338 389 320 389 c 0,58,59
 290 389 290 389 290 424 c 1,0,-1
EndSplineSet
EndChar

StartChar: plus
Encoding: 43 43 14
Width: 573
GlyphClass: 2
Flags: W
LayerCount: 2
Fore
SplineSet
76 238 m 1,0,-1
 91 333 l 1,1,-1
 244 333 l 1,2,-1
 269 490 l 1,3,-1
 369 490 l 1,4,-1
 344 333 l 1,5,-1
 500 333 l 1,6,-1
 485 238 l 1,7,-1
 329 238 l 1,8,-1
 304 82 l 1,9,-1
 204 82 l 1,10,-1
 229 238 l 1,11,-1
 76 238 l 1,0,-1
EndSplineSet
EndChar

StartChar: comma
Encoding: 44 44 15
Width: 225
GlyphClass: 2
Flags: W
LayerCount: 2
Fore
SplineSet
30 23 m 1,0,1
 15 40 15 40 15 67 c 128,-1,2
 15 94 15 94 38.5 117 c 128,-1,3
 62 140 62 140 95 140 c 0,4,5
 166 140 166 140 166 70 c 0,6,7
 166 -58 166 -58 9 -140 c 1,8,-1
 -14 -105 l 1,9,10
 25 -79 25 -79 48.5 -49.5 c 128,-1,11
 72 -20 72 -20 72 4 c 128,-1,12
 72 28 72 28 50 28 c 0,13,14
 42 28 42 28 30 23 c 1,0,1
EndSplineSet
EndChar

StartChar: hyphen
Encoding: 45 45 16
Width: 325
GlyphClass: 2
Flags: W
LayerCount: 2
Fore
SplineSet
45 219 m 1,0,-1
 60 314 l 1,1,-1
 291 314 l 1,2,-1
 276 219 l 1,3,-1
 45 219 l 1,0,-1
EndSplineSet
EndChar

StartChar: period
Encoding: 46 46 17
Width: 225
GlyphClass: 2
Flags: W
LayerCount: 2
Fore
SplineSet
76.5 123.5 m 128,-1,1
 100 149 100 149 132.5 149 c 128,-1,2
 165 149 165 149 180.5 131.5 c 128,-1,3
 196 114 196 114 196 80.5 c 128,-1,4
 196 47 196 47 172.5 21.5 c 128,-1,5
 149 -4 149 -4 116.5 -4 c 128,-1,6
 84 -4 84 -4 68.5 13.5 c 128,-1,7
 53 31 53 31 53 64.5 c 128,-1,0
 53 98 53 98 76.5 123.5 c 128,-1,1
EndSplineSet
EndChar

StartChar: slash
Encoding: 47 47 18
Width: 480
GlyphClass: 2
Flags: W
LayerCount: 2
Fore
SplineSet
65 -140 m 1,0,-1
 -5 -112 l 1,1,-1
 434 700 l 1,2,-1
 503 672 l 1,3,-1
 65 -140 l 1,0,-1
EndSplineSet
EndChar

StartChar: zero
Encoding: 48 48 19
Width: 573
GlyphClass: 2
Flags: W
LayerCount: 2
Fore
SplineSet
253 48 m 0,0,1
 293 48 293 48 330 109 c 128,-1,2
 367 170 367 170 389.5 269 c 128,-1,3
 412 368 412 368 412 473 c 0,4,5
 412 626 412 626 345 626 c 0,6,7
 305 626 305 626 268 564.5 c 128,-1,8
 231 503 231 503 208 404 c 128,-1,9
 185 305 185 305 185 200 c 0,10,11
 185 48 185 48 253 48 c 0,0,1
244 -7 m 0,12,13
 153 -7 153 -7 99.5 63 c 128,-1,14
 46 133 46 133 46 250 c 0,15,16
 46 448 46 448 128.5 562.5 c 128,-1,17
 211 677 211 677 353 677 c 0,18,19
 443 677 443 677 497 607.5 c 128,-1,20
 551 538 551 538 551 422 c 0,21,22
 551 223 551 223 468.5 108 c 128,-1,23
 386 -7 386 -7 244 -7 c 0,12,13
EndSplineSet
EndChar

StartChar: one
Encoding: 49 49 20
Width: 573
GlyphClass: 2
Flags: W
LayerCount: 2
Fore
SplineSet
53 0 m 1,0,-1
 63 48 l 1,1,2
 153 57 153 57 203 78 c 1,3,-1
 279 557 l 1,4,-1
 145 557 l 1,5,-1
 154 615 l 1,6,7
 305 626 305 626 412 671 c 1,8,-1
 443 656 l 1,9,-1
 351 78 l 1,10,11
 369 67 369 67 408.5 58.5 c 128,-1,12
 448 50 448 50 472 48 c 1,13,-1
 461 0 l 1,14,-1
 53 0 l 1,0,-1
EndSplineSet
EndChar

StartChar: two
Encoding: 50 50 21
Width: 573
GlyphClass: 2
Flags: W
LayerCount: 2
Fore
SplineSet
311.5 341.5 m 128,-1,1
 392 450 392 450 392 535.5 c 128,-1,2
 392 621 392 621 329 621 c 0,3,4
 291 621 291 621 267 589.5 c 128,-1,5
 243 558 243 558 243 522 c 128,-1,6
 243 486 243 486 253 462 c 1,7,8
 213 428 213 428 174.5 428 c 128,-1,9
 136 428 136 428 115.5 447 c 128,-1,10
 95 466 95 466 95 501 c 0,11,12
 95 583 95 583 170.5 631 c 128,-1,13
 246 679 246 679 334.5 679 c 128,-1,14
 423 679 423 679 481 639 c 128,-1,15
 539 599 539 599 539 525 c 0,16,17
 539 431 539 431 466 336 c 128,-1,18
 393 241 393 241 213 98 c 1,19,-1
 482 98 l 1,20,-1
 466 0 l 1,21,-1
 13 0 l 1,22,-1
 22 58 l 1,23,0
 231 233 231 233 311.5 341.5 c 128,-1,1
EndSplineSet
EndChar

StartChar: three
Encoding: 51 51 22
Width: 573
GlyphClass: 2
Flags: W
LayerCount: 2
Fore
SplineSet
385 541 m 0,0,1
 385 581 385 581 368.5 601 c 128,-1,2
 352 621 352 621 327 621 c 0,3,4
 286 621 286 621 262 588 c 128,-1,5
 238 555 238 555 238 512 c 0,6,7
 238 491 238 491 244 473 c 1,8,9
 211 443 211 443 171.5 443 c 128,-1,10
 132 443 132 443 113.5 463 c 128,-1,11
 95 483 95 483 95 515 c 0,12,13
 95 590 95 590 167.5 634.5 c 128,-1,14
 240 679 240 679 334.5 679 c 128,-1,15
 429 679 429 679 483.5 633 c 128,-1,16
 538 587 538 587 538 527.5 c 128,-1,17
 538 468 538 468 498 421 c 128,-1,18
 458 374 458 374 381 351 c 1,19,20
 447 336 447 336 476 302 c 128,-1,21
 505 268 505 268 505 214 c 0,22,23
 505 116 505 116 420 54 c 128,-1,24
 335 -8 335 -8 225 -8 c 0,25,26
 142 -8 142 -8 84 26 c 128,-1,27
 26 60 26 60 26 116 c 0,28,29
 26 159 26 159 51.5 184 c 128,-1,30
 77 209 77 209 114 209 c 128,-1,31
 151 209 151 209 182 181 c 1,32,33
 165 155 165 155 165 127.5 c 128,-1,34
 165 100 165 100 182 81.5 c 128,-1,35
 199 63 199 63 232 63 c 0,36,37
 281 63 281 63 311.5 101 c 128,-1,38
 342 139 342 139 342 193.5 c 128,-1,39
 342 248 342 248 307.5 283.5 c 128,-1,40
 273 319 273 319 200 319 c 1,41,-1
 209 381 l 1,42,43
 385 395 385 395 385 541 c 0,0,1
EndSplineSet
EndChar

StartChar: four
Encoding: 52 52 23
Width: 573
GlyphClass: 2
Flags: W
LayerCount: 2
Fore
SplineSet
315 179 m 1,0,-1
 26 179 l 1,1,-1
 24 215 l 1,2,-1
 352 682 l 1,3,4
 429 678 429 678 477 647 c 1,5,-1
 174 255 l 1,6,-1
 327 255 l 1,7,-1
 363 418 l 1,8,9
 401 418 401 418 419 432 c 128,-1,10
 437 446 437 446 450 475 c 1,11,-1
 497 475 l 1,12,-1
 462 250 l 1,13,14
 497 239 497 239 554 227 c 1,15,-1
 541 179 l 1,16,-1
 445 179 l 1,17,-1
 417 0 l 1,18,-1
 287 0 l 1,19,-1
 315 179 l 1,0,-1
EndSplineSet
EndChar

StartChar: five
Encoding: 53 53 24
Width: 573
GlyphClass: 2
Flags: W
LayerCount: 2
Fore
SplineSet
374 668 m 1,0,-1
 516 670 l 1,1,-1
 542 648 l 1,2,-1
 521 572 l 1,3,-1
 273 572 l 1,4,5
 243 446 243 446 232 405 c 1,6,7
 286 418 286 418 328 418 c 0,8,9
 416 418 416 418 469.5 374 c 128,-1,10
 523 330 523 330 523 246 c 0,11,12
 523 138 523 138 444.5 65 c 128,-1,13
 366 -8 366 -8 241 -8 c 0,14,15
 154 -8 154 -8 99.5 26 c 128,-1,16
 45 60 45 60 45 109 c 128,-1,17
 45 158 45 158 72 183 c 128,-1,18
 99 208 99 208 135.5 208 c 128,-1,19
 172 208 172 208 201 181 c 1,20,21
 183 152 183 152 183 124.5 c 128,-1,22
 183 97 183 97 200 79.5 c 128,-1,23
 217 62 217 62 252 62 c 0,24,25
 309 62 309 62 339 113 c 128,-1,26
 369 164 369 164 369 246 c 0,27,28
 369 348 369 348 284 348 c 0,29,30
 226 348 226 348 150 306 c 1,31,-1
 104 359 l 1,32,33
 108 376 108 376 175 643 c 1,34,-1
 212 670 l 1,35,36
 301 668 301 668 374 668 c 1,0,-1
EndSplineSet
EndChar

StartChar: six
Encoding: 54 54 25
Width: 573
GlyphClass: 2
Flags: W
LayerCount: 2
Fore
SplineSet
361 391 m 0,0,1
 449 391 449 391 495 346.5 c 128,-1,2
 541 302 541 302 541 235 c 0,3,4
 541 138 541 138 466.5 65.5 c 128,-1,5
 392 -7 392 -7 266 -7 c 0,6,7
 163 -7 163 -7 109 46 c 128,-1,8
 55 99 55 99 55 199 c 0,9,10
 55 371 55 371 173 496 c 128,-1,11
 291 621 291 621 509 680 c 1,12,-1
 525 630 l 1,13,14
 309 543 309 543 239 362 c 1,15,16
 295 391 295 391 361 391 c 0,0,1
283 62 m 0,17,18
 333 62 333 62 364.5 109 c 128,-1,19
 396 156 396 156 396 209.5 c 128,-1,20
 396 263 396 263 375 292 c 128,-1,21
 354 321 354 321 311.5 321 c 128,-1,22
 269 321 269 321 218 286 c 1,23,24
 207 217 207 217 207 176 c 0,25,26
 207 62 207 62 283 62 c 0,17,18
EndSplineSet
EndChar

StartChar: seven
Encoding: 55 55 26
Width: 573
GlyphClass: 2
Flags: W
LayerCount: 2
Fore
SplineSet
350 667 m 1,0,-1
 570 670 l 1,1,-1
 584 625 l 1,2,3
 534 559 534 559 450 434 c 0,4,5
 283 185 283 185 283 93 c 0,6,7
 283 53 283 53 307 33 c 1,8,9
 268 -8 268 -8 216 -8 c 0,10,11
 125 -8 125 -8 125 74 c 0,12,13
 125 150 125 150 211 276 c 1,14,15
 243 321 243 321 309 402.5 c 128,-1,16
 375 484 375 484 387 499 c 2,17,-1
 455 587 l 1,18,-1
 227 587 l 1,19,20
 206 541 206 541 193 481 c 1,21,22
 175 478 175 478 155.5 478 c 128,-1,23
 136 478 136 478 117 481 c 1,24,-1
 117 653 l 1,25,-1
 135 670 l 1,26,-1
 350 667 l 1,0,-1
EndSplineSet
EndChar

StartChar: eight
Encoding: 56 56 27
Width: 573
GlyphClass: 2
Flags: W
LayerCount: 2
Fore
SplineSet
564 534 m 0,0,1
 564 485 564 485 526.5 438.5 c 128,-1,2
 489 392 489 392 430 364 c 1,3,4
 538 308 538 308 538 212 c 128,-1,5
 538 116 538 116 461 54.5 c 128,-1,6
 384 -7 384 -7 266.5 -7 c 128,-1,7
 149 -7 149 -7 90 35 c 128,-1,8
 31 77 31 77 31 155 c 0,9,10
 31 271 31 271 176 358 c 1,11,12
 102 403 102 403 102 486.5 c 128,-1,13
 102 570 102 570 173.5 624.5 c 128,-1,14
 245 679 245 679 350 679 c 128,-1,15
 455 679 455 679 509.5 640 c 128,-1,16
 564 601 564 601 564 534 c 0,0,1
396 199 m 0,17,18
 396 243 396 243 352 270 c 1,19,20
 322 290 322 290 261 317 c 1,21,22
 180 261 180 261 180 163 c 0,23,24
 180 116 180 116 204 89 c 128,-1,25
 228 62 228 62 277.5 62 c 128,-1,26
 327 62 327 62 361.5 101.5 c 128,-1,27
 396 141 396 141 396 199 c 0,17,18
274.5 578.5 m 128,-1,29
 246 549 246 549 246 509.5 c 128,-1,30
 246 470 246 470 271.5 447.5 c 128,-1,31
 297 425 297 425 346 403 c 1,32,33
 378 423 378 423 399 458 c 128,-1,34
 420 493 420 493 420 529.5 c 128,-1,35
 420 566 420 566 401 587 c 128,-1,36
 382 608 382 608 342.5 608 c 128,-1,28
 303 608 303 608 274.5 578.5 c 128,-1,29
EndSplineSet
EndChar

StartChar: nine
Encoding: 57 57 28
Width: 573
GlyphClass: 2
Flags: W
LayerCount: 2
Fore
SplineSet
256 278 m 0,0,1
 168 278 168 278 122 322.5 c 128,-1,2
 76 367 76 367 76 434 c 0,3,4
 76 531 76 531 150.5 603.5 c 128,-1,5
 225 676 225 676 351 676 c 0,6,7
 454 676 454 676 508 623 c 128,-1,8
 562 570 562 570 562 470 c 0,9,10
 562 298 562 298 444 173 c 128,-1,11
 326 48 326 48 108 -11 c 1,12,-1
 92 39 l 1,13,14
 308 126 308 126 378 307 c 1,15,16
 322 278 322 278 256 278 c 0,0,1
334 607 m 0,17,18
 284 607 284 607 252.5 560 c 128,-1,19
 221 513 221 513 221 459.5 c 128,-1,20
 221 406 221 406 242 377 c 128,-1,21
 263 348 263 348 305.5 348 c 128,-1,22
 348 348 348 348 399 383 c 1,23,24
 410 452 410 452 410 493 c 0,25,26
 410 607 410 607 334 607 c 0,17,18
EndSplineSet
EndChar

StartChar: colon
Encoding: 58 58 29
Width: 271
GlyphClass: 2
Flags: W
LayerCount: 2
Fore
SplineSet
66.5 123.5 m 128,-1,1
 90 149 90 149 122.5 149 c 128,-1,2
 155 149 155 149 170.5 131.5 c 128,-1,3
 186 114 186 114 186 80.5 c 128,-1,4
 186 47 186 47 162.5 21.5 c 128,-1,5
 139 -4 139 -4 106.5 -4 c 128,-1,6
 74 -4 74 -4 58.5 13.5 c 128,-1,7
 43 31 43 31 43 64.5 c 128,-1,0
 43 98 43 98 66.5 123.5 c 128,-1,1
115.5 435.5 m 128,-1,9
 139 461 139 461 171.5 461 c 128,-1,10
 204 461 204 461 219.5 443.5 c 128,-1,11
 235 426 235 426 235 392.5 c 128,-1,12
 235 359 235 359 211.5 333.5 c 128,-1,13
 188 308 188 308 155.5 308 c 128,-1,14
 123 308 123 308 107.5 325.5 c 128,-1,15
 92 343 92 343 92 376.5 c 128,-1,8
 92 410 92 410 115.5 435.5 c 128,-1,9
EndSplineSet
EndChar

StartChar: semicolon
Encoding: 59 59 30
Width: 271
GlyphClass: 2
Flags: W
LayerCount: 2
Fore
SplineSet
49 23 m 1,0,1
 34 40 34 40 34 67 c 128,-1,2
 34 94 34 94 57.5 117 c 128,-1,3
 81 140 81 140 114 140 c 0,4,5
 185 140 185 140 185 70 c 0,6,7
 185 -58 185 -58 28 -140 c 1,8,-1
 5 -105 l 1,9,10
 44 -79 44 -79 67.5 -49.5 c 128,-1,11
 91 -20 91 -20 91 4 c 128,-1,12
 91 28 91 28 69 28 c 0,13,14
 61 28 61 28 49 23 c 1,0,1
119.5 435.5 m 128,-1,16
 143 461 143 461 175.5 461 c 128,-1,17
 208 461 208 461 223.5 443.5 c 128,-1,18
 239 426 239 426 239 392.5 c 128,-1,19
 239 359 239 359 215.5 333.5 c 128,-1,20
 192 308 192 308 159.5 308 c 128,-1,21
 127 308 127 308 111.5 325.5 c 128,-1,22
 96 343 96 343 96 376.5 c 128,-1,15
 96 410 96 410 119.5 435.5 c 128,-1,16
EndSplineSet
EndChar

StartChar: less
Encoding: 60 60 31
Width: 573
GlyphClass: 2
Flags: W
LayerCount: 2
Fore
SplineSet
53 222 m 1,0,-1
 73 349 l 1,1,-1
 543 524 l 1,2,-1
 562 431 l 1,3,-1
 158 285 l 1,4,-1
 516 140 l 1,5,-1
 467 47 l 1,6,-1
 53 222 l 1,0,-1
EndSplineSet
EndChar

StartChar: equal
Encoding: 61 61 32
Width: 573
GlyphClass: 2
Flags: W
LayerCount: 2
Fore
SplineSet
36 145 m 1,0,-1
 51 240 l 1,1,-1
 520 240 l 1,2,-1
 505 145 l 1,3,-1
 36 145 l 1,0,-1
66 332 m 1,4,-1
 81 427 l 1,5,-1
 550 427 l 1,6,-1
 535 332 l 1,7,-1
 66 332 l 1,4,-1
EndSplineSet
EndChar

StartChar: greater
Encoding: 62 62 33
Width: 573
GlyphClass: 2
Flags: W
LayerCount: 2
Fore
SplineSet
540 349 m 1,0,-1
 520 222 l 1,1,-1
 50 47 l 1,2,-1
 31 140 l 1,3,-1
 435 285 l 1,4,-1
 77 431 l 1,5,-1
 126 524 l 1,6,-1
 540 349 l 1,0,-1
EndSplineSet
EndChar

StartChar: question
Encoding: 63 63 34
Width: 438
GlyphClass: 2
Flags: W
LayerCount: 2
Fore
SplineSet
144.5 208.5 m 128,-1,1
 126 226 126 226 126 262 c 128,-1,2
 126 298 126 298 146 329.5 c 128,-1,3
 166 361 166 361 194.5 384.5 c 128,-1,4
 223 408 223 408 251.5 432 c 128,-1,5
 280 456 280 456 300 492 c 128,-1,6
 320 528 320 528 320 564.5 c 128,-1,7
 320 601 320 601 304.5 616 c 128,-1,8
 289 631 289 631 266.5 631 c 128,-1,9
 244 631 244 631 226.5 617 c 128,-1,10
 209 603 209 603 209 578 c 128,-1,11
 209 553 209 553 231 534 c 1,12,13
 205 488 205 488 150 488 c 0,14,15
 121 488 121 488 100.5 505.5 c 128,-1,16
 80 523 80 523 80 554 c 0,17,18
 80 610 80 610 142 643.5 c 128,-1,19
 204 677 204 677 284 677 c 128,-1,20
 364 677 364 677 407.5 647.5 c 128,-1,21
 451 618 451 618 451 566.5 c 128,-1,22
 451 515 451 515 430.5 477.5 c 128,-1,23
 410 440 410 440 381 415 c 128,-1,24
 352 390 352 390 323 368 c 0,25,26
 253 313 253 313 253 263 c 0,27,28
 253 242 253 242 261 216 c 1,29,30
 225 191 225 191 194 191 c 128,-1,0
 163 191 163 191 144.5 208.5 c 128,-1,1
131.5 110 m 128,-1,32
 152 132 152 132 181 132 c 128,-1,33
 210 132 210 132 224 116.5 c 128,-1,34
 238 101 238 101 238 71 c 128,-1,35
 238 41 238 41 217.5 18.5 c 128,-1,36
 197 -4 197 -4 168 -4 c 128,-1,37
 139 -4 139 -4 125 12 c 128,-1,38
 111 28 111 28 111 58 c 128,-1,31
 111 88 111 88 131.5 110 c 128,-1,32
EndSplineSet
EndChar

StartChar: at
Encoding: 64 64 35
Width: 921
GlyphClass: 2
Flags: W
LayerCount: 2
Fore
SplineSet
634 141 m 0,0,1
 634 87 634 87 665 87 c 0,2,3
 691 87 691 87 711.5 116 c 128,-1,4
 732 145 732 145 742 188 c 0,5,6
 764 278 764 278 764 350 c 0,7,8
 764 463 764 463 698.5 526 c 128,-1,9
 633 589 633 589 514 589 c 0,10,11
 365 589 365 589 262 474.5 c 128,-1,12
 159 360 159 360 159 189 c 0,13,14
 159 58 159 58 230 -17 c 128,-1,15
 301 -92 301 -92 409 -92 c 0,16,17
 487 -92 487 -92 562 -53 c 1,18,-1
 586 -100 l 1,19,20
 492 -153 492 -153 393 -153 c 128,-1,21
 294 -153 294 -153 216.5 -115.5 c 128,-1,22
 139 -78 139 -78 88.5 0 c 128,-1,23
 38 78 38 78 38 184 c 0,24,25
 38 384 38 384 178.5 514.5 c 128,-1,26
 319 645 319 645 525 645 c 0,27,28
 690 645 690 645 787 563.5 c 128,-1,29
 884 482 884 482 884 342.5 c 128,-1,30
 884 203 884 203 805 113.5 c 128,-1,31
 726 24 726 24 633 24 c 0,32,33
 588 24 588 24 552.5 44.5 c 128,-1,34
 517 65 517 65 509 106 c 1,35,36
 475 23 475 23 383 23 c 0,37,38
 322 23 322 23 280.5 68 c 128,-1,39
 239 113 239 113 239 197 c 0,40,41
 239 336 239 336 308 407.5 c 128,-1,42
 377 479 377 479 485 479 c 0,43,44
 527 479 527 479 577 466 c 1,45,46
 608 478 608 478 635 478 c 128,-1,47
 662 478 662 478 684 476 c 1,48,-1
 637 176 l 2,49,50
 634 155 634 155 634 141 c 0,0,1
384.5 110.5 m 128,-1,52
 399 75 399 75 428.5 75 c 128,-1,53
 458 75 458 75 480.5 116.5 c 128,-1,54
 503 158 503 158 516 229 c 2,55,-1
 551 428 l 1,56,57
 527 435 527 435 505 435 c 0,58,59
 448 435 448 435 409 373.5 c 128,-1,60
 370 312 370 312 370 198 c 0,61,51
 370 146 370 146 384.5 110.5 c 128,-1,52
EndSplineSet
EndChar

StartChar: A
Encoding: 65 65 36
Width: 614
GlyphClass: 2
Flags: W
LayerCount: 2
Fore
SplineSet
396 65 m 1,0,-1
 372 208 l 1,1,-1
 166 208 l 1,2,-1
 96 70 l 1,3,4
 121 47 121 47 176 40 c 1,5,-1
 171 0 l 1,6,-1
 -55 0 l 1,7,-1
 -50 40 l 1,8,9
 -3 44 -3 44 16 65 c 1,10,-1
 325 667 l 1,11,-1
 429 667 l 1,12,-1
 550 74 l 1,13,14
 561 47 561 47 604 40 c 1,15,-1
 600 0 l 1,16,-1
 324 0 l 1,17,-1
 330 40 l 1,18,19
 379 47 379 47 396 65 c 1,0,-1
321 511 m 1,20,-1
 198 271 l 1,21,-1
 361 271 l 1,22,-1
 321 511 l 1,20,-1
EndSplineSet
EndChar

StartChar: B
Encoding: 66 66 37
Width: 625
GlyphClass: 2
Flags: W
LayerCount: 2
Fore
SplineSet
380 667 m 2,0,1
 615 667 615 667 615 526 c 0,2,3
 615 394 615 394 475 359 c 1,4,5
 595 321 595 321 595 222 c 128,-1,6
 595 123 595 123 510.5 61.5 c 128,-1,7
 426 0 426 0 283 0 c 2,8,-1
 0 0 l 1,9,-1
 5 41 l 1,10,11
 46 47 46 47 77 71 c 1,12,-1
 160 596 l 1,13,14
 142 619 142 619 94 626 c 1,15,-1
 100 667 l 1,16,-1
 380 667 l 2,0,1
230 116 m 2,17,18
 228 100 228 100 228 90 c 0,19,20
 228 64 228 64 278 62 c 1,21,22
 435 66 435 66 435 227 c 0,23,24
 435 320 435 320 296 320 c 2,25,-1
 263 320 l 1,26,-1
 230 116 l 2,17,18
466 521 m 0,27,28
 466 602 466 602 355 606 c 1,29,30
 330 605 330 605 319.5 599.5 c 128,-1,31
 309 594 309 594 304 577 c 1,32,-1
 273 383 l 1,33,-1
 299 383 l 2,34,35
 466 383 466 383 466 521 c 0,27,28
EndSplineSet
EndChar

StartChar: C
Encoding: 67 67 38
Width: 552
GlyphClass: 2
Flags: W
LayerCount: 2
Fore
SplineSet
289 -10 m 0,0,1
 170 -10 170 -10 108.5 56.5 c 128,-1,2
 47 123 47 123 47 249 c 0,3,4
 47 449 47 449 136.5 561.5 c 128,-1,5
 226 674 226 674 397 674 c 0,6,7
 481 674 481 674 531.5 641 c 128,-1,8
 582 608 582 608 582 555 c 0,9,10
 582 515 582 515 553.5 485.5 c 128,-1,11
 525 456 525 456 494 456 c 128,-1,12
 463 456 463 456 443.5 469 c 128,-1,13
 424 482 424 482 418 502 c 1,14,15
 443 535 443 535 443 563 c 128,-1,16
 443 591 443 591 427.5 606 c 128,-1,17
 412 621 412 621 384 621 c 0,18,19
 338 621 338 621 303 586 c 128,-1,20
 268 551 268 551 249 494 c 0,21,22
 212 382 212 382 212 246 c 0,23,24
 212 58 212 58 333 58 c 0,25,26
 414 58 414 58 497 133 c 1,27,-1
 525 101 l 1,28,29
 469 48 469 48 407 19 c 128,-1,30
 345 -10 345 -10 289 -10 c 0,0,1
EndSplineSet
EndChar

StartChar: D
Encoding: 68 68 39
Width: 679
GlyphClass: 2
Flags: W
LayerCount: 2
Fore
SplineSet
302 667 m 2,0,1
 556 667 556 667 622 534 c 1,2,3
 648 484 648 484 648 407 c 128,-1,4
 648 330 648 330 626.5 259.5 c 128,-1,5
 605 189 605 189 557.5 129 c 128,-1,6
 510 69 510 69 423.5 34.5 c 128,-1,7
 337 0 337 0 218 0 c 2,8,-1
 -7 0 l 1,9,-1
 -2 41 l 1,10,11
 37 47 37 47 69 70 c 1,12,-1
 153 596 l 1,13,14
 135 619 135 619 87 626 c 1,15,-1
 93 667 l 1,16,-1
 302 667 l 2,0,1
222 99 m 0,17,18
 222 63 222 63 258 63 c 0,19,20
 315 63 315 63 358.5 89 c 128,-1,21
 402 115 402 115 426.5 153.5 c 128,-1,22
 451 192 451 192 466 244 c 0,23,24
 492 330 492 330 492 429 c 0,25,26
 492 605 492 605 329 605 c 2,27,-1
 302 605 l 1,28,-1
 224 117 l 2,29,30
 222 103 222 103 222 99 c 0,17,18
EndSplineSet
EndChar

StartChar: E
Encoding: 69 69 40
Width: 562
GlyphClass: 2
Flags: W
LayerCount: 2
Fore
SplineSet
553 503 m 1,0,1
 528 496 528 496 511.5 496 c 128,-1,2
 495 496 495 496 485 499 c 1,3,4
 483 567 483 567 463 606 c 1,5,-1
 294 606 l 1,6,-1
 256 372 l 1,7,-1
 347 376 l 2,8,9
 365 377 365 377 383 395.5 c 128,-1,10
 401 414 401 414 413 443 c 1,11,-1
 455 443 l 1,12,-1
 422 236 l 1,13,-1
 380 236 l 1,14,15
 373 276 373 276 362.5 292.5 c 128,-1,16
 352 309 352 309 335 310 c 2,17,-1
 247 314 l 1,18,-1
 207 62 l 1,19,-1
 394 62 l 1,20,21
 430 107 430 107 457 184 c 1,22,23
 481 191 481 191 497.5 191 c 128,-1,24
 514 191 514 191 525 188 c 1,25,-1
 485 0 l 1,26,-1
 -15 0 l 1,27,-1
 -10 41 l 1,28,29
 31 47 31 47 62 71 c 1,30,-1
 145 596 l 1,31,32
 127 619 127 619 79 626 c 1,33,-1
 85 667 l 1,34,-1
 575 667 l 1,35,-1
 553 503 l 1,0,1
EndSplineSet
EndChar

StartChar: F
Encoding: 70 70 41
Width: 536
GlyphClass: 2
Flags: W
LayerCount: 2
Fore
SplineSet
554 503 m 1,0,1
 530 496 530 496 513.5 496 c 128,-1,2
 497 496 497 496 486 499 c 1,3,4
 484 567 484 567 464 606 c 1,5,-1
 294 606 l 1,6,-1
 255 362 l 1,7,-1
 346 366 l 2,8,9
 364 367 364 367 382 385.5 c 128,-1,10
 400 404 400 404 412 433 c 1,11,-1
 454 433 l 1,12,-1
 421 226 l 1,13,-1
 379 226 l 1,14,15
 372 266 372 266 361.5 282.5 c 128,-1,16
 351 299 351 299 334 300 c 2,17,-1
 246 304 l 1,18,-1
 209 71 l 1,19,20
 222 57 222 57 296 41 c 1,21,-1
 291 0 l 1,22,-1
 -15 0 l 1,23,-1
 -10 41 l 1,24,25
 31 47 31 47 62 71 c 1,26,-1
 145 596 l 1,27,28
 127 619 127 619 79 626 c 1,29,-1
 85 667 l 1,30,-1
 576 667 l 1,31,-1
 554 503 l 1,0,1
EndSplineSet
EndChar

StartChar: G
Encoding: 71 71 42
Width: 619
GlyphClass: 2
Flags: W
LayerCount: 2
Fore
SplineSet
548 66 m 1,0,1
 431 -10 431 -10 302 -10 c 0,2,3
 51 -10 51 -10 51 249 c 0,4,5
 51 450 51 450 144.5 562 c 128,-1,6
 238 674 238 674 416 674 c 0,7,8
 506 674 506 674 561 641 c 128,-1,9
 616 608 616 608 616 555 c 0,10,11
 616 515 616 515 587.5 485.5 c 128,-1,12
 559 456 559 456 528 456 c 128,-1,13
 497 456 497 456 477.5 469 c 128,-1,14
 458 482 458 482 452 502 c 1,15,16
 478 538 478 538 478 564 c 0,17,18
 478 621 478 621 403 621 c 0,19,20
 308 621 308 621 257 516.5 c 128,-1,21
 206 412 206 412 206 249 c 0,22,23
 206 58 206 58 337 58 c 0,24,25
 397 58 397 58 405 91 c 1,26,-1
 428 233 l 1,27,28
 400 249 400 249 353 252 c 1,29,-1
 361 310 l 1,30,-1
 588 310 l 1,31,-1
 548 66 l 1,0,1
EndSplineSet
EndChar

StartChar: H
Encoding: 72 72 43
Width: 691
GlyphClass: 2
Flags: W
LayerCount: 2
Fore
SplineSet
436 626 m 1,0,-1
 442 667 l 1,1,-1
 728 667 l 1,2,-1
 722 626 l 1,3,4
 679 618 679 618 649 596 c 1,5,-1
 566 71 l 1,6,7
 584 52 584 52 633 41 c 1,8,-1
 628 0 l 1,9,-1
 342 0 l 1,10,-1
 347 41 l 1,11,12
 388 47 388 47 419 71 c 1,13,-1
 457 310 l 1,14,-1
 248 310 l 1,15,-1
 210 71 l 1,16,17
 228 52 228 52 277 41 c 1,18,-1
 272 0 l 1,19,-1
 -14 0 l 1,20,-1
 -9 41 l 1,21,22
 32 47 32 47 63 71 c 1,23,-1
 146 596 l 1,24,25
 128 619 128 619 80 626 c 1,26,-1
 86 667 l 1,27,-1
 372 667 l 1,28,-1
 366 626 l 1,29,30
 323 618 323 618 293 596 c 1,31,-1
 258 373 l 1,32,-1
 467 373 l 1,33,-1
 502 596 l 1,34,35
 484 619 484 619 436 626 c 1,0,-1
EndSplineSet
EndChar

StartChar: I
Encoding: 73 73 44
Width: 341
GlyphClass: 2
Flags: W
LayerCount: 2
Fore
SplineSet
89 626 m 1,0,-1
 95 667 l 1,1,-1
 381 667 l 1,2,-1
 375 626 l 1,3,4
 332 618 332 618 302 596 c 1,5,-1
 219 71 l 1,6,7
 237 52 237 52 286 41 c 1,8,-1
 281 0 l 1,9,-1
 -5 0 l 1,10,-1
 0 41 l 1,11,12
 41 47 41 47 72 71 c 1,13,-1
 155 596 l 1,14,15
 137 619 137 619 89 626 c 1,0,-1
EndSplineSet
EndChar

StartChar: J
Encoding: 74 74 45
Width: 333
GlyphClass: 2
Flags: W
LayerCount: 2
Fore
SplineSet
87 626 m 1,0,-1
 93 667 l 1,1,-1
 379 667 l 1,2,-1
 373 626 l 1,3,4
 330 618 330 618 300 596 c 1,5,-1
 209 16 l 2,6,7
 194 -80 194 -80 126.5 -135 c 128,-1,8
 59 -190 59 -190 -57 -218 c 1,9,-1
 -69 -163 l 1,10,11
 42 -110 42 -110 59 1 c 2,12,-1
 153 596 l 1,13,14
 135 619 135 619 87 626 c 1,0,-1
EndSplineSet
EndChar

StartChar: K
Encoding: 75 75 46
Width: 655
GlyphClass: 2
Flags: W
LayerCount: 2
Fore
SplineSet
517 603 m 0,0,1
 517 626 517 626 469 626 c 1,2,-1
 474 667 l 1,3,-1
 712 667 l 1,4,-1
 706 626 l 1,5,6
 646 623 646 623 613 589 c 2,7,-1
 425 391 l 1,8,-1
 552 76 l 1,9,10
 580 50 580 50 624 41 c 1,11,-1
 619 0 l 1,12,-1
 462 0 l 2,13,14
 411 0 411 0 382 58 c 1,15,-1
 272 341 l 1,16,-1
 505 581 l 2,17,18
 517 593 517 593 517 603 c 0,0,1
85 626 m 1,19,-1
 91 667 l 1,20,-1
 377 667 l 1,21,-1
 371 626 l 1,22,23
 328 618 328 618 298 596 c 1,24,-1
 215 71 l 1,25,26
 233 52 233 52 282 41 c 1,27,-1
 277 0 l 1,28,-1
 -9 0 l 1,29,-1
 -4 41 l 1,30,31
 37 47 37 47 68 71 c 1,32,-1
 151 596 l 1,33,34
 133 619 133 619 85 626 c 1,19,-1
EndSplineSet
EndChar

StartChar: L
Encoding: 76 76 47
Width: 531
GlyphClass: 2
Flags: W
LayerCount: 2
Fore
SplineSet
437 184 m 1,0,1
 461 191 461 191 477.5 191 c 128,-1,2
 494 191 494 191 505 188 c 1,3,-1
 465 0 l 1,4,-1
 5 0 l 1,5,-1
 10 41 l 1,6,7
 51 47 51 47 82 71 c 1,8,-1
 165 596 l 1,9,10
 147 619 147 619 99 626 c 1,11,-1
 105 667 l 1,12,-1
 401 667 l 1,13,-1
 395 626 l 1,14,15
 339 616 339 616 312 596 c 1,16,-1
 227 62 l 1,17,-1
 374 62 l 1,18,19
 410 107 410 107 437 184 c 1,0,1
EndSplineSet
EndChar

StartChar: M
Encoding: 77 77 48
Width: 818
GlyphClass: 2
Flags: W
LayerCount: 2
Fore
SplineSet
94 626 m 1,0,-1
 100 667 l 1,1,-1
 341 667 l 1,2,-1
 422 217 l 1,3,-1
 632 667 l 1,4,-1
 868 667 l 1,5,-1
 862 626 l 1,6,7
 819 618 819 618 789 596 c 1,8,-1
 706 71 l 1,9,10
 724 52 724 52 773 41 c 1,11,-1
 768 0 l 1,12,-1
 486 0 l 1,13,-1
 491 41 l 1,14,15
 532 47 532 47 563 71 c 1,16,-1
 628 484 l 1,17,-1
 399 0 l 1,18,-1
 322 0 l 1,19,-1
 229 484 l 1,20,-1
 164 71 l 1,21,22
 182 52 182 52 231 41 c 1,23,-1
 226 0 l 1,24,-1
 0 0 l 1,25,-1
 5 41 l 1,26,27
 46 47 46 47 77 71 c 1,28,-1
 160 596 l 1,29,30
 142 619 142 619 94 626 c 1,0,-1
EndSplineSet
EndChar

StartChar: N
Encoding: 78 78 49
Width: 662
GlyphClass: 2
Flags: W
LayerCount: 2
Fore
SplineSet
85 626 m 1,0,-1
 91 667 l 1,1,-1
 303 667 l 1,2,-1
 482 183 l 1,3,-1
 547 596 l 1,4,5
 529 619 529 619 481 626 c 1,6,-1
 487 667 l 1,7,-1
 713 667 l 1,8,-1
 707 626 l 1,9,10
 664 618 664 618 634 596 c 1,11,-1
 540 0 l 1,12,-1
 388 0 l 1,13,-1
 217 460 l 1,14,-1
 155 71 l 1,15,16
 173 52 173 52 222 41 c 1,17,-1
 217 0 l 1,18,-1
 -9 0 l 1,19,-1
 -4 41 l 1,20,21
 37 47 37 47 68 71 c 1,22,-1
 151 596 l 1,23,24
 133 619 133 619 85 626 c 1,0,-1
EndSplineSet
EndChar

StartChar: O
Encoding: 79 79 50
Width: 675
GlyphClass: 2
Flags: W
LayerCount: 2
Fore
SplineSet
219.5 339.5 m 128,-1,1
 208 274 208 274 208 227.5 c 128,-1,2
 208 181 208 181 211.5 154.5 c 128,-1,3
 215 128 215 128 224 102 c 0,4,5
 244 50 244 50 309 50 c 0,6,7
 356 50 356 50 394.5 93 c 128,-1,8
 433 136 433 136 455 200 c 0,9,10
 500 332 500 332 500 450 c 0,11,12
 500 578 500 578 452 607 c 0,13,14
 431 620 431 620 399 620 c 0,15,16
 352 620 352 620 313.5 577 c 128,-1,17
 275 534 275 534 253 469.5 c 128,-1,0
 231 405 231 405 219.5 339.5 c 128,-1,1
48 257 m 0,18,19
 48 455 48 455 140.5 566.5 c 128,-1,20
 233 678 233 678 409 678 c 0,21,22
 535 678 535 678 598 610.5 c 128,-1,23
 661 543 661 543 661 413 c 0,24,25
 661 215 661 215 569.5 102.5 c 128,-1,26
 478 -10 478 -10 300 -10 c 0,27,28
 175 -10 175 -10 111.5 58.5 c 128,-1,29
 48 127 48 127 48 257 c 0,18,19
EndSplineSet
EndChar

StartChar: P
Encoding: 80 80 51
Width: 596
GlyphClass: 2
Flags: W
LayerCount: 2
Fore
SplineSet
383 667 m 2,0,1
 617 667 617 667 617 510 c 0,2,3
 617 449 617 449 586.5 402.5 c 128,-1,4
 556 356 556 356 505 330 c 0,5,6
 404 277 404 277 267 277 c 2,7,-1
 252 277 l 1,8,-1
 220 71 l 1,9,10
 233 57 233 57 307 41 c 1,11,-1
 302 0 l 1,12,-1
 -4 0 l 1,13,-1
 1 41 l 1,14,15
 42 47 42 47 73 71 c 1,16,-1
 156 596 l 1,17,18
 138 619 138 619 90 626 c 1,19,-1
 96 667 l 1,20,-1
 383 667 l 2,0,1
360 606 m 0,21,22
 324 606 324 606 313 598 c 128,-1,23
 302 590 302 590 298 565 c 2,24,-1
 263 343 l 1,25,-1
 282 343 l 2,26,27
 377 343 377 343 423 393.5 c 128,-1,28
 469 444 469 444 469 507 c 0,29,30
 469 606 469 606 360 606 c 0,21,22
EndSplineSet
EndChar

StartChar: Q
Encoding: 81 81 52
Width: 675
GlyphClass: 2
Flags: W
LayerCount: 2
Fore
SplineSet
48 257 m 0,0,1
 48 455 48 455 140.5 566.5 c 128,-1,2
 233 678 233 678 409 678 c 0,3,4
 535 678 535 678 598 610.5 c 128,-1,5
 661 543 661 543 661 413 c 0,6,7
 661 235 661 235 587.5 125.5 c 128,-1,8
 514 16 514 16 370 -5 c 1,9,10
 377 -49 377 -49 408 -84 c 128,-1,11
 439 -119 439 -119 485 -138 c 1,12,-1
 485 -142 l 2,13,14
 485 -164 485 -164 467 -174 c 1,15,16
 293 -147 293 -147 244 -6 c 1,17,18
 48 22 48 22 48 257 c 0,0,1
219.5 339.5 m 128,-1,20
 208 274 208 274 208 227.5 c 128,-1,21
 208 181 208 181 211.5 154.5 c 128,-1,22
 215 128 215 128 224 102 c 0,23,24
 244 50 244 50 309 50 c 0,25,26
 356 50 356 50 394.5 93 c 128,-1,27
 433 136 433 136 455 200 c 0,28,29
 500 332 500 332 500 450 c 0,30,31
 500 578 500 578 452 607 c 0,32,33
 431 620 431 620 399 620 c 0,34,35
 352 620 352 620 313.5 577 c 128,-1,36
 275 534 275 534 253 469.5 c 128,-1,19
 231 405 231 405 219.5 339.5 c 128,-1,20
EndSplineSet
EndChar

StartChar: R
Encoding: 82 82 53
Width: 632
GlyphClass: 2
Flags: W
LayerCount: 2
Fore
SplineSet
376 667 m 2,0,1
 606 667 606 667 606 519 c 0,2,3
 606 445 606 445 556.5 396 c 128,-1,4
 507 347 507 347 424 324 c 1,5,6
 469 303 469 303 483 252 c 1,7,-1
 535 76 l 2,8,9
 542 51 542 51 600 41 c 1,10,-1
 595 0 l 1,11,-1
 469 0 l 2,12,13
 435 0 435 0 411.5 17 c 128,-1,14
 388 34 388 34 381 66 c 1,15,-1
 329 262 l 2,16,17
 318 302 318 302 255 302 c 1,18,-1
 218 71 l 1,19,20
 236 52 236 52 285 41 c 1,21,-1
 280 0 l 1,22,-1
 -6 0 l 1,23,-1
 -1 41 l 1,24,25
 40 47 40 47 71 71 c 1,26,-1
 154 596 l 1,27,28
 136 619 136 619 88 626 c 1,29,-1
 94 667 l 1,30,-1
 376 667 l 2,0,1
458 515 m 0,31,32
 458 606 458 606 359 606 c 0,33,34
 323 606 323 606 312.5 599 c 128,-1,35
 302 592 302 592 297 566 c 2,36,-1
 264 363 l 1,37,-1
 271 363 l 2,38,39
 366 363 366 363 412 409.5 c 128,-1,40
 458 456 458 456 458 515 c 0,31,32
EndSplineSet
EndChar

StartChar: S
Encoding: 83 83 54
Width: 501
GlyphClass: 2
Flags: W
LayerCount: 2
Fore
SplineSet
129 208 m 1,0,1
 122 150 122 150 122 126.5 c 128,-1,2
 122 103 122 103 125 82 c 1,3,4
 164 50 164 50 210 50 c 128,-1,5
 256 50 256 50 285.5 80 c 128,-1,6
 315 110 315 110 315 161 c 0,7,8
 315 242 315 242 216 286 c 0,9,10
 137 321 137 321 103 360 c 128,-1,11
 69 399 69 399 69 458 c 0,12,13
 69 552 69 552 143.5 613.5 c 128,-1,14
 218 675 218 675 326 675 c 0,15,16
 406 675 406 675 459 640.5 c 128,-1,17
 512 606 512 606 512 556 c 0,18,19
 512 519 512 519 490 495 c 128,-1,20
 468 471 468 471 432.5 471 c 128,-1,21
 397 471 397 471 363 501 c 1,22,23
 399 535 399 535 399 564 c 0,24,25
 399 621 399 621 319 621 c 0,26,27
 272 621 272 621 242 594.5 c 128,-1,28
 212 568 212 568 212 528 c 128,-1,29
 212 488 212 488 236 463 c 128,-1,30
 260 438 260 438 328 407 c 0,31,32
 466 344 466 344 466 222 c 0,33,34
 466 118 466 118 395 55.5 c 128,-1,35
 324 -7 324 -7 210 -7 c 128,-1,36
 96 -7 96 -7 6 44 c 1,37,-1
 56 221 l 1,38,-1
 129 208 l 1,0,1
EndSplineSet
EndChar

StartChar: T
Encoding: 84 84 55
Width: 603
GlyphClass: 2
Flags: W
LayerCount: 2
Fore
SplineSet
138 483 m 1,0,1
 120 480 120 480 103 480 c 128,-1,2
 86 480 86 480 69 483 c 1,3,-1
 99 671 l 1,4,5
 236 667 236 667 411 667 c 128,-1,6
 586 667 586 667 642 671 c 1,7,-1
 612 483 l 1,8,9
 596 480 596 480 578.5 480 c 128,-1,10
 561 480 561 480 543 483 c 1,11,12
 543 560 543 560 526 598 c 1,13,14
 474 605 474 605 434 606 c 1,15,-1
 349 71 l 1,16,17
 362 57 362 57 436 41 c 1,18,-1
 431 0 l 1,19,-1
 105 0 l 1,20,-1
 110 41 l 1,21,22
 176 51 176 51 202 71 c 1,23,-1
 287 605 l 1,24,25
 279 605 279 605 195 599 c 1,26,27
 152 551 152 551 138 483 c 1,0,1
EndSplineSet
EndChar

StartChar: U
Encoding: 85 85 56
Width: 654
GlyphClass: 2
Flags: W
LayerCount: 2
Fore
SplineSet
308 -7 m 0,0,1
 72 -7 72 -7 72 161 c 0,2,3
 72 200 72 200 99 353 c 1,4,-1
 136 596 l 1,5,6
 118 619 118 619 70 626 c 1,7,-1
 76 667 l 1,8,-1
 362 667 l 1,9,-1
 356 626 l 1,10,11
 313 618 313 618 283 596 c 1,12,-1
 236 299 l 1,13,14
 220 187 220 187 220 168 c 0,15,16
 220 60 220 60 340 60 c 0,17,18
 463 60 463 60 490 223 c 1,19,-1
 547 596 l 1,20,21
 529 619 529 619 481 626 c 1,22,-1
 487 667 l 1,23,-1
 716 667 l 1,24,-1
 710 626 l 1,25,26
 667 618 667 618 637 596 c 1,27,-1
 583 245 l 2,28,29
 563 117 563 117 500.5 55 c 128,-1,30
 438 -7 438 -7 308 -7 c 0,0,1
EndSplineSet
EndChar

StartChar: V
Encoding: 86 86 57
Width: 596
GlyphClass: 2
Flags: W
LayerCount: 2
Fore
SplineSet
309 185 m 1,0,-1
 510 597 l 1,1,2
 485 620 485 620 430 627 c 1,3,-1
 435 667 l 1,4,-1
 661 667 l 1,5,-1
 655 626 l 1,6,7
 608 622 608 622 590 602 c 1,8,-1
 285 0 l 1,9,-1
 184 0 l 1,10,-1
 110 585 l 2,11,12
 106 614 106 614 52 626 c 1,13,-1
 57 667 l 1,14,-1
 333 667 l 1,15,-1
 327 627 l 1,16,17
 278 620 278 620 260 605 c 1,18,-1
 309 185 l 1,0,-1
EndSplineSet
EndChar

StartChar: W
Encoding: 87 87 58
Width: 930
GlyphClass: 2
Flags: W
LayerCount: 2
Fore
SplineSet
852 596 m 1,0,1
 828 620 828 620 772 627 c 1,2,-1
 777 667 l 1,3,-1
 993 667 l 1,4,-1
 988 626 l 1,5,6
 951 623 951 623 932 602 c 1,7,-1
 641 0 l 1,8,-1
 541 0 l 1,9,-1
 481 430 l 1,10,-1
 277 0 l 1,11,-1
 177 0 l 1,12,-1
 101 596 l 1,13,14
 83 618 83 618 46 626 c 1,15,-1
 52 667 l 1,16,-1
 325 667 l 1,17,-1
 319 627 l 1,18,19
 269 620 269 620 253 605 c 1,20,-1
 302 185 l 1,21,-1
 518 667 l 1,22,-1
 604 667 l 1,23,-1
 664 185 l 1,24,-1
 852 596 l 1,0,1
EndSplineSet
EndChar

StartChar: X
Encoding: 88 88 59
Width: 586
GlyphClass: 2
Flags: W
LayerCount: 2
Fore
SplineSet
191 667 m 2,0,1
 242 667 242 667 271 609 c 1,2,-1
 353 432 l 1,3,-1
 490 597 l 1,4,5
 464 622 464 622 419 627 c 1,6,-1
 424 667 l 1,7,-1
 650 667 l 1,8,-1
 645 627 l 1,9,10
 600 624 600 624 578 599 c 2,11,-1
 384 365 l 1,12,-1
 519 76 l 2,13,14
 526 60 526 60 538 53 c 128,-1,15
 550 46 550 46 577 41 c 1,16,-1
 572 0 l 1,17,-1
 440 0 l 2,18,19
 389 0 389 0 360 58 c 1,20,-1
 271 247 l 1,21,-1
 122 68 l 1,22,23
 146 46 146 46 192 40 c 1,24,-1
 187 0 l 1,25,-1
 -39 0 l 1,26,-1
 -34 40 l 1,27,28
 14 44 14 44 32 65 c 2,29,-1
 240 314 l 1,30,-1
 112 591 l 2,31,32
 105 607 105 607 93 614 c 128,-1,33
 81 621 81 621 54 626 c 1,34,-1
 59 667 l 1,35,-1
 191 667 l 2,0,1
EndSplineSet
EndChar

StartChar: Y
Encoding: 89 89 60
Width: 577
GlyphClass: 2
Flags: W
LayerCount: 2
Fore
SplineSet
185 71 m 1,0,-1
 217 269 l 1,1,-1
 126 585 l 2,2,3
 116 617 116 617 69 627 c 1,4,-1
 73 667 l 1,5,-1
 349 667 l 1,6,-1
 343 627 l 1,7,8
 290 620 290 620 273 605 c 1,9,-1
 343 357 l 1,10,-1
 503 597 l 1,11,12
 478 620 478 620 423 627 c 1,13,-1
 428 667 l 1,14,-1
 654 667 l 1,15,-1
 649 627 l 1,16,17
 611 624 611 624 585 601 c 1,18,-1
 363 268 l 1,19,-1
 332 71 l 1,20,21
 347 54 347 54 409 41 c 1,22,-1
 404 0 l 1,23,-1
 98 0 l 1,24,-1
 103 41 l 1,25,26
 156 49 156 49 185 71 c 1,0,-1
EndSplineSet
EndChar

StartChar: Z
Encoding: 90 90 61
Width: 544
GlyphClass: 2
Flags: W
LayerCount: 2
Fore
SplineSet
430 198 m 1,0,1
 440 201 440 201 464 201 c 128,-1,2
 488 201 488 201 513 194 c 1,3,-1
 474 0 l 1,4,-1
 -3 0 l 1,5,-1
 0 45 l 1,6,-1
 379 600 l 1,7,8
 272 600 272 600 189 592 c 1,9,10
 165 542 165 542 161 476 c 1,11,12
 150 473 150 473 126 473 c 128,-1,13
 102 473 102 473 78 480 c 1,14,-1
 89 639 l 1,15,-1
 118 667 l 1,16,-1
 566 667 l 1,17,-1
 570 631 l 1,18,-1
 181 69 l 1,19,20
 316 69 316 69 376 75 c 1,21,22
 397 106 397 106 430 198 c 1,0,1
EndSplineSet
EndChar

StartChar: bracketleft
Encoding: 91 91 62
Width: 355
GlyphClass: 2
Flags: W
LayerCount: 2
Fore
SplineSet
180 738 m 1,0,-1
 393 738 l 1,1,-1
 384 684 l 1,2,-1
 269 672 l 1,3,-1
 146 -106 l 1,4,-1
 257 -118 l 1,5,-1
 249 -172 l 1,6,-1
 36 -172 l 1,7,-1
 180 738 l 1,0,-1
EndSplineSet
EndChar

StartChar: backslash
Encoding: 92 92 63
Width: 480
GlyphClass: 2
Flags: W
LayerCount: 2
Fore
SplineSet
392 -112 m 1,0,-1
 314 -140 l 1,1,-1
 132 672 l 1,2,-1
 211 700 l 1,3,-1
 392 -112 l 1,0,-1
EndSplineSet
EndChar

StartChar: bracketright
Encoding: 93 93 64
Width: 355
GlyphClass: 2
Flags: W
LayerCount: 2
Fore
SplineSet
114 738 m 1,0,-1
 327 738 l 1,1,-1
 183 -172 l 1,2,-1
 -30 -172 l 1,3,-1
 -22 -118 l 1,4,-1
 93 -106 l 1,5,-1
 216 672 l 1,6,-1
 105 684 l 1,7,-1
 114 738 l 1,0,-1
EndSplineSet
EndChar

StartChar: asciicircum
Encoding: 94 94 65
Width: 573
GlyphClass: 2
Flags: W
LayerCount: 2
Fore
SplineSet
337 667 m 1,0,-1
 442 667 l 1,1,-1
 579 351 l 1,2,-1
 485 301 l 1,3,-1
 373 570 l 1,4,-1
 178 301 l 1,5,-1
 100 351 l 1,6,-1
 337 667 l 1,0,-1
EndSplineSet
EndChar

StartChar: underscore
Encoding: 95 95 66
Width: 352
GlyphClass: 2
Flags: W
LayerCount: 2
Fore
SplineSet
346 -122 m 1,0,-1
 -5 -122 l 1,1,-1
 5 -48 l 1,2,-1
 357 -48 l 1,3,-1
 346 -122 l 1,0,-1
EndSplineSet
EndChar

StartChar: grave
Encoding: 96 96 67
Width: 208
GlyphClass: 2
Flags: W
LayerCount: 2
Fore
SplineSet
106 607 m 2,0,1
 82 626 82 626 82 653 c 128,-1,2
 82 680 82 680 97.5 695 c 128,-1,3
 113 710 113 710 136 710 c 0,4,5
 170 710 170 710 188 676 c 2,6,-1
 249 557 l 1,7,-1
 210 524 l 1,8,-1
 106 607 l 2,0,1
EndSplineSet
EndChar

StartChar: a
Encoding: 97 97 68
Width: 570
GlyphClass: 2
Flags: W
LayerCount: 2
Fore
SplineSet
467 93 m 128,-1,1
 467 69 467 69 488 69 c 0,2,3
 511 69 511 69 535 84 c 1,4,-1
 548 46 l 1,5,6
 467 -6 467 -6 406 -6 c 0,7,8
 334 -6 334 -6 326 56 c 1,9,10
 279 -11 279 -11 196 -11 c 0,11,12
 129 -11 129 -11 83 38 c 128,-1,13
 37 87 37 87 37 181 c 0,14,15
 37 334 37 334 113 413 c 128,-1,16
 189 492 189 492 309 492 c 0,17,18
 356 492 356 492 413 472 c 1,19,20
 446 491 446 491 497 491 c 0,21,22
 509 491 509 491 529 489 c 1,23,-1
 522 450 l 1,24,0
 467 117 467 117 467 93 c 128,-1,1
241 50 m 0,25,26
 277 50 277 50 304.5 102.5 c 128,-1,27
 332 155 332 155 348 249 c 2,28,-1
 380 434 l 1,29,30
 356 443 356 443 332 443 c 0,31,32
 268 443 268 443 224.5 375.5 c 128,-1,33
 181 308 181 308 181 179 c 128,-1,34
 181 50 181 50 241 50 c 0,25,26
EndSplineSet
EndChar

StartChar: b
Encoding: 98 98 69
Width: 567
GlyphClass: 2
Flags: W
LayerCount: 2
Fore
SplineSet
379 492 m 0,0,1
 453 492 453 492 492.5 446 c 128,-1,2
 532 400 532 400 532 313 c 0,3,4
 532 162 532 162 458 77.5 c 128,-1,5
 384 -7 384 -7 258 -7 c 0,6,7
 220 -7 220 -7 160.5 9 c 128,-1,8
 101 25 101 25 71 49.5 c 128,-1,9
 41 74 41 74 40 98 c 1,10,-1
 112 558 l 2,11,12
 114 574 114 574 114 580 c 0,13,14
 114 623 114 623 74 623 c 0,15,16
 69 623 69 623 53 621 c 1,17,-1
 50 660 l 1,18,19
 86 675 86 675 143.5 685 c 128,-1,20
 201 695 201 695 245 696 c 1,21,-1
 272 682 l 1,22,-1
 231 425 l 1,23,24
 286 492 286 492 379 492 c 0,0,1
324 432 m 0,25,26
 282 432 282 432 250.5 390 c 128,-1,27
 219 348 219 348 207 268 c 2,28,-1
 175 65 l 1,29,30
 200 46 200 46 238 46 c 0,31,32
 291 46 291 46 326 89 c 0,33,34
 387 164 387 164 387 322 c 0,35,36
 387 432 387 432 324 432 c 0,25,26
EndSplineSet
EndChar

StartChar: c
Encoding: 99 99 70
Width: 452
GlyphClass: 2
Flags: W
LayerCount: 2
Fore
SplineSet
421 68 m 1,0,1
 336 -7 336 -7 230.5 -7 c 128,-1,2
 125 -7 125 -7 73.5 42.5 c 128,-1,3
 22 92 22 92 22 186 c 0,4,5
 22 329 22 329 95 409 c 128,-1,6
 168 489 168 489 303 489 c 0,7,8
 375 489 375 489 418.5 463.5 c 128,-1,9
 462 438 462 438 462 400.5 c 128,-1,10
 462 363 462 363 435 340.5 c 128,-1,11
 408 318 408 318 378.5 318 c 128,-1,12
 349 318 349 318 331.5 330 c 128,-1,13
 314 342 314 342 311 360 c 1,14,15
 330 382 330 382 330 402 c 128,-1,16
 330 422 330 422 318 432.5 c 128,-1,17
 306 443 306 443 287 443 c 0,18,19
 229 443 229 443 198.5 362.5 c 128,-1,20
 168 282 168 282 168 177 c 0,21,22
 168 111 168 111 190.5 81 c 128,-1,23
 213 51 213 51 260 51 c 0,24,25
 325 51 325 51 390 104 c 1,26,-1
 421 68 l 1,0,1
EndSplineSet
EndChar

StartChar: d
Encoding: 100 100 71
Width: 570
GlyphClass: 2
Flags: W
LayerCount: 2
Fore
SplineSet
483 93 m 0,0,1
 483 69 483 69 505 69 c 0,2,3
 522 69 522 69 551 85 c 1,4,-1
 564 49 l 1,5,6
 544 29 544 29 501 12 c 128,-1,7
 458 -5 458 -5 424 -5 c 0,8,9
 343 -5 343 -5 340 73 c 1,10,11
 317 33 317 33 275.5 13 c 128,-1,12
 234 -7 234 -7 189 -7 c 0,13,14
 115 -7 115 -7 75.5 38.5 c 128,-1,15
 36 84 36 84 36 172 c 0,16,17
 36 322 36 322 108 407 c 128,-1,18
 180 492 180 492 305 492 c 0,19,20
 357 492 357 492 400 468 c 1,21,22
 415 566 415 566 415 579 c 0,23,24
 415 623 415 623 375 623 c 0,25,26
 369 623 369 623 355 621 c 1,27,-1
 352 660 l 1,28,29
 388 675 388 675 445.5 685 c 128,-1,30
 503 695 503 695 547 696 c 1,31,-1
 575 682 l 1,32,-1
 487 129 l 2,33,34
 483 104 483 104 483 93 c 0,0,1
392 419 m 1,35,36
 369 438 369 438 323.5 438 c 128,-1,37
 278 438 278 438 244 396 c 0,38,39
 181 321 181 321 181 163 c 0,40,41
 181 53 181 53 243 53 c 0,42,43
 334 53 334 53 363 234 c 2,44,-1
 392 419 l 1,35,36
EndSplineSet
EndChar

StartChar: e
Encoding: 101 101 72
Width: 499
GlyphClass: 2
Flags: W
LayerCount: 2
Fore
SplineSet
181 210 m 2,0,-1
 170 210 l 1,1,2
 166 181 166 181 166 160 c 0,3,4
 166 113 166 113 191 87.5 c 128,-1,5
 216 62 216 62 257.5 62 c 128,-1,6
 299 62 299 62 340.5 77 c 128,-1,7
 382 92 382 92 413 117 c 1,8,-1
 446 78 l 1,9,10
 345 -7 345 -7 223 -7 c 0,11,12
 133 -7 133 -7 80 46 c 128,-1,13
 27 99 27 99 27 189 c 0,14,15
 27 329 27 329 104 410.5 c 128,-1,16
 181 492 181 492 313 492 c 0,17,18
 387 492 387 492 432.5 464.5 c 128,-1,19
 478 437 478 437 478 392 c 0,20,21
 478 308 478 308 398 259 c 128,-1,22
 318 210 318 210 181 210 c 2,0,-1
300.5 305.5 m 128,-1,24
 353 341 353 341 353 392 c 128,-1,25
 353 443 353 443 302 443 c 128,-1,26
 251 443 251 443 223.5 399.5 c 128,-1,27
 196 356 196 356 179 268 c 1,28,23
 248 270 248 270 300.5 305.5 c 128,-1,24
EndSplineSet
EndChar

StartChar: f
Encoding: 102 102 73
Width: 320
GlyphClass: 2
Flags: W
LayerCount: 2
Fore
SplineSet
262 573 m 1,0,-1
 267 495 l 2,1,2
 267 483 267 483 266 478 c 1,3,-1
 370 478 l 1,4,-1
 360 415 l 1,5,-1
 256 415 l 1,6,-1
 200 59 l 2,7,8
 193 15 193 15 186.5 -14.5 c 128,-1,9
 180 -44 180 -44 163 -87 c 128,-1,10
 146 -130 146 -130 123 -155.5 c 128,-1,11
 100 -181 100 -181 60 -200 c 128,-1,12
 20 -219 20 -219 -32 -219 c 128,-1,13
 -84 -219 -84 -219 -118 -197 c 128,-1,14
 -152 -175 -152 -175 -152 -137.5 c 128,-1,15
 -152 -100 -152 -100 -131 -80.5 c 128,-1,16
 -110 -61 -110 -61 -86 -61 c 0,17,18
 -37 -61 -37 -61 -29 -103 c 1,19,20
 -50 -114 -50 -114 -50 -141 c 0,21,22
 -50 -171 -50 -171 -21 -171 c 0,23,24
 27 -171 27 -171 40 -117 c 0,25,26
 49 -77 49 -77 53.5 -16 c 128,-1,27
 58 45 58 45 62 70 c 2,28,-1
 115 415 l 1,29,-1
 36 415 l 1,30,-1
 44 456 l 1,31,32
 89 463 89 463 125 478 c 1,33,-1
 132 522 l 2,34,35
 145 603 145 603 203.5 656 c 128,-1,36
 262 709 262 709 346 709 c 0,37,38
 392 709 392 709 431 688 c 128,-1,39
 470 667 470 667 470 627.5 c 128,-1,40
 470 588 470 588 447.5 568 c 128,-1,41
 425 548 425 548 400 548 c 128,-1,42
 375 548 375 548 360 559.5 c 128,-1,43
 345 571 345 571 344 591 c 1,44,45
 371 612 371 612 371 638 c 0,46,47
 371 670 371 670 334 670 c 128,-1,48
 297 670 297 670 279.5 639 c 128,-1,49
 262 608 262 608 262 573 c 1,0,-1
EndSplineSet
EndChar

StartChar: g
Encoding: 103 103 74
Width: 565
GlyphClass: 2
Flags: W
LayerCount: 2
Fore
SplineSet
177 -219 m 0,0,1
 98 -219 98 -219 52.5 -196 c 128,-1,2
 7 -173 7 -173 7 -113 c 0,3,4
 7 -76 7 -76 32.5 -53.5 c 128,-1,5
 58 -31 58 -31 90 -31 c 0,6,7
 136 -31 136 -31 152 -73 c 1,8,9
 129 -89 129 -89 129 -119 c 0,10,11
 129 -164 129 -164 192 -164 c 0,12,13
 315 -164 315 -164 336 36 c 1,14,-1
 337 48 l 1,15,16
 289 -11 289 -11 217.5 -11 c 128,-1,17
 146 -11 146 -11 100 38 c 128,-1,18
 54 87 54 87 54 181 c 0,19,20
 54 334 54 334 130 413 c 128,-1,21
 206 492 206 492 326 492 c 0,22,23
 373 492 373 492 430 472 c 1,24,25
 463 491 463 491 514 491 c 0,26,27
 526 491 526 491 546 489 c 1,28,-1
 475 49 l 2,29,30
 453 -88 453 -88 379 -153.5 c 128,-1,31
 305 -219 305 -219 177 -219 c 0,0,1
349 443 m 0,32,33
 285 443 285 443 241.5 375.5 c 128,-1,34
 198 308 198 308 198 179 c 128,-1,35
 198 50 198 50 258 50 c 0,36,37
 294 50 294 50 322.5 106.5 c 128,-1,38
 351 163 351 163 368 262 c 2,39,-1
 397 434 l 1,40,41
 373 443 373 443 349 443 c 0,32,33
EndSplineSet
EndChar

StartChar: h
Encoding: 104 104 75
Width: 580
GlyphClass: 2
Flags: W
LayerCount: 2
Fore
SplineSet
384 365 m 0,0,1
 384 425 384 425 342 425 c 0,2,3
 306 425 306 425 263.5 353 c 128,-1,4
 221 281 221 281 208 196 c 2,5,-1
 177 0 l 1,6,-1
 36 0 l 1,7,-1
 125 559 l 2,8,9
 127 575 127 575 127 581 c 0,10,11
 127 624 127 624 87 624 c 0,12,13
 82 624 82 624 66 622 c 1,14,-1
 63 661 l 1,15,16
 99 676 99 676 156.5 686 c 128,-1,17
 214 696 214 696 258 697 c 1,18,-1
 285 680 l 1,19,-1
 239 395 l 1,20,21
 302 492 302 492 399 492 c 0,22,23
 459 492 459 492 492.5 459.5 c 128,-1,24
 526 427 526 427 526 369 c 0,25,26
 526 356 526 356 521 321 c 2,27,-1
 490 117 l 2,28,29
 487 102 487 102 487 92 c 0,30,31
 487 68 487 68 509 68 c 0,32,33
 526 68 526 68 555 84 c 1,34,-1
 568 48 l 1,35,36
 548 28 548 28 505 11 c 128,-1,37
 462 -6 462 -6 422 -6 c 0,38,39
 345 -6 345 -6 345 81 c 0,40,41
 345 103 345 103 350 136 c 2,42,-1
 380 320 l 2,43,44
 384 342 384 342 384 365 c 0,0,1
EndSplineSet
EndChar

StartChar: i
Encoding: 105 105 76
Width: 302
GlyphClass: 2
Flags: W
LayerCount: 2
Fore
SplineSet
107 376 m 0,0,1
 107 419 107 419 67 419 c 0,2,3
 62 419 62 419 46 417 c 1,4,-1
 43 456 l 1,5,6
 79 471 79 471 136.5 481 c 128,-1,7
 194 491 194 491 238 492 c 1,8,-1
 265 478 l 1,9,-1
 210 123 l 2,10,11
 206 99 206 99 206 93 c 0,12,13
 206 68 206 68 229 68 c 0,14,15
 246 68 246 68 275 84 c 1,16,-1
 288 48 l 1,17,18
 268 28 268 28 225 11 c 128,-1,19
 182 -6 182 -6 142 -6 c 0,20,21
 65 -6 65 -6 65 81 c 0,22,23
 65 103 65 103 70 136 c 2,24,-1
 105 354 l 2,25,26
 107 370 107 370 107 376 c 0,0,1
266.5 572.5 m 128,-1,28
 244 550 244 550 210 550 c 128,-1,29
 176 550 176 550 158.5 565 c 128,-1,30
 141 580 141 580 141 612.5 c 128,-1,31
 141 645 141 645 163.5 667.5 c 128,-1,32
 186 690 186 690 220 690 c 128,-1,33
 254 690 254 690 271.5 674.5 c 128,-1,34
 289 659 289 659 289 627 c 128,-1,27
 289 595 289 595 266.5 572.5 c 128,-1,28
EndSplineSet
EndChar

StartChar: j
Encoding: 106 106 77
Width: 297
GlyphClass: 2
Flags: W
LayerCount: 2
Fore
SplineSet
270.5 572.5 m 128,-1,1
 248 550 248 550 214 550 c 128,-1,2
 180 550 180 550 162.5 565 c 128,-1,3
 145 580 145 580 145 612.5 c 128,-1,4
 145 645 145 645 167.5 667.5 c 128,-1,5
 190 690 190 690 224 690 c 128,-1,6
 258 690 258 690 275.5 674.5 c 128,-1,7
 293 659 293 659 293 627 c 128,-1,0
 293 595 293 595 270.5 572.5 c 128,-1,1
83 -203.5 m 128,-1,9
 44 -218 44 -218 1 -218 c 128,-1,10
 -42 -218 -42 -218 -74.5 -198.5 c 128,-1,11
 -107 -179 -107 -179 -107 -145.5 c 128,-1,12
 -107 -112 -107 -112 -86 -92 c 128,-1,13
 -65 -72 -65 -72 -34.5 -72 c 128,-1,14
 -4 -72 -4 -72 9 -97 c 1,15,16
 -13 -116 -13 -116 -13 -142 c 128,-1,17
 -13 -168 -13 -168 6 -168 c 0,18,19
 32 -168 32 -168 42 -135 c 128,-1,20
 52 -102 52 -102 55.5 -32.5 c 128,-1,21
 59 37 59 37 63 62 c 2,22,-1
 109 354 l 2,23,24
 111 370 111 370 111 376 c 0,25,26
 111 419 111 419 71 419 c 0,27,28
 66 419 66 419 50 417 c 1,29,-1
 47 456 l 1,30,31
 83 471 83 471 140.5 481 c 128,-1,32
 198 491 198 491 242 492 c 1,33,-1
 269 478 l 1,34,-1
 189 -33 l 2,35,36
 176 -117 176 -117 143 -161 c 0,37,8
 122 -189 122 -189 83 -203.5 c 128,-1,9
EndSplineSet
EndChar

StartChar: k
Encoding: 107 107 78
Width: 538
GlyphClass: 2
Flags: W
LayerCount: 2
Fore
SplineSet
120 580 m 0,0,1
 120 623 120 623 80 623 c 0,2,3
 75 623 75 623 59 621 c 1,4,-1
 56 660 l 1,5,6
 91 675 91 675 145.5 685.5 c 128,-1,7
 200 696 200 696 242 696 c 2,8,-1
 251 696 l 1,9,-1
 278 682 l 1,10,-1
 215 281 l 1,11,12
 292 306 292 306 358 352 c 0,13,14
 371 361 371 361 387 380.5 c 128,-1,15
 403 400 403 400 403 417.5 c 128,-1,16
 403 435 403 435 364 437 c 1,17,-1
 360 469 l 1,18,19
 413 490 413 490 483 490 c 1,20,-1
 510 487 l 1,21,-1
 521 468 l 1,22,23
 505 374 505 374 357 281 c 1,24,-1
 438 106 l 2,25,26
 448 84 448 84 469.5 84 c 128,-1,27
 491 84 491 84 518 100 c 1,28,-1
 534 67 l 1,29,30
 451 2 451 2 399 2 c 128,-1,31
 347 2 347 2 321 59 c 2,32,-1
 246 224 l 1,33,34
 231 217 231 217 203 207 c 1,35,-1
 171 0 l 1,36,-1
 30 0 l 1,37,-1
 118 558 l 2,38,39
 120 574 120 574 120 580 c 0,0,1
EndSplineSet
EndChar

StartChar: l
Encoding: 108 108 79
Width: 297
GlyphClass: 2
Flags: W
LayerCount: 2
Fore
SplineSet
137 580 m 0,0,1
 137 623 137 623 97 623 c 0,2,3
 90 623 90 623 76 621 c 1,4,-1
 73 660 l 1,5,6
 152 692 152 692 268 696 c 1,7,-1
 295 682 l 1,8,-1
 208 122 l 1,9,10
 204 104 204 104 204 93 c 0,11,12
 204 68 204 68 227 68 c 0,13,14
 245 68 245 68 273 84 c 1,15,-1
 286 48 l 1,16,17
 265 27 265 27 222 10.5 c 128,-1,18
 179 -6 179 -6 141 -6 c 0,19,20
 63 -6 63 -6 63 81 c 0,21,22
 63 98 63 98 68 136 c 1,23,-1
 135 558 l 2,24,25
 137 571 137 571 137 580 c 0,0,1
EndSplineSet
EndChar

StartChar: m
Encoding: 109 109 80
Width: 866
GlyphClass: 2
Flags: W
LayerCount: 2
Fore
SplineSet
631 425 m 0,0,1
 601 425 601 425 566 373.5 c 128,-1,2
 531 322 531 322 510 251 c 1,3,-1
 470 0 l 1,4,-1
 328 0 l 1,5,-1
 382 329 l 2,6,7
 385 348 385 348 385 365 c 0,8,9
 385 425 385 425 343 425 c 0,10,11
 306 425 306 425 265 353.5 c 128,-1,12
 224 282 224 282 210 196 c 2,13,-1
 178 0 l 1,14,-1
 37 0 l 1,15,-1
 94 354 l 2,16,17
 96 370 96 370 96 376 c 0,18,19
 96 419 96 419 56 419 c 0,20,21
 51 419 51 419 35 417 c 1,22,-1
 32 456 l 1,23,24
 68 471 68 471 125.5 481 c 128,-1,25
 183 491 183 491 227 492 c 1,26,-1
 242 483 l 1,27,-1
 239 393 l 1,28,29
 302 492 302 492 400 492 c 0,30,31
 454 492 454 492 487 465 c 128,-1,32
 520 438 520 438 526 391 c 1,33,34
 590 492 590 492 688 492 c 0,35,36
 748 492 748 492 781.5 459.5 c 128,-1,37
 815 427 815 427 815 369 c 0,38,39
 815 348 815 348 812 331 c 2,40,-1
 779 116 l 2,41,42
 776 98 776 98 776 92 c 0,43,44
 776 68 776 68 798 68 c 0,45,46
 815 68 815 68 844 84 c 1,47,-1
 857 48 l 1,48,49
 837 28 837 28 794 11 c 128,-1,50
 751 -6 751 -6 717 -6 c 0,51,52
 633 -6 633 -6 633 80 c 0,53,54
 633 94 633 94 639 136 c 2,55,-1
 670 329 l 2,56,57
 673 348 673 348 673 365 c 0,58,59
 673 425 673 425 631 425 c 0,0,1
EndSplineSet
EndChar

StartChar: n
Encoding: 110 110 81
Width: 585
GlyphClass: 2
Flags: W
LayerCount: 2
Fore
SplineSet
493 122 m 1,0,-1
 489 93 l 1,1,2
 489 68 489 68 511 68 c 0,3,4
 528 68 528 68 557 84 c 1,5,-1
 570 48 l 1,6,7
 550 28 550 28 507 11 c 128,-1,8
 464 -6 464 -6 424 -6 c 0,9,10
 347 -6 347 -6 347 80 c 0,11,12
 347 103 347 103 352 136 c 2,13,-1
 383 329 l 2,14,15
 386 348 386 348 386 365 c 0,16,17
 386 425 386 425 344 425 c 0,18,19
 307 425 307 425 266 353.5 c 128,-1,20
 225 282 225 282 211 196 c 2,21,-1
 179 0 l 1,22,-1
 38 0 l 1,23,-1
 95 354 l 2,24,25
 97 370 97 370 97 376 c 0,26,27
 97 419 97 419 57 419 c 0,28,29
 52 419 52 419 36 417 c 1,30,-1
 33 456 l 1,31,32
 69 471 69 471 126.5 481 c 128,-1,33
 184 491 184 491 228 492 c 1,34,-1
 244 483 l 1,35,-1
 240 392 l 1,36,37
 302 492 302 492 401 492 c 0,38,39
 461 492 461 492 494.5 459.5 c 128,-1,40
 528 427 528 427 528 369 c 0,41,42
 528 348 528 348 525 329 c 2,43,-1
 493 122 l 1,0,-1
EndSplineSet
EndChar

StartChar: o
Encoding: 111 111 82
Width: 540
GlyphClass: 2
Flags: W
LayerCount: 2
Fore
SplineSet
171 167 m 0,0,1
 171 106 171 106 188.5 77.5 c 128,-1,2
 206 49 206 49 243 49 c 0,3,4
 300 49 300 49 337.5 126 c 128,-1,5
 375 203 375 203 375 319 c 0,6,7
 375 380 375 380 358 408 c 128,-1,8
 341 436 341 436 304 436 c 0,9,10
 247 436 247 436 209 359 c 128,-1,11
 171 282 171 282 171 167 c 0,0,1
27 191 m 0,12,13
 27 336 27 336 101 414 c 128,-1,14
 175 492 175 492 313 492 c 0,15,16
 414 492 414 492 466.5 442 c 128,-1,17
 519 392 519 392 519 295 c 0,18,19
 519 150 519 150 445 71.5 c 128,-1,20
 371 -7 371 -7 234 -7 c 0,21,22
 133 -7 133 -7 80 43.5 c 128,-1,23
 27 94 27 94 27 191 c 0,12,13
EndSplineSet
EndChar

StartChar: p
Encoding: 112 112 83
Width: 571
GlyphClass: 2
Flags: W
LayerCount: 2
Fore
SplineSet
100 376 m 0,0,1
 100 419 100 419 60 419 c 0,2,3
 55 419 55 419 39 417 c 1,4,-1
 36 456 l 1,5,6
 72 471 72 471 129.5 481 c 128,-1,7
 187 491 187 491 231 492 c 1,8,-1
 247 483 l 1,9,-1
 244 417 l 1,10,11
 300 492 300 492 397 492 c 0,12,13
 471 492 471 492 510.5 446 c 128,-1,14
 550 400 550 400 550 312 c 0,15,16
 550 162 550 162 478.5 77.5 c 128,-1,17
 407 -7 407 -7 282 -7 c 0,18,19
 228 -7 228 -7 186 17 c 1,20,-1
 169 -94 l 2,21,22
 166 -112 166 -112 166 -118 c 0,23,24
 166 -142 166 -142 188 -142 c 0,25,26
 205 -142 205 -142 234 -126 c 1,27,-1
 247 -162 l 1,28,29
 227 -182 227 -182 184 -199 c 128,-1,30
 141 -216 141 -216 107 -216 c 0,31,32
 23 -216 23 -216 23 -130 c 0,33,34
 23 -116 23 -116 29 -74 c 2,35,-1
 98 354 l 2,36,37
 100 370 100 370 100 376 c 0,0,1
343 432 m 0,38,39
 302 432 302 432 271 394 c 128,-1,40
 240 356 240 356 228 284 c 2,41,-1
 193 66 l 1,42,43
 217 46 217 46 263 46 c 128,-1,44
 309 46 309 46 344 89 c 0,45,46
 405 164 405 164 405 322 c 0,47,48
 405 432 405 432 343 432 c 0,38,39
EndSplineSet
EndChar

StartChar: q
Encoding: 113 113 84
Width: 564
GlyphClass: 2
Flags: W
LayerCount: 2
Fore
SplineSet
331 43 m 1,0,1
 284 -11 284 -11 214 -11 c 128,-1,2
 144 -11 144 -11 98 38 c 128,-1,3
 52 87 52 87 52 181 c 0,4,5
 52 334 52 334 128 413 c 128,-1,6
 204 492 204 492 324 492 c 0,7,8
 371 492 371 492 428 472 c 1,9,10
 461 491 461 491 512 491 c 0,11,12
 524 491 524 491 544 489 c 0,13,14
 544 488 544 488 524 360 c 128,-1,15
 504 232 504 232 483.5 98.5 c 128,-1,16
 463 -35 463 -35 456.5 -70.5 c 128,-1,17
 450 -106 450 -106 450 -118 c 0,18,19
 450 -142 450 -142 472 -142 c 0,20,21
 489 -142 489 -142 518 -126 c 1,22,-1
 531 -162 l 1,23,24
 511 -182 511 -182 468 -199 c 128,-1,25
 425 -216 425 -216 391 -216 c 0,26,27
 307 -216 307 -216 307 -130 c 0,28,29
 307 -116 307 -116 313 -74 c 2,30,-1
 331 43 l 1,0,1
347 443 m 0,31,32
 283 443 283 443 239.5 375.5 c 128,-1,33
 196 308 196 308 196 179 c 128,-1,34
 196 50 196 50 256 50 c 0,35,36
 326 50 326 50 366 265 c 1,37,-1
 394 435 l 1,38,39
 370 443 370 443 347 443 c 0,31,32
EndSplineSet
EndChar

StartChar: r
Encoding: 114 114 85
Width: 456
GlyphClass: 2
Flags: W
LayerCount: 2
Fore
SplineSet
403 489 m 0,0,1
 444 489 444 489 464 468 c 128,-1,2
 484 447 484 447 484 414 c 128,-1,3
 484 381 484 381 462 351.5 c 128,-1,4
 440 322 440 322 411.5 322 c 128,-1,5
 383 322 383 322 358 347 c 1,6,7
 367 358 367 358 367 374 c 0,8,9
 367 401 367 401 341 401 c 0,10,11
 308 401 308 401 265 329 c 128,-1,12
 222 257 222 257 211 186 c 2,13,-1
 181 0 l 1,14,-1
 40 0 l 1,15,-1
 97 354 l 2,16,17
 99 370 99 370 99 376 c 0,18,19
 99 419 99 419 59 419 c 0,20,21
 54 419 54 419 38 417 c 1,22,-1
 35 456 l 1,23,24
 121 492 121 492 230 492 c 1,25,-1
 258 476 l 1,26,-1
 238 352 l 1,27,28
 305 489 305 489 403 489 c 0,0,1
EndSplineSet
EndChar

StartChar: s
Encoding: 115 115 86
Width: 442
GlyphClass: 2
Flags: W
LayerCount: 2
Fore
SplineSet
300 436.5 m 128,-1,1
 285 448 285 448 256.5 448 c 128,-1,2
 228 448 228 448 206.5 426 c 128,-1,3
 185 404 185 404 185 377 c 128,-1,4
 185 350 185 350 206.5 332.5 c 128,-1,5
 228 315 228 315 282 294 c 0,6,7
 396 250 396 250 396 161 c 0,8,9
 396 82 396 82 336.5 37 c 128,-1,10
 277 -8 277 -8 171 -8 c 0,11,12
 132 -8 132 -8 89 6.5 c 128,-1,13
 46 21 46 21 16 45 c 1,14,-1
 48 170 l 1,15,-1
 103 160 l 1,16,17
 101 136 101 136 101 114.5 c 128,-1,18
 101 93 101 93 104 75 c 1,19,20
 132 42 132 42 181 42 c 0,21,22
 213 42 213 42 236.5 64.5 c 128,-1,23
 260 87 260 87 260 118 c 0,24,25
 260 169 260 169 187.5 195.5 c 128,-1,26
 115 222 115 222 84.5 255.5 c 128,-1,27
 54 289 54 289 54 337 c 0,28,29
 54 410 54 410 111 451.5 c 128,-1,30
 168 493 168 493 267 493 c 0,31,32
 323 493 323 493 375 467.5 c 128,-1,33
 427 442 427 442 427 392 c 0,34,35
 427 363 427 363 405.5 342.5 c 128,-1,36
 384 322 384 322 346.5 322 c 128,-1,37
 309 322 309 322 287 355 c 1,38,39
 315 380 315 380 315 402.5 c 128,-1,0
 315 425 315 425 300 436.5 c 128,-1,1
EndSplineSet
EndChar

StartChar: t
Encoding: 116 116 87
Width: 364
GlyphClass: 2
Flags: W
LayerCount: 2
Fore
SplineSet
254 413 m 1,0,1
 207 115 207 115 207 107 c 0,2,3
 207 70 207 70 244 70 c 0,4,5
 276 70 276 70 331 105 c 1,6,-1
 355 72 l 1,7,8
 322 41 322 41 269 18.5 c 128,-1,9
 216 -4 216 -4 168.5 -4 c 128,-1,10
 121 -4 121 -4 92 18.5 c 128,-1,11
 63 41 63 41 63 88 c 0,12,13
 63 105 63 105 67 125 c 2,14,-1
 112 413 l 1,15,-1
 41 413 l 1,16,-1
 48 457 l 1,17,18
 157 496 157 496 217 584 c 1,19,-1
 282 584 l 1,20,-1
 266 478 l 1,21,-1
 394 478 l 1,22,-1
 383 413 l 1,23,-1
 254 413 l 1,0,1
EndSplineSet
EndChar

StartChar: u
Encoding: 117 117 88
Width: 584
GlyphClass: 2
Flags: W
LayerCount: 2
Fore
SplineSet
200 119 m 0,0,1
 200 60 200 60 241 60 c 0,2,3
 275 60 275 60 316 123 c 128,-1,4
 357 186 357 186 370 265 c 2,5,-1
 405 470 l 1,6,7
 441 489 441 489 476 489 c 128,-1,8
 511 489 511 489 548 484 c 1,9,-1
 501 197 l 2,10,11
 486 101 486 101 486 92 c 0,12,13
 486 69 486 69 506 69 c 0,14,15
 529 69 529 69 554 84 c 1,16,-1
 567 46 l 1,17,18
 490 -6 490 -6 427 -6 c 0,19,20
 382 -6 382 -6 362.5 17 c 128,-1,21
 343 40 343 40 343 86 c 1,22,23
 280 -8 280 -8 185 -8 c 0,24,25
 125 -8 125 -8 91 24.5 c 128,-1,26
 57 57 57 57 57 113 c 0,27,28
 57 130 57 130 76 250 c 128,-1,29
 95 370 95 370 95 377 c 0,30,31
 95 419 95 419 55 419 c 0,32,33
 50 419 50 419 34 417 c 1,34,-1
 31 456 l 1,35,36
 116 492 116 492 226 492 c 1,37,-1
 253 474 l 1,38,39
 200 152 200 152 200 119 c 0,0,1
EndSplineSet
EndChar

StartChar: v
Encoding: 118 118 89
Width: 500
GlyphClass: 2
Flags: W
LayerCount: 2
Fore
SplineSet
214 -7 m 2,0,1
 152 -7 152 -7 126 0 c 1,2,-1
 77 366 l 2,3,4
 68 427 68 427 16 427 c 1,5,-1
 10 459 l 1,6,7
 57 489 57 489 162 489 c 0,8,9
 187 489 187 489 200 488 c 1,10,-1
 247 134 l 1,11,-1
 345 286 l 2,12,13
 387 352 387 352 387 399 c 0,14,15
 387 422 387 422 373 429.5 c 128,-1,16
 359 437 359 437 331 437 c 1,17,-1
 327 474 l 1,18,19
 380 490 380 490 450 490 c 0,20,21
 472 490 472 490 490 488 c 1,22,-1
 507 462 l 1,23,24
 493 372 493 372 428 280 c 2,25,-1
 225 -7 l 1,26,-1
 214 -7 l 2,0,1
EndSplineSet
EndChar

StartChar: w
Encoding: 119 119 90
Width: 773
GlyphClass: 2
Flags: W
LayerCount: 2
Fore
SplineSet
362 433 m 2,0,-1
 362 477 l 1,1,2
 400 484 400 484 471 484 c 1,3,-1
 520 120 l 1,4,5
 658 335 658 335 658 400 c 0,6,7
 658 434 658 434 612 437 c 1,8,-1
 608 474 l 1,9,10
 661 490 661 490 704.5 490 c 128,-1,11
 748 490 748 490 761 488 c 1,12,-1
 778 462 l 1,13,14
 774 438 774 438 750 379 c 128,-1,15
 726 320 726 320 699 280 c 2,16,-1
 506 -7 l 1,17,18
 437 -7 437 -7 412 0 c 1,19,-1
 381 233 l 1,20,-1
 228 -7 l 1,21,22
 217 -8 217 -8 188 -8 c 128,-1,23
 159 -8 159 -8 134 0 c 1,24,-1
 85 366 l 2,25,26
 76 427 76 427 19 427 c 1,27,-1
 13 459 l 1,28,29
 60 489 60 489 157 489 c 0,30,31
 182 489 182 489 194 488 c 1,32,-1
 242 126 l 1,33,34
 319 254 319 254 340.5 304.5 c 128,-1,35
 362 355 362 355 362 433 c 2,0,-1
EndSplineSet
EndChar

StartChar: x
Encoding: 120 120 91
Width: 483
GlyphClass: 2
Flags: W
LayerCount: 2
Fore
SplineSet
410 86 m 0,0,1
 427 86 427 86 451 107 c 1,2,-1
 474 76 l 1,3,4
 405 -4 405 -4 339 -4 c 128,-1,5
 273 -4 273 -4 241 61 c 2,6,-1
 187 173 l 1,7,8
 121 109 121 109 121 81 c 128,-1,9
 121 53 121 53 164 38 c 1,10,-1
 159 0 l 1,11,-1
 -9 0 l 1,12,-1
 -20 28 l 1,13,14
 24 85 24 85 162 226 c 1,15,-1
 95 367 l 1,16,17
 77 399 77 399 63 407 c 128,-1,18
 49 415 49 415 20 415 c 1,19,-1
 15 448 l 1,20,21
 86 490 86 490 171 490 c 0,22,23
 191 490 191 490 199 488 c 1,24,-1
 277 320 l 1,25,26
 338 385 338 385 338 409 c 0,27,28
 338 417 338 417 327 425 c 128,-1,29
 316 433 316 433 299 436 c 1,30,-1
 308 473 l 1,31,32
 354 490 354 490 414 490 c 1,33,-1
 477 487 l 1,34,-1
 489 457 l 1,35,-1
 301 269 l 1,36,-1
 365 131 l 2,37,38
 385 86 385 86 410 86 c 0,0,1
EndSplineSet
EndChar

StartChar: y
Encoding: 121 121 92
Width: 500
GlyphClass: 2
Flags: W
LayerCount: 2
Fore
SplineSet
249 115 m 1,0,1
 386 333 386 333 386 400 c 0,2,3
 386 434 386 434 341 437 c 1,4,-1
 337 474 l 1,5,6
 390 490 390 490 450 490 c 0,7,8
 466 490 466 490 490 488 c 1,9,-1
 507 462 l 1,10,11
 485 372 485 372 428 280 c 1,12,-1
 206 -65 l 2,13,14
 190 -90 190 -90 190 -107 c 0,15,16
 190 -134 190 -134 222 -134 c 0,17,18
 241 -134 241 -134 256 -122 c 1,19,20
 258 -136 258 -136 258 -142 c 0,21,22
 258 -178 258 -178 231.5 -199 c 128,-1,23
 205 -220 205 -220 172 -220 c 128,-1,24
 139 -220 139 -220 117 -201.5 c 128,-1,25
 95 -183 95 -183 95 -150 c 0,26,27
 95 -102 95 -102 164 -5 c 1,28,29
 136 -3 136 -3 126 0 c 1,30,-1
 77 366 l 2,31,32
 68 427 68 427 16 427 c 1,33,-1
 10 459 l 1,34,35
 57 489 57 489 162 489 c 0,36,37
 187 489 187 489 200 488 c 1,38,-1
 249 115 l 1,0,1
EndSplineSet
EndChar

StartChar: z
Encoding: 122 122 93
Width: 472
GlyphClass: 2
Flags: W
LayerCount: 2
Fore
SplineSet
374 -4 m 1,0,-1
 184 0 l 1,1,2
 119 0 119 0 15 -4 c 1,3,-1
 6 42 l 1,4,-1
 307 428 l 1,5,-1
 180 428 l 1,6,7
 147 373 147 373 136 328 c 1,8,9
 124 326 124 326 106 326 c 128,-1,10
 88 326 88 326 63 335 c 1,11,-1
 71 456 l 1,12,-1
 108 486 l 1,13,14
 142 484 142 484 274 484 c 128,-1,15
 406 484 406 484 463 486 c 1,16,-1
 474 445 l 1,17,-1
 174 56 l 1,18,-1
 305 56 l 1,19,20
 335 95 335 95 358 170 c 1,21,-1
 430 161 l 1,22,-1
 404 29 l 1,23,-1
 374 -4 l 1,0,-1
EndSplineSet
EndChar

StartChar: braceleft
Encoding: 123 123 94
Width: 371
GlyphClass: 2
Flags: W
LayerCount: 2
Fore
SplineSet
257 532 m 1,0,-1
 264 429 l 1,1,2
 264 385 264 385 249.5 353 c 128,-1,3
 235 321 235 321 194 281 c 1,4,5
 215 252 215 252 215 214 c 128,-1,6
 215 176 215 176 193 100.5 c 128,-1,7
 171 25 171 25 171 -13.5 c 128,-1,8
 171 -52 171 -52 198 -80.5 c 128,-1,9
 225 -109 225 -109 272 -112 c 1,10,-1
 264 -165 l 1,11,12
 172 -165 172 -165 119 -122 c 128,-1,13
 66 -79 66 -79 66 -6 c 0,14,15
 66 25 66 25 93.5 98.5 c 128,-1,16
 121 172 121 172 121 193.5 c 128,-1,17
 121 215 121 215 108 230.5 c 128,-1,18
 95 246 95 246 82 250 c 2,19,-1
 69 254 l 1,20,-1
 79 314 l 1,21,22
 82 315 82 315 87 316 c 128,-1,23
 92 317 92 317 105 324 c 128,-1,24
 118 331 118 331 128 341 c 0,25,26
 154 367 154 367 154 412 c 1,27,-1
 150 525 l 1,28,29
 150 617 150 617 221.5 675 c 128,-1,30
 293 733 293 733 406 733 c 1,31,-1
 398 680 l 1,32,33
 336 675 336 675 296.5 634.5 c 128,-1,34
 257 594 257 594 257 532 c 1,0,-1
EndSplineSet
EndChar

StartChar: bar
Encoding: 124 124 95
Width: 309
GlyphClass: 2
Flags: W
LayerCount: 2
Fore
SplineSet
140 -151 m 1,0,-1
 40 -151 l 1,1,-1
 184 758 l 1,2,-1
 284 758 l 1,3,-1
 140 -151 l 1,0,-1
EndSplineSet
EndChar

StartChar: braceright
Encoding: 125 125 96
Width: 371
GlyphClass: 2
Flags: W
LayerCount: 2
Fore
SplineSet
126 36 m 1,0,-1
 122 135 l 1,1,2
 122 217 122 217 185 282 c 1,3,4
 157 339 157 339 157 380.5 c 128,-1,5
 157 422 157 422 184.5 480 c 128,-1,6
 212 538 212 538 212 579 c 128,-1,7
 212 620 212 620 185 648.5 c 128,-1,8
 158 677 158 677 111 680 c 1,9,-1
 119 733 l 1,10,11
 211 733 211 733 264 690 c 128,-1,12
 317 647 317 647 317 574 c 0,13,14
 317 543 317 543 289.5 469.5 c 128,-1,15
 262 396 262 396 262 374.5 c 128,-1,16
 262 353 262 353 275 337.5 c 128,-1,17
 288 322 288 322 301 318 c 2,18,-1
 314 314 l 1,19,-1
 304 254 l 1,20,21
 301 253 301 253 296 252 c 128,-1,22
 291 251 291 251 278 244 c 128,-1,23
 265 237 265 237 255 227 c 0,24,25
 229 201 229 201 229 156 c 1,26,-1
 233 43 l 1,27,28
 233 -49 233 -49 161.5 -107 c 128,-1,29
 90 -165 90 -165 -23 -165 c 1,30,-1
 -15 -112 l 1,31,32
 47 -109 47 -109 86.5 -68 c 128,-1,33
 126 -27 126 -27 126 36 c 1,0,-1
EndSplineSet
EndChar

StartChar: asciitilde
Encoding: 126 126 97
Width: 573
GlyphClass: 2
Flags: W
LayerCount: 2
Fore
SplineSet
144.5 346 m 128,-1,1
 192 377 192 377 238 377 c 128,-1,2
 284 377 284 377 337.5 340.5 c 128,-1,3
 391 304 391 304 419 304 c 0,4,5
 467 304 467 304 521 371 c 1,6,7
 579 341 579 341 599 321 c 1,8,9
 518 198 518 198 408 198 c 0,10,11
 375 198 375 198 317.5 233.5 c 128,-1,12
 260 269 260 269 240 269 c 0,13,14
 197 269 197 269 141 207 c 1,15,16
 105 218 105 218 64 258 c 1,17,0
 97 315 97 315 144.5 346 c 128,-1,1
EndSplineSet
EndChar

StartChar: exclamdown
Encoding: 161 161 99
Width: 328
GlyphClass: 2
Flags: W
LayerCount: 2
Fore
SplineSet
155 -77.5 m 128,-1,1
 155 -147 155 -147 159 -172 c 1,2,3
 150 -185 150 -185 130 -196 c 128,-1,4
 110 -207 110 -207 85 -207 c 0,5,6
 5 -207 5 -207 5 -140 c 0,7,8
 5 -106 5 -106 60.5 46 c 128,-1,9
 116 198 116 198 132 263 c 1,10,-1
 210 277 l 1,11,12
 178 147 178 147 166.5 69.5 c 128,-1,0
 155 -8 155 -8 155 -77.5 c 128,-1,1
150.5 466 m 128,-1,14
 171 488 171 488 200 488 c 128,-1,15
 229 488 229 488 243 472.5 c 128,-1,16
 257 457 257 457 257 427 c 128,-1,17
 257 397 257 397 236.5 374.5 c 128,-1,18
 216 352 216 352 187 352 c 128,-1,19
 158 352 158 352 144 368 c 128,-1,20
 130 384 130 384 130 414 c 128,-1,13
 130 444 130 444 150.5 466 c 128,-1,14
EndSplineSet
EndChar

StartChar: cent
Encoding: 162 162 100
Width: 462
GlyphClass: 2
Flags: W
LayerCount: 2
Fore
SplineSet
68 202 m 0,0,1
 68 42 68 42 217 24 c 1,2,-1
 266 22 l 1,3,4
 364 25 364 25 439 91 c 1,5,-1
 410 126 l 1,6,7
 353 76 353 76 288 76 c 0,8,9
 244 76 244 76 224 104 c 128,-1,10
 204 132 204 132 204 211 c 128,-1,11
 204 290 204 290 232 365 c 128,-1,12
 260 440 260 440 315 440 c 0,13,14
 354 440 354 440 354 402 c 0,15,16
 354 383 354 383 336 364 c 1,17,18
 340 347 340 347 356 336 c 128,-1,19
 372 325 372 325 399.5 325 c 128,-1,20
 427 325 427 325 452 346.5 c 128,-1,21
 477 368 477 368 477 401 c 128,-1,22
 477 434 477 434 439.5 458 c 128,-1,23
 402 482 402 482 340 484 c 1,24,-1
 289 481 l 1,25,26
 181 468 181 468 124.5 395.5 c 128,-1,27
 68 323 68 323 68 202 c 0,0,1
342 465 m 1,28,-1
 280 458 l 1,29,-1
 296 565 l 1,30,-1
 318 577 l 1,31,-1
 358 572 l 1,32,-1
 342 465 l 1,28,-1
210 29 m 1,33,-1
 272 30 l 1,34,-1
 258 -63 l 1,35,-1
 243 -74 l 1,36,-1
 196 -69 l 1,37,-1
 210 29 l 1,33,-1
EndSplineSet
EndChar

StartChar: sterling
Encoding: 163 163 101
Width: 534
GlyphClass: 2
Flags: W
LayerCount: 2
Fore
SplineSet
139 145 m 1,0,-1
 140 172 l 1,1,2
 140 207 140 207 132.5 294 c 128,-1,3
 125 381 125 381 125 414 c 0,4,5
 125 540 125 540 196 607.5 c 128,-1,6
 267 675 267 675 395 675 c 0,7,8
 459 675 459 675 507 648.5 c 128,-1,9
 555 622 555 622 555 570 c 0,10,11
 555 533 555 533 529 510 c 128,-1,12
 503 487 503 487 474 487 c 0,13,14
 416 487 416 487 409 520 c 1,15,16
 436 548 436 548 436 571.5 c 128,-1,17
 436 595 436 595 422 608 c 128,-1,18
 408 621 408 621 383 621 c 0,19,20
 319 621 319 621 289.5 564 c 128,-1,21
 260 507 260 507 260 413 c 1,22,23
 264 313 264 313 264 274 c 0,24,25
 264 181 264 181 227 107 c 1,26,27
 294 76 294 76 336 76 c 128,-1,28
 378 76 378 76 396 98.5 c 128,-1,29
 414 121 414 121 414 150 c 1,30,-1
 413 161 l 1,31,32
 448 161 448 161 468 143.5 c 128,-1,33
 488 126 488 126 488 95 c 0,34,35
 488 42 488 42 444.5 17.5 c 128,-1,36
 401 -7 401 -7 345 -7 c 0,37,38
 315 -7 315 -7 298 -0.5 c 128,-1,39
 281 6 281 6 273 8.5 c 128,-1,40
 265 11 265 11 250.5 20 c 128,-1,41
 236 29 236 29 232 31.5 c 128,-1,42
 228 34 228 34 211.5 45 c 128,-1,43
 195 56 195 56 193 57 c 1,44,45
 138 -9 138 -9 55 -9 c 0,46,47
 16 -9 16 -9 -6 12 c 128,-1,48
 -28 33 -28 33 -28 66 c 128,-1,49
 -28 99 -28 99 3 127.5 c 128,-1,50
 34 156 34 156 89 156 c 0,51,52
 108 156 108 156 139 145 c 1,0,-1
76 48 m 0,53,54
 116 48 116 48 130 91 c 1,55,56
 109 99 109 99 91 99 c 128,-1,57
 73 99 73 99 62.5 89.5 c 128,-1,58
 52 80 52 80 52 68 c 0,59,60
 52 48 52 48 76 48 c 0,53,54
404 357 m 1,61,-1
 404 311 l 1,62,-1
 394 297 l 1,63,-1
 65 297 l 1,64,-1
 65 347 l 1,65,-1
 78 357 l 1,66,-1
 404 357 l 1,61,-1
EndSplineSet
EndChar

StartChar: currency
Encoding: 164 164 102
Width: 587
GlyphClass: 2
Flags: W
LayerCount: 2
Fore
SplineSet
128 171 m 1,0,1
 82 228 82 228 82 295 c 128,-1,2
 82 362 82 362 130 417 c 1,3,-1
 73 481 l 1,4,-1
 141 547 l 1,5,-1
 216 466 l 1,6,7
 247 476 247 476 296 476 c 128,-1,8
 345 476 345 476 373 466 c 1,9,-1
 448 546 l 1,10,-1
 515 481 l 1,11,-1
 457 418 l 1,12,13
 505 359 505 359 505 294 c 128,-1,14
 505 229 505 229 459 170 c 1,15,-1
 516 108 l 1,16,-1
 448 44 l 1,17,-1
 378 121 l 1,18,19
 346 110 346 110 296 110 c 128,-1,20
 246 110 246 110 210 121 c 1,21,-1
 141 43 l 1,22,-1
 72 108 l 1,23,-1
 128 171 l 1,0,1
215 293 m 128,-1,25
 215 160 215 160 293.5 160 c 128,-1,26
 372 160 372 160 372 293 c 128,-1,27
 372 426 372 426 293.5 426 c 128,-1,24
 215 426 215 426 215 293 c 128,-1,25
EndSplineSet
EndChar

StartChar: yen
Encoding: 165 165 103
Width: 611
GlyphClass: 2
Flags: W
LayerCount: 2
Fore
SplineSet
529 295 m 1,0,-1
 529 249 l 1,1,-1
 519 235 l 1,2,-1
 70 235 l 1,3,-1
 70 285 l 1,4,-1
 83 295 l 1,5,-1
 529 295 l 1,0,-1
271 397 m 1,6,-1
 271 351 l 1,7,-1
 261 337 l 1,8,-1
 80 337 l 1,9,-1
 80 387 l 1,10,-1
 93 397 l 1,11,-1
 271 397 l 1,6,-1
196 71 m 1,12,-1
 228 269 l 1,13,-1
 137 585 l 2,14,15
 127 617 127 617 80 627 c 1,16,-1
 84 667 l 1,17,-1
 360 667 l 1,18,-1
 354 627 l 1,19,20
 301 620 301 620 284 605 c 1,21,-1
 354 357 l 1,22,-1
 514 597 l 1,23,24
 489 620 489 620 434 627 c 1,25,-1
 439 667 l 1,26,-1
 665 667 l 1,27,-1
 660 627 l 1,28,29
 622 624 622 624 596 601 c 1,30,-1
 374 268 l 1,31,-1
 343 71 l 1,32,33
 358 54 358 54 420 41 c 1,34,-1
 415 0 l 1,35,-1
 109 0 l 1,36,-1
 114 41 l 1,37,38
 167 49 167 49 196 71 c 1,12,-1
541 397 m 1,39,-1
 425 397 l 1,40,-1
 412 387 l 1,41,-1
 412 337 l 1,42,-1
 531 337 l 1,43,-1
 541 351 l 1,44,-1
 541 397 l 1,39,-1
EndSplineSet
EndChar

StartChar: brokenbar
Encoding: 166 166 104
Width: 309
GlyphClass: 2
Flags: W
LayerCount: 2
Fore
SplineSet
225 387 m 1,0,-1
 125 387 l 1,1,-1
 184 758 l 1,2,-1
 284 758 l 1,3,-1
 225 387 l 1,0,-1
100 229 m 1,4,-1
 200 229 l 1,5,-1
 140 -151 l 1,6,-1
 40 -151 l 1,7,-1
 100 229 l 1,4,-1
EndSplineSet
EndChar

StartChar: section
Encoding: 167 167 105
Width: 506
GlyphClass: 2
Flags: W
LayerCount: 2
Fore
SplineSet
190 19 m 0,0,1
 220 19 220 19 240.5 41.5 c 128,-1,2
 261 64 261 64 261 101.5 c 128,-1,3
 261 139 261 139 235 190 c 128,-1,4
 209 241 209 241 178 282 c 128,-1,5
 147 323 147 323 121 380 c 128,-1,6
 95 437 95 437 95 489 c 0,7,8
 95 585 95 585 174 639.5 c 128,-1,9
 253 694 253 694 350 694 c 0,10,11
 414 694 414 694 457 666 c 128,-1,12
 500 638 500 638 500 590.5 c 128,-1,13
 500 543 500 543 472 517.5 c 128,-1,14
 444 492 444 492 414 492 c 0,15,16
 353 492 353 492 345 534 c 1,17,18
 379 568 379 568 379 592.5 c 128,-1,19
 379 617 379 617 365.5 628 c 128,-1,20
 352 639 352 639 328 639 c 128,-1,21
 304 639 304 639 282.5 618.5 c 128,-1,22
 261 598 261 598 261 559 c 128,-1,23
 261 520 261 520 287 469.5 c 128,-1,24
 313 419 313 419 344 378 c 128,-1,25
 375 337 375 337 401 280 c 128,-1,26
 427 223 427 223 427 163.5 c 128,-1,27
 427 104 427 104 386 56 c 1,28,29
 310 -36 310 -36 172 -36 c 0,30,31
 108 -36 108 -36 65 -8 c 128,-1,32
 22 20 22 20 22 67.5 c 128,-1,33
 22 115 22 115 50 140.5 c 128,-1,34
 78 166 78 166 115 166 c 0,35,36
 166 166 166 166 178 124 c 1,37,38
 167 118 167 118 157.5 98.5 c 128,-1,39
 148 79 148 79 148 60 c 0,40,41
 148 19 148 19 190 19 c 0,0,1
189 557 m 1,42,43
 171 521 171 521 171 487.5 c 128,-1,44
 171 454 171 454 188 414.5 c 128,-1,45
 205 375 205 375 229 339.5 c 128,-1,46
 253 304 253 304 277 268 c 0,47,48
 335 183 335 183 335 122 c 0,49,50
 335 115 335 115 333 101 c 1,51,52
 351 133 351 133 351 171.5 c 128,-1,53
 351 210 351 210 325.5 261.5 c 128,-1,54
 300 313 300 313 269 353.5 c 128,-1,55
 238 394 238 394 212.5 444.5 c 128,-1,56
 187 495 187 495 187 536 c 0,57,58
 187 543 187 543 189 557 c 1,42,43
EndSplineSet
EndChar

StartChar: dieresis
Encoding: 168 168 106
Width: 337
GlyphClass: 2
Flags: W
LayerCount: 2
Fore
SplineSet
195.5 574.5 m 128,-1,1
 176 553 176 553 146.5 553 c 128,-1,2
 117 553 117 553 102 567.5 c 128,-1,3
 87 582 87 582 87 613 c 128,-1,4
 87 644 87 644 106.5 665 c 128,-1,5
 126 686 126 686 155.5 686 c 128,-1,6
 185 686 185 686 200 671.5 c 128,-1,7
 215 657 215 657 215 626.5 c 128,-1,0
 215 596 215 596 195.5 574.5 c 128,-1,1
358.5 574.5 m 128,-1,9
 339 553 339 553 309.5 553 c 128,-1,10
 280 553 280 553 265 567.5 c 128,-1,11
 250 582 250 582 250 613 c 128,-1,12
 250 644 250 644 269.5 665 c 128,-1,13
 289 686 289 686 318.5 686 c 128,-1,14
 348 686 348 686 363 671.5 c 128,-1,15
 378 657 378 657 378 626.5 c 128,-1,8
 378 596 378 596 358.5 574.5 c 128,-1,9
EndSplineSet
EndChar

StartChar: copyright
Encoding: 169 169 107
Width: 851
GlyphClass: 2
Flags: W
LayerCount: 2
Fore
SplineSet
549 195 m 1,0,1
 498 138 498 138 432.5 138 c 128,-1,2
 367 138 367 138 329.5 181 c 128,-1,3
 292 224 292 224 292 308 c 0,4,5
 292 485 292 485 438 485 c 0,6,7
 484 485 484 485 513 466 c 128,-1,8
 542 447 542 447 542 421.5 c 128,-1,9
 542 396 542 396 528.5 382.5 c 128,-1,10
 515 369 515 369 494 369 c 128,-1,11
 473 369 473 369 461 391 c 1,12,13
 469 405 469 405 469 419 c 0,14,15
 469 448 469 448 436 448 c 0,16,17
 375 448 375 448 375 316 c 0,18,19
 375 248 375 248 394 215.5 c 128,-1,20
 413 183 413 183 451 183 c 128,-1,21
 489 183 489 183 523 219 c 1,22,-1
 549 195 l 1,0,1
248.5 493.5 m 128,-1,24
 174 418 174 418 174 312.5 c 128,-1,25
 174 207 174 207 248 132 c 128,-1,26
 322 57 322 57 425.5 57 c 128,-1,27
 529 57 529 57 602 132 c 128,-1,28
 675 207 675 207 675 313 c 128,-1,29
 675 419 675 419 601.5 494 c 128,-1,30
 528 569 528 569 425.5 569 c 128,-1,23
 323 569 323 569 248.5 493.5 c 128,-1,24
125 313 m 128,-1,32
 125 436 125 436 213 523 c 128,-1,33
 301 610 301 610 425.5 610 c 128,-1,34
 550 610 550 610 638 523 c 128,-1,35
 726 436 726 436 726 313 c 128,-1,36
 726 190 726 190 638 103 c 128,-1,37
 550 16 550 16 425 16 c 128,-1,38
 300 16 300 16 212.5 103 c 128,-1,31
 125 190 125 190 125 313 c 128,-1,32
EndSplineSet
EndChar

StartChar: ordfeminine
Encoding: 170 170 108
Width: 415
GlyphClass: 2
Flags: W
LayerCount: 2
Fore
SplineSet
402 292 m 1,0,-1
 393 231 l 1,1,-1
 57 231 l 1,2,-1
 66 292 l 1,3,-1
 402 292 l 1,0,-1
221 392 m 0,4,5
 267 392 267 392 285 511 c 1,6,-1
 305 623 l 1,7,8
 290 629 290 629 275 629 c 0,9,10
 235 629 235 629 210.5 589 c 128,-1,11
 186 549 186 549 186 470.5 c 128,-1,12
 186 392 186 392 221 392 c 0,4,5
425 665 m 1,13,-1
 383 421 l 1,14,15
 383 405 383 405 399 405 c 0,16,17
 409 405 409 405 429 415 c 1,18,-1
 435 378 l 1,19,20
 421 364 421 364 389 352.5 c 128,-1,21
 357 341 357 341 330.5 341 c 128,-1,22
 304 341 304 341 290.5 350 c 128,-1,23
 277 359 277 359 270 380 c 1,24,25
 237 336 237 336 187 336 c 128,-1,26
 137 336 137 336 105.5 368.5 c 128,-1,27
 74 401 74 401 74 463 c 0,28,29
 74 563 74 563 125.5 615 c 128,-1,30
 177 667 177 667 257 667 c 0,31,32
 290 667 290 667 327 654 c 1,33,34
 348 666 348 666 383 666 c 128,-1,35
 418 666 418 666 425 665 c 1,13,-1
EndSplineSet
EndChar

StartChar: guillemotleft
Encoding: 171 171 109
Width: 512
GlyphClass: 2
Flags: W
LayerCount: 2
Fore
SplineSet
155 240 m 1,0,-1
 223 55 l 1,1,-1
 188 31 l 1,2,-1
 28 222 l 1,3,-1
 34 258 l 1,4,-1
 254 450 l 1,5,-1
 281 426 l 1,6,-1
 155 240 l 1,0,-1
380 240 m 1,7,-1
 448 55 l 1,8,-1
 413 31 l 1,9,-1
 253 222 l 1,10,-1
 259 258 l 1,11,-1
 479 450 l 1,12,-1
 506 426 l 1,13,-1
 380 240 l 1,7,-1
EndSplineSet
EndChar

StartChar: logicalnot
Encoding: 172 172 110
Width: 573
GlyphClass: 2
Flags: W
LayerCount: 2
Fore
SplineSet
91 327 m 1,0,-1
 106 422 l 1,1,-1
 583 422 l 1,2,-1
 535 121 l 1,3,-1
 435 121 l 1,4,-1
 468 327 l 1,5,-1
 91 327 l 1,0,-1
EndSplineSet
EndChar

StartChar: uni00AD
Encoding: 173 173 111
Width: 337
GlyphClass: 2
Flags: W
LayerCount: 2
Fore
SplineSet
52 219 m 1,0,-1
 67 314 l 1,1,-1
 298 314 l 1,2,-1
 283 219 l 1,3,-1
 52 219 l 1,0,-1
EndSplineSet
EndChar

StartChar: registered
Encoding: 174 174 112
Width: 851
GlyphClass: 2
Flags: W
LayerCount: 2
Fore
SplineSet
125 313 m 128,-1,1
 125 436 125 436 213 523 c 128,-1,2
 301 610 301 610 425.5 610 c 128,-1,3
 550 610 550 610 638 523 c 128,-1,4
 726 436 726 436 726 313 c 128,-1,5
 726 190 726 190 638 103 c 128,-1,6
 550 16 550 16 425 16 c 128,-1,7
 300 16 300 16 212.5 103 c 128,-1,0
 125 190 125 190 125 313 c 128,-1,1
427 481 m 2,8,9
 550 481 550 481 550 397 c 0,10,11
 550 335 550 335 487 314 c 1,12,13
 501 305 501 305 513 282 c 1,14,-1
 549 196 l 1,15,-1
 579 185 l 1,16,-1
 575 160 l 1,17,-1
 487 160 l 1,18,-1
 440 286 l 2,19,20
 433 302 433 302 414 305 c 1,21,22
 401 305 401 305 394 306 c 1,23,-1
 389 306 l 1,24,-1
 389 194 l 1,25,-1
 425 183 l 1,26,-1
 423 160 l 1,27,-1
 289 160 l 1,28,-1
 292 185 l 1,29,-1
 318 194 l 1,30,-1
 318 447 l 1,31,-1
 289 457 l 1,32,-1
 291 481 l 1,33,-1
 427 481 l 2,8,9
420 335 m 2,34,35
 475 335 475 335 475 393.5 c 128,-1,36
 475 452 475 452 420 452 c 0,37,38
 399 452 399 452 389 450 c 1,39,-1
 389 335 l 1,40,-1
 420 335 l 2,34,35
248.5 493.5 m 128,-1,42
 174 418 174 418 174 312.5 c 128,-1,43
 174 207 174 207 248 132 c 128,-1,44
 322 57 322 57 425.5 57 c 128,-1,45
 529 57 529 57 602 132 c 128,-1,46
 675 207 675 207 675 313 c 128,-1,47
 675 419 675 419 601.5 494 c 128,-1,48
 528 569 528 569 425.5 569 c 128,-1,41
 323 569 323 569 248.5 493.5 c 128,-1,42
EndSplineSet
EndChar

StartChar: macron
Encoding: 175 175 113
Width: 361
GlyphClass: 2
Flags: W
LayerCount: 2
Fore
SplineSet
80 578 m 1,0,-1
 91 646 l 1,1,-1
 402 646 l 1,2,-1
 391 578 l 1,3,-1
 80 578 l 1,0,-1
EndSplineSet
EndChar

StartChar: degree
Encoding: 176 176 114
Width: 378
GlyphClass: 2
Flags: W
LayerCount: 2
Fore
SplineSet
96 503 m 0,0,1
 96 578 96 578 146.5 626.5 c 128,-1,2
 197 675 197 675 272 675 c 0,3,4
 329 675 329 675 365 640.5 c 128,-1,5
 401 606 401 606 401 552 c 0,6,7
 401 481 401 481 348 430.5 c 128,-1,8
 295 380 295 380 231.5 380 c 128,-1,9
 168 380 168 380 132 414.5 c 128,-1,10
 96 449 96 449 96 503 c 0,0,1
322 551 m 0,11,12
 322 621 322 621 257 621 c 0,13,14
 223 621 223 621 199 585.5 c 128,-1,15
 175 550 175 550 175 510 c 0,16,17
 175 433 175 433 234 433 c 0,18,19
 271 433 271 433 296.5 466 c 128,-1,20
 322 499 322 499 322 551 c 0,11,12
EndSplineSet
EndChar

StartChar: plusminus
Encoding: 177 177 115
Width: 573
GlyphClass: 2
Flags: W
LayerCount: 2
Fore
SplineSet
74 306 m 1,0,-1
 90 401 l 1,1,-1
 263 401 l 1,2,-1
 287 558 l 1,3,-1
 387 558 l 1,4,-1
 363 401 l 1,5,-1
 539 401 l 1,6,-1
 523 306 l 1,7,-1
 347 306 l 1,8,-1
 323 150 l 1,9,-1
 223 150 l 1,10,-1
 247 306 l 1,11,-1
 74 306 l 1,0,-1
25 0 m 1,12,-1
 40 95 l 1,13,-1
 489 95 l 1,14,-1
 474 0 l 1,15,-1
 25 0 l 1,12,-1
EndSplineSet
EndChar

StartChar: twosuperior
Encoding: 178 178 116
Width: 426
GlyphClass: 2
Flags: W
LayerCount: 2
Fore
SplineSet
257 733 m 0,0,1
 257 777 257 777 217 777 c 0,2,3
 195 777 195 777 181 761 c 128,-1,4
 167 745 167 745 167 723.5 c 128,-1,5
 167 702 167 702 178 686 c 1,6,7
 146 662 146 662 120 662 c 0,8,9
 63 662 63 662 63 709.5 c 128,-1,10
 63 757 63 757 110 789.5 c 128,-1,11
 157 822 157 822 217.5 822 c 128,-1,12
 278 822 278 822 312 805 c 1,13,14
 366 780 366 780 366 723 c 128,-1,15
 366 666 366 666 319.5 610.5 c 128,-1,16
 273 555 273 555 163 474 c 1,17,-1
 332 474 l 1,18,-1
 321 405 l 1,19,-1
 13 405 l 1,20,-1
 20 447 l 1,21,22
 160 554 160 554 208.5 613 c 128,-1,23
 257 672 257 672 257 733 c 0,0,1
EndSplineSet
EndChar

StartChar: threesuperior
Encoding: 179 179 117
Width: 426
GlyphClass: 2
Flags: W
LayerCount: 2
Fore
SplineSet
265 732 m 0,0,1
 265 777 265 777 228 777 c 0,2,3
 205 777 205 777 191.5 760.5 c 128,-1,4
 178 744 178 744 178 724 c 128,-1,5
 178 704 178 704 183 693 c 1,6,7
 157 671 157 671 129.5 671 c 128,-1,8
 102 671 102 671 88.5 684.5 c 128,-1,9
 75 698 75 698 75 725.5 c 128,-1,10
 75 753 75 753 104 778 c 0,11,12
 157 822 157 822 242 822 c 0,13,14
 304 822 304 822 340.5 795.5 c 128,-1,15
 377 769 377 769 377 727 c 0,16,17
 377 654 377 654 288 621 c 1,18,19
 358 602 358 602 358 536.5 c 128,-1,20
 358 471 358 471 299 435.5 c 128,-1,21
 240 400 240 400 175 400 c 128,-1,22
 110 400 110 400 71.5 421 c 128,-1,23
 33 442 33 442 33 475 c 128,-1,24
 33 508 33 508 52 524 c 128,-1,25
 71 540 71 540 95.5 540 c 128,-1,26
 120 540 120 540 145 520 c 1,27,28
 132 502 132 502 132 486 c 0,29,30
 132 453 132 453 176 453 c 0,31,32
 241 453 241 453 241 530 c 0,33,34
 241 562 241 562 216.5 579 c 128,-1,35
 192 596 192 596 146 596 c 1,36,-1
 154 643 l 1,37,38
 265 652 265 652 265 732 c 0,0,1
EndSplineSet
EndChar

StartChar: acute
Encoding: 180 180 118
Width: 241
GlyphClass: 2
Flags: W
LayerCount: 2
Fore
SplineSet
173 689 m 2,0,1
 199 721 199 721 223.5 721 c 128,-1,2
 248 721 248 721 261.5 707.5 c 128,-1,3
 275 694 275 694 275 675 c 0,4,5
 275 644 275 644 240 622 c 2,6,-1
 109 538 l 1,7,-1
 79 572 l 1,8,-1
 173 689 l 2,0,1
EndSplineSet
EndChar

StartChar: mu
Encoding: 181 181 119
Width: 594
GlyphClass: 2
Flags: W
LayerCount: 2
Fore
SplineSet
95 376 m 0,0,1
 95 419 95 419 55 419 c 0,2,3
 50 419 50 419 34 417 c 1,4,-1
 31 456 l 1,5,6
 66 471 66 471 120.5 481.5 c 128,-1,7
 175 492 175 492 217 492 c 2,8,-1
 226 492 l 1,9,-1
 253 474 l 1,10,-1
 203 155 l 2,11,12
 200 136 200 136 200 119 c 0,13,14
 200 59 200 59 242 59 c 0,15,16
 278 59 278 59 319.5 130.5 c 128,-1,17
 361 202 361 202 375 288 c 2,18,-1
 405 470 l 1,19,20
 441 489 441 489 476 489 c 128,-1,21
 511 489 511 489 548 484 c 1,22,-1
 488 108 l 2,23,24
 486 96 486 96 486 93 c 0,25,26
 486 67 486 67 511 67 c 0,27,28
 530 67 530 67 554 84 c 1,29,-1
 572 49 l 1,30,31
 551 26 551 26 514.5 10 c 128,-1,32
 478 -6 478 -6 446 -6 c 0,33,34
 347 -6 347 -6 345 89 c 1,35,36
 282 -8 282 -8 185 -8 c 2,37,-1
 177 -8 l 1,38,-1
 146 -211 l 1,39,-1
 4 -211 l 1,40,-1
 59 137 l 2,41,42
 59 143 59 143 60 146 c 2,43,-1
 93 354 l 2,44,45
 95 370 95 370 95 376 c 0,0,1
EndSplineSet
EndChar

StartChar: paragraph
Encoding: 182 182 120
Width: 569
GlyphClass: 2
Flags: W
LayerCount: 2
Fore
SplineSet
436 623 m 1,0,-1
 346 61 l 2,1,2
 344 50 344 50 340 8 c 0,3,4
 331 -84 331 -84 315 -122 c 1,5,6
 335 -110 335 -110 350.5 -78 c 128,-1,7
 366 -46 366 -46 371 -13 c 2,8,-1
 472 623 l 1,9,-1
 436 623 l 1,0,-1
112 458 m 0,10,11
 112 615 112 615 280 656 c 0,12,13
 328 667 328 667 387 667 c 2,14,-1
 602 667 l 1,15,-1
 596 626 l 1,16,17
 552 618 552 618 525 598 c 1,18,-1
 438 59 l 2,19,20
 420 -55 420 -55 398 -99 c 0,21,22
 367 -160 367 -160 330 -184 c 0,23,24
 278 -219 278 -219 217 -219 c 128,-1,25
 156 -219 156 -219 122 -197 c 128,-1,26
 88 -175 88 -175 88 -137.5 c 128,-1,27
 88 -100 88 -100 109 -80.5 c 128,-1,28
 130 -61 130 -61 154 -61 c 0,29,30
 203 -61 203 -61 211 -103 c 1,31,32
 190 -114 190 -114 190 -142.5 c 128,-1,33
 190 -171 190 -171 218 -171 c 0,34,35
 260 -171 260 -171 272 -117 c 0,36,37
 280 -82 280 -82 284.5 -18.5 c 128,-1,38
 289 45 289 45 292 70 c 2,39,-1
 330 315 l 1,40,41
 112 315 112 315 112 458 c 0,10,11
EndSplineSet
EndChar

StartChar: periodcentered
Encoding: 183 183 121
Width: 270
GlyphClass: 2
Flags: W
LayerCount: 2
Fore
SplineSet
98.5 351.5 m 128,-1,1
 122 377 122 377 154.5 377 c 128,-1,2
 187 377 187 377 202.5 359.5 c 128,-1,3
 218 342 218 342 218 308.5 c 128,-1,4
 218 275 218 275 194.5 249.5 c 128,-1,5
 171 224 171 224 138.5 224 c 128,-1,6
 106 224 106 224 90.5 241.5 c 128,-1,7
 75 259 75 259 75 292.5 c 128,-1,0
 75 326 75 326 98.5 351.5 c 128,-1,1
EndSplineSet
EndChar

StartChar: cedilla
Encoding: 184 184 122
Width: 255
GlyphClass: 2
Flags: W
LayerCount: 2
Fore
SplineSet
117 -39 m 1,0,1
 175 -57 175 -57 175 -103 c 128,-1,2
 175 -149 175 -149 139 -179.5 c 128,-1,3
 103 -210 103 -210 54.5 -210 c 128,-1,4
 6 -210 6 -210 -17 -188.5 c 128,-1,5
 -40 -167 -40 -167 -40 -142 c 128,-1,6
 -40 -117 -40 -117 -25 -102 c 128,-1,7
 -10 -87 -10 -87 8.5 -87 c 128,-1,8
 27 -87 27 -87 44 -96 c 1,9,10
 29 -111 29 -111 29 -129 c 128,-1,11
 29 -147 29 -147 36 -157.5 c 128,-1,12
 43 -168 43 -168 59 -168 c 128,-1,13
 75 -168 75 -168 87 -154 c 128,-1,14
 99 -140 99 -140 99 -117 c 0,15,16
 99 -78 99 -78 47 -73 c 1,17,-1
 30 -49 l 1,18,-1
 95 16 l 1,19,-1
 132 7 l 1,20,-1
 117 -39 l 1,0,1
EndSplineSet
EndChar

StartChar: onesuperior
Encoding: 185 185 123
Width: 426
GlyphClass: 2
Flags: W
LayerCount: 2
Fore
SplineSet
59 405 m 1,0,-1
 67 443 l 1,1,2
 130 449 130 449 160 461 c 1,3,-1
 204 739 l 1,4,-1
 115 739 l 1,5,-1
 122 784 l 1,6,7
 222 789 222 789 296 817 c 1,8,-1
 320 807 l 1,9,-1
 265 460 l 1,10,11
 296 447 296 447 346 444 c 1,12,-1
 337 405 l 1,13,-1
 59 405 l 1,0,-1
EndSplineSet
EndChar

StartChar: ordmasculine
Encoding: 186 186 124
Width: 424
GlyphClass: 2
Flags: W
LayerCount: 2
Fore
SplineSet
401 292 m 1,0,-1
 392 231 l 1,1,-1
 56 231 l 1,2,-1
 65 292 l 1,3,-1
 401 292 l 1,0,-1
232.5 573.5 m 128,-1,5
 209 524 209 524 209 456 c 128,-1,6
 209 388 209 388 250 388 c 0,7,8
 282 388 282 388 305 437.5 c 128,-1,9
 328 487 328 487 328 555 c 128,-1,10
 328 623 328 623 288 623 c 0,11,4
 256 623 256 623 232.5 573.5 c 128,-1,5
97 473 m 0,12,13
 97 569 97 569 148.5 620.5 c 128,-1,14
 200 672 200 672 295 672 c 0,15,16
 441 672 441 672 441 539 c 0,17,18
 441 443 441 443 389.5 391 c 128,-1,19
 338 339 338 339 243 339 c 0,20,21
 97 339 97 339 97 473 c 0,12,13
EndSplineSet
EndChar

StartChar: guillemotright
Encoding: 187 187 125
Width: 512
GlyphClass: 2
Flags: W
LayerCount: 2
Fore
SplineSet
235 55 m 1,0,-1
 361 240 l 1,1,-1
 293 426 l 1,2,-1
 328 450 l 1,3,-1
 488 258 l 1,4,-1
 482 222 l 1,5,-1
 262 31 l 1,6,-1
 235 55 l 1,0,-1
10 55 m 1,7,-1
 136 240 l 1,8,-1
 68 426 l 1,9,-1
 103 450 l 1,10,-1
 263 258 l 1,11,-1
 257 222 l 1,12,-1
 37 31 l 1,13,-1
 10 55 l 1,7,-1
EndSplineSet
EndChar

StartChar: onequarter
Encoding: 188 188 126
Width: 972
GlyphClass: 2
Flags: W
LayerCount: 2
Fore
SplineSet
729 107 m 1,0,-1
 537 107 l 1,1,-1
 536 135 l 1,2,-1
 749 416 l 1,3,4
 804 414 804 414 834 392 c 1,5,-1
 637 163 l 1,6,-1
 738 163 l 1,7,-1
 751 243 l 1,8,9
 767 243 767 243 781.5 254 c 128,-1,10
 796 265 796 265 803 283 c 1,11,-1
 853 283 l 1,12,-1
 833 159 l 1,13,-1
 896 145 l 1,14,-1
 885 107 l 1,15,-1
 822 107 l 1,16,-1
 805 0 l 1,17,-1
 712 0 l 1,18,-1
 729 107 l 1,0,-1
96 257 m 1,19,-1
 104 295 l 1,20,21
 167 301 167 301 197 313 c 1,22,-1
 241 591 l 1,23,-1
 152 591 l 1,24,-1
 159 636 l 1,25,26
 259 641 259 641 333 669 c 1,27,-1
 357 659 l 1,28,-1
 302 312 l 1,29,30
 333 299 333 299 383 296 c 1,31,-1
 374 257 l 1,32,-1
 96 257 l 1,19,-1
321 -30 m 1,33,-1
 260 2 l 1,34,-1
 689 684 l 1,35,-1
 750 652 l 1,36,-1
 321 -30 l 1,33,-1
EndSplineSet
EndChar

StartChar: onehalf
Encoding: 189 189 127
Width: 972
GlyphClass: 2
Flags: W
LayerCount: 2
Fore
SplineSet
96 257 m 1,0,-1
 104 295 l 1,1,2
 167 301 167 301 197 313 c 1,3,-1
 241 591 l 1,4,-1
 152 591 l 1,5,-1
 159 636 l 1,6,7
 259 641 259 641 333 669 c 1,8,-1
 357 659 l 1,9,-1
 302 312 l 1,10,11
 333 299 333 299 383 296 c 1,12,-1
 374 257 l 1,13,-1
 96 257 l 1,0,-1
321 -30 m 1,14,-1
 260 2 l 1,15,-1
 689 684 l 1,16,-1
 750 652 l 1,17,-1
 321 -30 l 1,14,-1
795 327 m 0,18,19
 795 371 795 371 755 371 c 0,20,21
 733 371 733 371 719 355 c 128,-1,22
 705 339 705 339 705 317.5 c 128,-1,23
 705 296 705 296 716 280 c 1,24,25
 684 256 684 256 658 256 c 0,26,27
 601 256 601 256 601 303.5 c 128,-1,28
 601 351 601 351 648 383.5 c 128,-1,29
 695 416 695 416 755.5 416 c 128,-1,30
 816 416 816 416 850 399 c 1,31,32
 904 374 904 374 904 317 c 128,-1,33
 904 260 904 260 857.5 204.5 c 128,-1,34
 811 149 811 149 701 68 c 1,35,-1
 870 68 l 1,36,-1
 859 -1 l 1,37,-1
 551 -1 l 1,38,-1
 558 41 l 1,39,40
 698 148 698 148 746.5 207 c 128,-1,41
 795 266 795 266 795 327 c 0,18,19
EndSplineSet
EndChar

StartChar: threequarters
Encoding: 190 190 128
Width: 972
GlyphClass: 2
Flags: W
LayerCount: 2
Fore
SplineSet
305 583 m 0,0,1
 305 605 305 605 294.5 616.5 c 128,-1,2
 284 628 284 628 264.5 628 c 128,-1,3
 245 628 245 628 231.5 611.5 c 128,-1,4
 218 595 218 595 218 575 c 128,-1,5
 218 555 218 555 223 544 c 1,6,7
 197 522 197 522 169.5 522 c 128,-1,8
 142 522 142 522 128.5 535.5 c 128,-1,9
 115 549 115 549 115 576.5 c 128,-1,10
 115 604 115 604 144 628 c 0,11,12
 197 673 197 673 282 673 c 0,13,14
 344 673 344 673 380.5 646.5 c 128,-1,15
 417 620 417 620 417 578 c 0,16,17
 417 505 417 505 328 472 c 1,18,19
 398 453 398 453 398 387.5 c 128,-1,20
 398 322 398 322 339 286.5 c 128,-1,21
 280 251 280 251 215 251 c 128,-1,22
 150 251 150 251 111.5 272 c 128,-1,23
 73 293 73 293 73 326 c 128,-1,24
 73 359 73 359 92 375 c 128,-1,25
 111 391 111 391 135.5 391 c 128,-1,26
 160 391 160 391 185 371 c 1,27,28
 172 353 172 353 172 337 c 0,29,30
 172 304 172 304 216 304 c 0,31,32
 281 304 281 304 281 381 c 0,33,34
 281 413 281 413 256.5 430 c 128,-1,35
 232 447 232 447 186 447 c 1,36,-1
 194 494 l 1,37,38
 305 503 305 503 305 583 c 0,0,1
724 107 m 1,39,-1
 532 107 l 1,40,-1
 531 135 l 1,41,-1
 744 416 l 1,42,43
 799 414 799 414 829 392 c 1,44,-1
 632 163 l 1,45,-1
 733 163 l 1,46,-1
 746 243 l 1,47,48
 762 243 762 243 776.5 254 c 128,-1,49
 791 265 791 265 798 283 c 1,50,-1
 848 283 l 1,51,-1
 828 159 l 1,52,-1
 891 145 l 1,53,-1
 880 107 l 1,54,-1
 817 107 l 1,55,-1
 800 0 l 1,56,-1
 707 0 l 1,57,-1
 724 107 l 1,39,-1
321 -30 m 1,58,-1
 260 2 l 1,59,-1
 689 684 l 1,60,-1
 750 652 l 1,61,-1
 321 -30 l 1,58,-1
EndSplineSet
EndChar

StartChar: questiondown
Encoding: 191 191 129
Width: 438
GlyphClass: 2
Flags: W
LayerCount: 2
Fore
SplineSet
292.5 267.5 m 128,-1,1
 311 250 311 250 311 214 c 128,-1,2
 311 178 311 178 291 146.5 c 128,-1,3
 271 115 271 115 242.5 91.5 c 128,-1,4
 214 68 214 68 185.5 44 c 128,-1,5
 157 20 157 20 137 -16 c 128,-1,6
 117 -52 117 -52 117 -88.5 c 128,-1,7
 117 -125 117 -125 132.5 -140 c 128,-1,8
 148 -155 148 -155 170.5 -155 c 128,-1,9
 193 -155 193 -155 210.5 -141 c 128,-1,10
 228 -127 228 -127 228 -102 c 128,-1,11
 228 -77 228 -77 206 -58 c 1,12,13
 232 -12 232 -12 287 -12 c 0,14,15
 316 -12 316 -12 336.5 -29.5 c 128,-1,16
 357 -47 357 -47 357 -78 c 0,17,18
 357 -134 357 -134 295 -167.5 c 128,-1,19
 233 -201 233 -201 153 -201 c 128,-1,20
 73 -201 73 -201 29.5 -171.5 c 128,-1,21
 -14 -142 -14 -142 -14 -90.5 c 128,-1,22
 -14 -39 -14 -39 6.5 -1.5 c 128,-1,23
 27 36 27 36 56 61 c 128,-1,24
 85 86 85 86 114 108 c 0,25,26
 184 163 184 163 184 213 c 0,27,28
 184 234 184 234 176 260 c 1,29,30
 212 285 212 285 243 285 c 128,-1,0
 274 285 274 285 292.5 267.5 c 128,-1,1
224.5 466 m 128,-1,32
 245 488 245 488 274 488 c 128,-1,33
 303 488 303 488 317 472.5 c 128,-1,34
 331 457 331 457 331 427 c 128,-1,35
 331 397 331 397 310.5 374.5 c 128,-1,36
 290 352 290 352 261 352 c 128,-1,37
 232 352 232 352 218 368 c 128,-1,38
 204 384 204 384 204 414 c 128,-1,31
 204 444 204 444 224.5 466 c 128,-1,32
EndSplineSet
EndChar

StartChar: Agrave
Encoding: 192 192 130
Width: 614
GlyphClass: 2
Flags: W
LayerCount: 2
Fore
SplineSet
396 65 m 1,0,-1
 372 208 l 1,1,-1
 166 208 l 1,2,-1
 96 70 l 1,3,4
 121 47 121 47 176 40 c 1,5,-1
 171 0 l 1,6,-1
 -55 0 l 1,7,-1
 -50 40 l 1,8,9
 -3 44 -3 44 16 65 c 1,10,-1
 325 667 l 1,11,-1
 429 667 l 1,12,-1
 550 74 l 1,13,14
 561 47 561 47 604 40 c 1,15,-1
 600 0 l 1,16,-1
 324 0 l 1,17,-1
 330 40 l 1,18,19
 379 47 379 47 396 65 c 1,0,-1
321 511 m 1,20,-1
 198 271 l 1,21,-1
 361 271 l 1,22,-1
 321 511 l 1,20,-1
290 782 m 2,23,24
 266 801 266 801 266 828 c 128,-1,25
 266 855 266 855 281.5 870 c 128,-1,26
 297 885 297 885 320 885 c 0,27,28
 354 885 354 885 372 851 c 2,29,-1
 433 732 l 1,30,-1
 394 699 l 1,31,-1
 290 782 l 2,23,24
EndSplineSet
EndChar

StartChar: Aacute
Encoding: 193 193 131
Width: 614
GlyphClass: 2
Flags: W
LayerCount: 2
Fore
SplineSet
396 65 m 1,0,-1
 372 208 l 1,1,-1
 166 208 l 1,2,-1
 96 70 l 1,3,4
 121 47 121 47 176 40 c 1,5,-1
 171 0 l 1,6,-1
 -55 0 l 1,7,-1
 -50 40 l 1,8,9
 -3 44 -3 44 16 65 c 1,10,-1
 325 667 l 1,11,-1
 429 667 l 1,12,-1
 550 74 l 1,13,14
 561 47 561 47 604 40 c 1,15,-1
 600 0 l 1,16,-1
 324 0 l 1,17,-1
 330 40 l 1,18,19
 379 47 379 47 396 65 c 1,0,-1
321 511 m 1,20,-1
 198 271 l 1,21,-1
 361 271 l 1,22,-1
 321 511 l 1,20,-1
433 864 m 2,23,24
 459 896 459 896 483.5 896 c 128,-1,25
 508 896 508 896 521.5 882.5 c 128,-1,26
 535 869 535 869 535 850 c 0,27,28
 535 819 535 819 500 797 c 2,29,-1
 369 713 l 1,30,-1
 339 747 l 1,31,-1
 433 864 l 2,23,24
EndSplineSet
EndChar

StartChar: Acircumflex
Encoding: 194 194 132
Width: 614
GlyphClass: 2
Flags: W
LayerCount: 2
Fore
SplineSet
396 65 m 1,0,-1
 372 208 l 1,1,-1
 166 208 l 1,2,-1
 96 70 l 1,3,4
 121 47 121 47 176 40 c 1,5,-1
 171 0 l 1,6,-1
 -55 0 l 1,7,-1
 -50 40 l 1,8,9
 -3 44 -3 44 16 65 c 1,10,-1
 325 667 l 1,11,-1
 429 667 l 1,12,-1
 550 74 l 1,13,14
 561 47 561 47 604 40 c 1,15,-1
 600 0 l 1,16,-1
 324 0 l 1,17,-1
 330 40 l 1,18,19
 379 47 379 47 396 65 c 1,0,-1
321 511 m 1,20,-1
 198 271 l 1,21,-1
 361 271 l 1,22,-1
 321 511 l 1,20,-1
357 850 m 2,23,24
 385 877 385 877 415 877 c 128,-1,25
 445 877 445 877 465 850 c 2,26,-1
 543 743 l 1,27,-1
 508 706 l 1,28,-1
 400 779 l 1,29,-1
 268 706 l 1,30,-1
 245 743 l 1,31,-1
 357 850 l 2,23,24
EndSplineSet
EndChar

StartChar: Atilde
Encoding: 195 195 133
Width: 614
GlyphClass: 2
Flags: W
LayerCount: 2
Fore
SplineSet
396 65 m 1,0,-1
 372 208 l 1,1,-1
 166 208 l 1,2,-1
 96 70 l 1,3,4
 121 47 121 47 176 40 c 1,5,-1
 171 0 l 1,6,-1
 -55 0 l 1,7,-1
 -50 40 l 1,8,9
 -3 44 -3 44 16 65 c 1,10,-1
 325 667 l 1,11,-1
 429 667 l 1,12,-1
 550 74 l 1,13,14
 561 47 561 47 604 40 c 1,15,-1
 600 0 l 1,16,-1
 324 0 l 1,17,-1
 330 40 l 1,18,19
 379 47 379 47 396 65 c 1,0,-1
321 511 m 1,20,-1
 198 271 l 1,21,-1
 361 271 l 1,22,-1
 321 511 l 1,20,-1
399.5 834 m 128,-1,24
 437 814 437 814 462 814 c 128,-1,25
 487 814 487 814 521 853 c 1,26,27
 554 841 554 841 569 822 c 1,28,29
 511 727 511 727 445 727 c 0,30,31
 425 727 425 727 387 746.5 c 128,-1,32
 349 766 349 766 329 766 c 0,33,34
 298 766 298 766 265 728 c 1,35,36
 232 740 232 740 217 760 c 1,37,38
 276 854 276 854 342 854 c 0,39,23
 362 854 362 854 399.5 834 c 128,-1,24
EndSplineSet
EndChar

StartChar: Adieresis
Encoding: 196 196 134
Width: 614
GlyphClass: 2
Flags: W
LayerCount: 2
Fore
SplineSet
396 65 m 1,0,-1
 372 208 l 1,1,-1
 166 208 l 1,2,-1
 96 70 l 1,3,4
 121 47 121 47 176 40 c 1,5,-1
 171 0 l 1,6,-1
 -55 0 l 1,7,-1
 -50 40 l 1,8,9
 -3 44 -3 44 16 65 c 1,10,-1
 325 667 l 1,11,-1
 429 667 l 1,12,-1
 550 74 l 1,13,14
 561 47 561 47 604 40 c 1,15,-1
 600 0 l 1,16,-1
 324 0 l 1,17,-1
 330 40 l 1,18,19
 379 47 379 47 396 65 c 1,0,-1
321 511 m 1,20,-1
 198 271 l 1,21,-1
 361 271 l 1,22,-1
 321 511 l 1,20,-1
362.5 750.5 m 128,-1,24
 343 729 343 729 313.5 729 c 128,-1,25
 284 729 284 729 269 743.5 c 128,-1,26
 254 758 254 758 254 789 c 128,-1,27
 254 820 254 820 273.5 841 c 128,-1,28
 293 862 293 862 322.5 862 c 128,-1,29
 352 862 352 862 367 847.5 c 128,-1,30
 382 833 382 833 382 802.5 c 128,-1,23
 382 772 382 772 362.5 750.5 c 128,-1,24
525.5 750.5 m 128,-1,32
 506 729 506 729 476.5 729 c 128,-1,33
 447 729 447 729 432 743.5 c 128,-1,34
 417 758 417 758 417 789 c 128,-1,35
 417 820 417 820 436.5 841 c 128,-1,36
 456 862 456 862 485.5 862 c 128,-1,37
 515 862 515 862 530 847.5 c 128,-1,38
 545 833 545 833 545 802.5 c 128,-1,31
 545 772 545 772 525.5 750.5 c 128,-1,32
EndSplineSet
EndChar

StartChar: Aring
Encoding: 197 197 135
Width: 614
GlyphClass: 2
Flags: W
LayerCount: 2
Fore
SplineSet
396 65 m 1,0,-1
 372 208 l 1,1,-1
 166 208 l 1,2,-1
 96 70 l 1,3,4
 121 47 121 47 176 40 c 1,5,-1
 171 0 l 1,6,-1
 -55 0 l 1,7,-1
 -50 40 l 1,8,9
 -3 44 -3 44 16 65 c 1,10,-1
 325 667 l 1,11,-1
 429 667 l 1,12,-1
 550 74 l 1,13,14
 561 47 561 47 604 40 c 1,15,-1
 600 0 l 1,16,-1
 324 0 l 1,17,-1
 330 40 l 1,18,19
 379 47 379 47 396 65 c 1,0,-1
321 511 m 1,20,-1
 198 271 l 1,21,-1
 361 271 l 1,22,-1
 321 511 l 1,20,-1
315 728.5 m 128,-1,24
 289 753 289 753 289 796.5 c 128,-1,25
 289 840 289 840 325.5 874.5 c 128,-1,26
 362 909 362 909 413 909 c 128,-1,27
 464 909 464 909 490 884 c 128,-1,28
 516 859 516 859 516 815 c 128,-1,29
 516 771 516 771 479 737.5 c 128,-1,30
 442 704 442 704 391.5 704 c 128,-1,23
 341 704 341 704 315 728.5 c 128,-1,24
361 792 m 0,31,32
 361 751 361 751 393 751 c 0,33,34
 418 751 418 751 431 770.5 c 128,-1,35
 444 790 444 790 444 819 c 0,36,37
 444 862 444 862 411 862 c 0,38,39
 386 862 386 862 373.5 841.5 c 128,-1,40
 361 821 361 821 361 792 c 0,31,32
EndSplineSet
EndChar

StartChar: AE
Encoding: 198 198 136
Width: 844
GlyphClass: 2
Flags: W
LayerCount: 2
Fore
SplineSet
838 502 m 1,0,1
 820 495 820 495 800 495 c 128,-1,2
 780 495 780 495 763 499 c 1,3,4
 759 569 759 569 737 606 c 1,5,-1
 599 606 l 1,6,-1
 561 369 l 1,7,-1
 626 376 l 2,8,9
 644 378 644 378 662 395.5 c 128,-1,10
 680 413 680 413 692 443 c 1,11,-1
 744 443 l 1,12,-1
 711 236 l 1,13,-1
 659 236 l 1,14,15
 652 276 652 276 642 292 c 128,-1,16
 632 308 632 308 614 310 c 2,17,-1
 553 318 l 1,18,-1
 513 62 l 1,19,-1
 658 62 l 1,20,21
 696 108 696 108 725 189 c 1,22,23
 746 192 746 192 764 192 c 128,-1,24
 782 192 782 192 799 189 c 1,25,-1
 759 0 l 1,26,-1
 295 0 l 1,27,-1
 305 41 l 1,28,29
 347 47 347 47 366 66 c 1,30,-1
 389 208 l 1,31,-1
 207 208 l 1,32,-1
 118 68 l 1,33,34
 140 47 140 47 195 40 c 1,35,-1
 184 0 l 1,36,-1
 -49 0 l 1,37,-1
 -37 40 l 1,38,39
 15 42 15 42 32 71 c 1,40,-1
 418 667 l 1,41,-1
 860 667 l 1,42,-1
 838 502 l 1,0,1
453 596 m 1,43,-1
 247 271 l 1,44,-1
 399 271 l 1,45,-1
 453 596 l 1,43,-1
EndSplineSet
EndChar

StartChar: Ccedilla
Encoding: 199 199 137
Width: 552
GlyphClass: 2
Flags: W
LayerCount: 2
Fore
SplineSet
289 -10 m 0,0,1
 345 -10 345 -10 407 19 c 128,-1,2
 469 48 469 48 525 101 c 1,3,-1
 497 133 l 1,4,5
 414 58 414 58 333 58 c 0,6,7
 212 58 212 58 212 246 c 0,8,9
 212 382 212 382 249 494 c 0,10,11
 268 551 268 551 303 586 c 128,-1,12
 338 621 338 621 384 621 c 0,13,14
 412 621 412 621 427.5 606 c 128,-1,15
 443 591 443 591 443 563 c 128,-1,16
 443 535 443 535 418 502 c 1,17,18
 424 482 424 482 443.5 469 c 128,-1,19
 463 456 463 456 494 456 c 128,-1,20
 525 456 525 456 553.5 485.5 c 128,-1,21
 582 515 582 515 582 555 c 0,22,23
 582 608 582 608 531.5 641 c 128,-1,24
 481 674 481 674 397 674 c 0,25,26
 226 674 226 674 136.5 561.5 c 128,-1,27
 47 449 47 449 47 249 c 0,28,29
 47 123 47 123 108.5 56.5 c 128,-1,30
 170 -10 170 -10 289 -10 c 0,0,1
295 -39 m 1,31,32
 353 -57 353 -57 353 -103 c 128,-1,33
 353 -149 353 -149 317 -179.5 c 128,-1,34
 281 -210 281 -210 232.5 -210 c 128,-1,35
 184 -210 184 -210 161 -188.5 c 128,-1,36
 138 -167 138 -167 138 -142 c 128,-1,37
 138 -117 138 -117 153 -102 c 128,-1,38
 168 -87 168 -87 186.5 -87 c 128,-1,39
 205 -87 205 -87 222 -96 c 1,40,41
 207 -111 207 -111 207 -129 c 128,-1,42
 207 -147 207 -147 214 -157.5 c 128,-1,43
 221 -168 221 -168 237 -168 c 128,-1,44
 253 -168 253 -168 265 -154 c 128,-1,45
 277 -140 277 -140 277 -117 c 0,46,47
 277 -78 277 -78 225 -73 c 1,48,-1
 208 -49 l 1,49,-1
 273 16 l 1,50,-1
 310 7 l 1,51,-1
 295 -39 l 1,31,32
EndSplineSet
EndChar

StartChar: Egrave
Encoding: 200 200 138
Width: 562
GlyphClass: 2
Flags: W
LayerCount: 2
Fore
SplineSet
553 503 m 1,0,1
 528 496 528 496 511.5 496 c 128,-1,2
 495 496 495 496 485 499 c 1,3,4
 483 567 483 567 463 606 c 1,5,-1
 294 606 l 1,6,-1
 256 372 l 1,7,-1
 347 376 l 2,8,9
 365 377 365 377 383 395.5 c 128,-1,10
 401 414 401 414 413 443 c 1,11,-1
 455 443 l 1,12,-1
 422 236 l 1,13,-1
 380 236 l 1,14,15
 373 276 373 276 362.5 292.5 c 128,-1,16
 352 309 352 309 335 310 c 2,17,-1
 247 314 l 1,18,-1
 207 62 l 1,19,-1
 394 62 l 1,20,21
 430 107 430 107 457 184 c 1,22,23
 481 191 481 191 497.5 191 c 128,-1,24
 514 191 514 191 525 188 c 1,25,-1
 485 0 l 1,26,-1
 -15 0 l 1,27,-1
 -10 41 l 1,28,29
 31 47 31 47 62 71 c 1,30,-1
 145 596 l 1,31,32
 127 619 127 619 79 626 c 1,33,-1
 85 667 l 1,34,-1
 575 667 l 1,35,-1
 553 503 l 1,0,1
258 782 m 2,36,37
 234 801 234 801 234 828 c 128,-1,38
 234 855 234 855 249.5 870 c 128,-1,39
 265 885 265 885 288 885 c 0,40,41
 322 885 322 885 340 851 c 2,42,-1
 401 732 l 1,43,-1
 362 699 l 1,44,-1
 258 782 l 2,36,37
EndSplineSet
EndChar

StartChar: Eacute
Encoding: 201 201 139
Width: 562
GlyphClass: 2
Flags: W
LayerCount: 2
Fore
SplineSet
553 503 m 1,0,1
 528 496 528 496 511.5 496 c 128,-1,2
 495 496 495 496 485 499 c 1,3,4
 483 567 483 567 463 606 c 1,5,-1
 294 606 l 1,6,-1
 256 372 l 1,7,-1
 347 376 l 2,8,9
 365 377 365 377 383 395.5 c 128,-1,10
 401 414 401 414 413 443 c 1,11,-1
 455 443 l 1,12,-1
 422 236 l 1,13,-1
 380 236 l 1,14,15
 373 276 373 276 362.5 292.5 c 128,-1,16
 352 309 352 309 335 310 c 2,17,-1
 247 314 l 1,18,-1
 207 62 l 1,19,-1
 394 62 l 1,20,21
 430 107 430 107 457 184 c 1,22,23
 481 191 481 191 497.5 191 c 128,-1,24
 514 191 514 191 525 188 c 1,25,-1
 485 0 l 1,26,-1
 -15 0 l 1,27,-1
 -10 41 l 1,28,29
 31 47 31 47 62 71 c 1,30,-1
 145 596 l 1,31,32
 127 619 127 619 79 626 c 1,33,-1
 85 667 l 1,34,-1
 575 667 l 1,35,-1
 553 503 l 1,0,1
401 864 m 2,36,37
 427 896 427 896 451.5 896 c 128,-1,38
 476 896 476 896 489.5 882.5 c 128,-1,39
 503 869 503 869 503 850 c 0,40,41
 503 819 503 819 468 797 c 2,42,-1
 337 713 l 1,43,-1
 307 747 l 1,44,-1
 401 864 l 2,36,37
EndSplineSet
EndChar

StartChar: Ecircumflex
Encoding: 202 202 140
Width: 562
GlyphClass: 2
Flags: W
LayerCount: 2
Fore
SplineSet
553 503 m 1,0,1
 528 496 528 496 511.5 496 c 128,-1,2
 495 496 495 496 485 499 c 1,3,4
 483 567 483 567 463 606 c 1,5,-1
 294 606 l 1,6,-1
 256 372 l 1,7,-1
 347 376 l 2,8,9
 365 377 365 377 383 395.5 c 128,-1,10
 401 414 401 414 413 443 c 1,11,-1
 455 443 l 1,12,-1
 422 236 l 1,13,-1
 380 236 l 1,14,15
 373 276 373 276 362.5 292.5 c 128,-1,16
 352 309 352 309 335 310 c 2,17,-1
 247 314 l 1,18,-1
 207 62 l 1,19,-1
 394 62 l 1,20,21
 430 107 430 107 457 184 c 1,22,23
 481 191 481 191 497.5 191 c 128,-1,24
 514 191 514 191 525 188 c 1,25,-1
 485 0 l 1,26,-1
 -15 0 l 1,27,-1
 -10 41 l 1,28,29
 31 47 31 47 62 71 c 1,30,-1
 145 596 l 1,31,32
 127 619 127 619 79 626 c 1,33,-1
 85 667 l 1,34,-1
 575 667 l 1,35,-1
 553 503 l 1,0,1
325 850 m 2,36,37
 353 877 353 877 383 877 c 128,-1,38
 413 877 413 877 433 850 c 2,39,-1
 511 743 l 1,40,-1
 476 706 l 1,41,-1
 368 779 l 1,42,-1
 236 706 l 1,43,-1
 213 743 l 1,44,-1
 325 850 l 2,36,37
EndSplineSet
EndChar

StartChar: Edieresis
Encoding: 203 203 141
Width: 562
GlyphClass: 2
Flags: W
LayerCount: 2
Fore
SplineSet
553 503 m 1,0,1
 528 496 528 496 511.5 496 c 128,-1,2
 495 496 495 496 485 499 c 1,3,4
 483 567 483 567 463 606 c 1,5,-1
 294 606 l 1,6,-1
 256 372 l 1,7,-1
 347 376 l 2,8,9
 365 377 365 377 383 395.5 c 128,-1,10
 401 414 401 414 413 443 c 1,11,-1
 455 443 l 1,12,-1
 422 236 l 1,13,-1
 380 236 l 1,14,15
 373 276 373 276 362.5 292.5 c 128,-1,16
 352 309 352 309 335 310 c 2,17,-1
 247 314 l 1,18,-1
 207 62 l 1,19,-1
 394 62 l 1,20,21
 430 107 430 107 457 184 c 1,22,23
 481 191 481 191 497.5 191 c 128,-1,24
 514 191 514 191 525 188 c 1,25,-1
 485 0 l 1,26,-1
 -15 0 l 1,27,-1
 -10 41 l 1,28,29
 31 47 31 47 62 71 c 1,30,-1
 145 596 l 1,31,32
 127 619 127 619 79 626 c 1,33,-1
 85 667 l 1,34,-1
 575 667 l 1,35,-1
 553 503 l 1,0,1
332.5 750.5 m 128,-1,37
 313 729 313 729 283.5 729 c 128,-1,38
 254 729 254 729 239 743.5 c 128,-1,39
 224 758 224 758 224 789 c 128,-1,40
 224 820 224 820 243.5 841 c 128,-1,41
 263 862 263 862 292.5 862 c 128,-1,42
 322 862 322 862 337 847.5 c 128,-1,43
 352 833 352 833 352 802.5 c 128,-1,36
 352 772 352 772 332.5 750.5 c 128,-1,37
495.5 750.5 m 128,-1,45
 476 729 476 729 446.5 729 c 128,-1,46
 417 729 417 729 402 743.5 c 128,-1,47
 387 758 387 758 387 789 c 128,-1,48
 387 820 387 820 406.5 841 c 128,-1,49
 426 862 426 862 455.5 862 c 128,-1,50
 485 862 485 862 500 847.5 c 128,-1,51
 515 833 515 833 515 802.5 c 128,-1,44
 515 772 515 772 495.5 750.5 c 128,-1,45
EndSplineSet
EndChar

StartChar: Igrave
Encoding: 204 204 142
Width: 341
GlyphClass: 2
Flags: W
LayerCount: 2
Fore
SplineSet
89 626 m 1,0,-1
 95 667 l 1,1,-1
 381 667 l 1,2,-1
 375 626 l 1,3,4
 332 618 332 618 302 596 c 1,5,-1
 219 71 l 1,6,7
 237 52 237 52 286 41 c 1,8,-1
 281 0 l 1,9,-1
 -5 0 l 1,10,-1
 0 41 l 1,11,12
 41 47 41 47 72 71 c 1,13,-1
 155 596 l 1,14,15
 137 619 137 619 89 626 c 1,0,-1
147 782 m 2,16,17
 123 801 123 801 123 828 c 128,-1,18
 123 855 123 855 138.5 870 c 128,-1,19
 154 885 154 885 177 885 c 0,20,21
 211 885 211 885 229 851 c 2,22,-1
 290 732 l 1,23,-1
 251 699 l 1,24,-1
 147 782 l 2,16,17
EndSplineSet
EndChar

StartChar: Iacute
Encoding: 205 205 143
Width: 341
GlyphClass: 2
Flags: W
LayerCount: 2
Fore
SplineSet
89 626 m 1,0,-1
 95 667 l 1,1,-1
 381 667 l 1,2,-1
 375 626 l 1,3,4
 332 618 332 618 302 596 c 1,5,-1
 219 71 l 1,6,7
 237 52 237 52 286 41 c 1,8,-1
 281 0 l 1,9,-1
 -5 0 l 1,10,-1
 0 41 l 1,11,12
 41 47 41 47 72 71 c 1,13,-1
 155 596 l 1,14,15
 137 619 137 619 89 626 c 1,0,-1
290 864 m 2,16,17
 316 896 316 896 340.5 896 c 128,-1,18
 365 896 365 896 378.5 882.5 c 128,-1,19
 392 869 392 869 392 850 c 0,20,21
 392 819 392 819 357 797 c 2,22,-1
 226 713 l 1,23,-1
 196 747 l 1,24,-1
 290 864 l 2,16,17
EndSplineSet
EndChar

StartChar: Icircumflex
Encoding: 206 206 144
Width: 341
GlyphClass: 2
Flags: W
LayerCount: 2
Fore
SplineSet
89 626 m 1,0,-1
 95 667 l 1,1,-1
 381 667 l 1,2,-1
 375 626 l 1,3,4
 332 618 332 618 302 596 c 1,5,-1
 219 71 l 1,6,7
 237 52 237 52 286 41 c 1,8,-1
 281 0 l 1,9,-1
 -5 0 l 1,10,-1
 0 41 l 1,11,12
 41 47 41 47 72 71 c 1,13,-1
 155 596 l 1,14,15
 137 619 137 619 89 626 c 1,0,-1
214 850 m 2,16,17
 242 877 242 877 272 877 c 128,-1,18
 302 877 302 877 322 850 c 2,19,-1
 400 743 l 1,20,-1
 365 706 l 1,21,-1
 257 779 l 1,22,-1
 125 706 l 1,23,-1
 102 743 l 1,24,-1
 214 850 l 2,16,17
EndSplineSet
EndChar

StartChar: Idieresis
Encoding: 207 207 145
Width: 341
GlyphClass: 2
Flags: W
LayerCount: 2
Fore
SplineSet
89 626 m 1,0,-1
 95 667 l 1,1,-1
 381 667 l 1,2,-1
 375 626 l 1,3,4
 332 618 332 618 302 596 c 1,5,-1
 219 71 l 1,6,7
 237 52 237 52 286 41 c 1,8,-1
 281 0 l 1,9,-1
 -5 0 l 1,10,-1
 0 41 l 1,11,12
 41 47 41 47 72 71 c 1,13,-1
 155 596 l 1,14,15
 137 619 137 619 89 626 c 1,0,-1
221.5 750.5 m 128,-1,17
 202 729 202 729 172.5 729 c 128,-1,18
 143 729 143 729 128 743.5 c 128,-1,19
 113 758 113 758 113 789 c 128,-1,20
 113 820 113 820 132.5 841 c 128,-1,21
 152 862 152 862 181.5 862 c 128,-1,22
 211 862 211 862 226 847.5 c 128,-1,23
 241 833 241 833 241 802.5 c 128,-1,16
 241 772 241 772 221.5 750.5 c 128,-1,17
384.5 750.5 m 128,-1,25
 365 729 365 729 335.5 729 c 128,-1,26
 306 729 306 729 291 743.5 c 128,-1,27
 276 758 276 758 276 789 c 128,-1,28
 276 820 276 820 295.5 841 c 128,-1,29
 315 862 315 862 344.5 862 c 128,-1,30
 374 862 374 862 389 847.5 c 128,-1,31
 404 833 404 833 404 802.5 c 128,-1,24
 404 772 404 772 384.5 750.5 c 128,-1,25
EndSplineSet
EndChar

StartChar: Eth
Encoding: 208 208 146
Width: 679
GlyphClass: 2
Flags: W
LayerCount: 2
Fore
SplineSet
44 292 m 1,0,-1
 55 362 l 1,1,-1
 408 362 l 1,2,-1
 397 292 l 1,3,-1
 44 292 l 1,0,-1
304 667 m 2,4,5
 558 667 558 667 624 534 c 1,6,7
 650 484 650 484 650 407 c 128,-1,8
 650 330 650 330 628.5 259.5 c 128,-1,9
 607 189 607 189 559.5 129 c 128,-1,10
 512 69 512 69 425.5 34.5 c 128,-1,11
 339 0 339 0 220 0 c 2,12,-1
 -5 0 l 1,13,-1
 0 41 l 1,14,15
 39 47 39 47 71 70 c 1,16,-1
 155 596 l 1,17,18
 137 619 137 619 89 626 c 1,19,-1
 95 667 l 1,20,-1
 304 667 l 2,4,5
224 99 m 0,21,22
 224 63 224 63 260 63 c 0,23,24
 317 63 317 63 360.5 89 c 128,-1,25
 404 115 404 115 428.5 153.5 c 128,-1,26
 453 192 453 192 468 244 c 0,27,28
 494 330 494 330 494 429 c 0,29,30
 494 605 494 605 331 605 c 2,31,-1
 304 605 l 1,32,-1
 226 117 l 2,33,34
 224 103 224 103 224 99 c 0,21,22
EndSplineSet
EndChar

StartChar: Ntilde
Encoding: 209 209 147
Width: 662
GlyphClass: 2
Flags: W
LayerCount: 2
Fore
SplineSet
85 626 m 1,0,-1
 91 667 l 1,1,-1
 303 667 l 1,2,-1
 482 183 l 1,3,-1
 547 596 l 1,4,5
 529 619 529 619 481 626 c 1,6,-1
 487 667 l 1,7,-1
 713 667 l 1,8,-1
 707 626 l 1,9,10
 664 618 664 618 634 596 c 1,11,-1
 540 0 l 1,12,-1
 388 0 l 1,13,-1
 217 460 l 1,14,-1
 155 71 l 1,15,16
 173 52 173 52 222 41 c 1,17,-1
 217 0 l 1,18,-1
 -9 0 l 1,19,-1
 -4 41 l 1,20,21
 37 47 37 47 68 71 c 1,22,-1
 151 596 l 1,23,24
 133 619 133 619 85 626 c 1,0,-1
414.5 834 m 128,-1,26
 452 814 452 814 477 814 c 128,-1,27
 502 814 502 814 536 853 c 1,28,29
 569 841 569 841 584 822 c 1,30,31
 526 727 526 727 460 727 c 0,32,33
 440 727 440 727 402 746.5 c 128,-1,34
 364 766 364 766 344 766 c 0,35,36
 313 766 313 766 280 728 c 1,37,38
 247 740 247 740 232 760 c 1,39,40
 291 854 291 854 357 854 c 0,41,25
 377 854 377 854 414.5 834 c 128,-1,26
EndSplineSet
EndChar

StartChar: Ograve
Encoding: 210 210 148
Width: 675
GlyphClass: 2
Flags: W
LayerCount: 2
Fore
SplineSet
219.5 339.5 m 128,-1,1
 208 274 208 274 208 227.5 c 128,-1,2
 208 181 208 181 211.5 154.5 c 128,-1,3
 215 128 215 128 224 102 c 0,4,5
 244 50 244 50 309 50 c 0,6,7
 356 50 356 50 394.5 93 c 128,-1,8
 433 136 433 136 455 200 c 0,9,10
 500 332 500 332 500 450 c 0,11,12
 500 578 500 578 452 607 c 0,13,14
 431 620 431 620 399 620 c 0,15,16
 352 620 352 620 313.5 577 c 128,-1,17
 275 534 275 534 253 469.5 c 128,-1,0
 231 405 231 405 219.5 339.5 c 128,-1,1
48 257 m 0,18,19
 48 455 48 455 140.5 566.5 c 128,-1,20
 233 678 233 678 409 678 c 0,21,22
 535 678 535 678 598 610.5 c 128,-1,23
 661 543 661 543 661 413 c 0,24,25
 661 215 661 215 569.5 102.5 c 128,-1,26
 478 -10 478 -10 300 -10 c 0,27,28
 175 -10 175 -10 111.5 58.5 c 128,-1,29
 48 127 48 127 48 257 c 0,18,19
322 782 m 2,30,31
 298 801 298 801 298 828 c 128,-1,32
 298 855 298 855 313.5 870 c 128,-1,33
 329 885 329 885 352 885 c 0,34,35
 386 885 386 885 404 851 c 2,36,-1
 465 732 l 1,37,-1
 426 699 l 1,38,-1
 322 782 l 2,30,31
EndSplineSet
EndChar

StartChar: Oacute
Encoding: 211 211 149
Width: 675
GlyphClass: 2
Flags: W
LayerCount: 2
Fore
SplineSet
219.5 339.5 m 128,-1,1
 208 274 208 274 208 227.5 c 128,-1,2
 208 181 208 181 211.5 154.5 c 128,-1,3
 215 128 215 128 224 102 c 0,4,5
 244 50 244 50 309 50 c 0,6,7
 356 50 356 50 394.5 93 c 128,-1,8
 433 136 433 136 455 200 c 0,9,10
 500 332 500 332 500 450 c 0,11,12
 500 578 500 578 452 607 c 0,13,14
 431 620 431 620 399 620 c 0,15,16
 352 620 352 620 313.5 577 c 128,-1,17
 275 534 275 534 253 469.5 c 128,-1,0
 231 405 231 405 219.5 339.5 c 128,-1,1
48 257 m 0,18,19
 48 455 48 455 140.5 566.5 c 128,-1,20
 233 678 233 678 409 678 c 0,21,22
 535 678 535 678 598 610.5 c 128,-1,23
 661 543 661 543 661 413 c 0,24,25
 661 215 661 215 569.5 102.5 c 128,-1,26
 478 -10 478 -10 300 -10 c 0,27,28
 175 -10 175 -10 111.5 58.5 c 128,-1,29
 48 127 48 127 48 257 c 0,18,19
465 864 m 2,30,31
 491 896 491 896 515.5 896 c 128,-1,32
 540 896 540 896 553.5 882.5 c 128,-1,33
 567 869 567 869 567 850 c 0,34,35
 567 819 567 819 532 797 c 2,36,-1
 401 713 l 1,37,-1
 371 747 l 1,38,-1
 465 864 l 2,30,31
EndSplineSet
EndChar

StartChar: Ocircumflex
Encoding: 212 212 150
Width: 675
GlyphClass: 2
Flags: W
LayerCount: 2
Fore
SplineSet
219.5 339.5 m 128,-1,1
 208 274 208 274 208 227.5 c 128,-1,2
 208 181 208 181 211.5 154.5 c 128,-1,3
 215 128 215 128 224 102 c 0,4,5
 244 50 244 50 309 50 c 0,6,7
 356 50 356 50 394.5 93 c 128,-1,8
 433 136 433 136 455 200 c 0,9,10
 500 332 500 332 500 450 c 0,11,12
 500 578 500 578 452 607 c 0,13,14
 431 620 431 620 399 620 c 0,15,16
 352 620 352 620 313.5 577 c 128,-1,17
 275 534 275 534 253 469.5 c 128,-1,0
 231 405 231 405 219.5 339.5 c 128,-1,1
48 257 m 0,18,19
 48 455 48 455 140.5 566.5 c 128,-1,20
 233 678 233 678 409 678 c 0,21,22
 535 678 535 678 598 610.5 c 128,-1,23
 661 543 661 543 661 413 c 0,24,25
 661 215 661 215 569.5 102.5 c 128,-1,26
 478 -10 478 -10 300 -10 c 0,27,28
 175 -10 175 -10 111.5 58.5 c 128,-1,29
 48 127 48 127 48 257 c 0,18,19
389 850 m 2,30,31
 417 877 417 877 447 877 c 128,-1,32
 477 877 477 877 497 850 c 2,33,-1
 575 743 l 1,34,-1
 540 706 l 1,35,-1
 432 779 l 1,36,-1
 300 706 l 1,37,-1
 277 743 l 1,38,-1
 389 850 l 2,30,31
EndSplineSet
EndChar

StartChar: Otilde
Encoding: 213 213 151
Width: 675
GlyphClass: 2
Flags: W
LayerCount: 2
Fore
SplineSet
219.5 339.5 m 128,-1,1
 208 274 208 274 208 227.5 c 128,-1,2
 208 181 208 181 211.5 154.5 c 128,-1,3
 215 128 215 128 224 102 c 0,4,5
 244 50 244 50 309 50 c 0,6,7
 356 50 356 50 394.5 93 c 128,-1,8
 433 136 433 136 455 200 c 0,9,10
 500 332 500 332 500 450 c 0,11,12
 500 578 500 578 452 607 c 0,13,14
 431 620 431 620 399 620 c 0,15,16
 352 620 352 620 313.5 577 c 128,-1,17
 275 534 275 534 253 469.5 c 128,-1,0
 231 405 231 405 219.5 339.5 c 128,-1,1
48 257 m 0,18,19
 48 455 48 455 140.5 566.5 c 128,-1,20
 233 678 233 678 409 678 c 0,21,22
 535 678 535 678 598 610.5 c 128,-1,23
 661 543 661 543 661 413 c 0,24,25
 661 215 661 215 569.5 102.5 c 128,-1,26
 478 -10 478 -10 300 -10 c 0,27,28
 175 -10 175 -10 111.5 58.5 c 128,-1,29
 48 127 48 127 48 257 c 0,18,19
431.5 834 m 128,-1,31
 469 814 469 814 494 814 c 128,-1,32
 519 814 519 814 553 853 c 1,33,34
 586 841 586 841 601 822 c 1,35,36
 543 727 543 727 477 727 c 0,37,38
 457 727 457 727 419 746.5 c 128,-1,39
 381 766 381 766 361 766 c 0,40,41
 330 766 330 766 297 728 c 1,42,43
 264 740 264 740 249 760 c 1,44,45
 308 854 308 854 374 854 c 0,46,30
 394 854 394 854 431.5 834 c 128,-1,31
EndSplineSet
EndChar

StartChar: Odieresis
Encoding: 214 214 152
Width: 675
GlyphClass: 2
Flags: W
LayerCount: 2
Fore
SplineSet
219.5 339.5 m 128,-1,1
 208 274 208 274 208 227.5 c 128,-1,2
 208 181 208 181 211.5 154.5 c 128,-1,3
 215 128 215 128 224 102 c 0,4,5
 244 50 244 50 309 50 c 0,6,7
 356 50 356 50 394.5 93 c 128,-1,8
 433 136 433 136 455 200 c 0,9,10
 500 332 500 332 500 450 c 0,11,12
 500 578 500 578 452 607 c 0,13,14
 431 620 431 620 399 620 c 0,15,16
 352 620 352 620 313.5 577 c 128,-1,17
 275 534 275 534 253 469.5 c 128,-1,0
 231 405 231 405 219.5 339.5 c 128,-1,1
48 257 m 0,18,19
 48 455 48 455 140.5 566.5 c 128,-1,20
 233 678 233 678 409 678 c 0,21,22
 535 678 535 678 598 610.5 c 128,-1,23
 661 543 661 543 661 413 c 0,24,25
 661 215 661 215 569.5 102.5 c 128,-1,26
 478 -10 478 -10 300 -10 c 0,27,28
 175 -10 175 -10 111.5 58.5 c 128,-1,29
 48 127 48 127 48 257 c 0,18,19
396.5 750.5 m 128,-1,31
 377 729 377 729 347.5 729 c 128,-1,32
 318 729 318 729 303 743.5 c 128,-1,33
 288 758 288 758 288 789 c 128,-1,34
 288 820 288 820 307.5 841 c 128,-1,35
 327 862 327 862 356.5 862 c 128,-1,36
 386 862 386 862 401 847.5 c 128,-1,37
 416 833 416 833 416 802.5 c 128,-1,30
 416 772 416 772 396.5 750.5 c 128,-1,31
559.5 750.5 m 128,-1,39
 540 729 540 729 510.5 729 c 128,-1,40
 481 729 481 729 466 743.5 c 128,-1,41
 451 758 451 758 451 789 c 128,-1,42
 451 820 451 820 470.5 841 c 128,-1,43
 490 862 490 862 519.5 862 c 128,-1,44
 549 862 549 862 564 847.5 c 128,-1,45
 579 833 579 833 579 802.5 c 128,-1,38
 579 772 579 772 559.5 750.5 c 128,-1,39
EndSplineSet
EndChar

StartChar: multiply
Encoding: 215 215 153
Width: 573
GlyphClass: 2
Flags: W
LayerCount: 2
Fore
SplineSet
97 444 m 1,0,-1
 173 508 l 1,1,-1
 296 361 l 1,2,-1
 464 508 l 1,3,-1
 527 436 l 1,4,-1
 357 288 l 1,5,-1
 484 137 l 1,6,-1
 410 71 l 1,7,-1
 282 223 l 1,8,-1
 108 71 l 1,9,-1
 45 143 l 1,10,-1
 221 296 l 1,11,-1
 97 444 l 1,0,-1
EndSplineSet
EndChar

StartChar: Oslash
Encoding: 216 216 154
Width: 675
GlyphClass: 2
Flags: W
LayerCount: 2
Fore
SplineSet
41 257 m 0,0,1
 41 455 41 455 133.5 566.5 c 128,-1,2
 226 678 226 678 402 678 c 0,3,4
 502 678 502 678 564 633 c 1,5,-1
 624 700 l 1,6,-1
 684 646 l 1,7,-1
 618 573 l 1,8,9
 654 510 654 510 654 413 c 0,10,11
 654 215 654 215 562.5 102.5 c 128,-1,12
 471 -10 471 -10 293 -10 c 0,13,14
 191 -10 191 -10 131 35 c 1,15,-1
 62 -41 l 1,16,-1
 2 13 l 1,17,-1
 77 96 l 1,18,19
 41 159 41 159 41 257 c 0,0,1
392 620 m 0,20,21
 347 620 347 620 310 579 c 128,-1,22
 273 538 273 538 250 476 c 0,23,24
 205 352 205 352 201 233 c 1,25,-1
 483 544 l 1,26,27
 463 620 463 620 392 620 c 0,20,21
302 50 m 0,28,29
 346 50 346 50 383.5 90.5 c 128,-1,30
 421 131 421 131 443 192 c 0,31,32
 489 321 489 321 493 434 c 1,33,-1
 211 123 l 1,34,35
 231 50 231 50 302 50 c 0,28,29
EndSplineSet
EndChar

StartChar: Ugrave
Encoding: 217 217 155
Width: 654
GlyphClass: 2
Flags: W
LayerCount: 2
Fore
SplineSet
308 -7 m 0,0,1
 72 -7 72 -7 72 161 c 0,2,3
 72 200 72 200 99 353 c 1,4,-1
 136 596 l 1,5,6
 118 619 118 619 70 626 c 1,7,-1
 76 667 l 1,8,-1
 362 667 l 1,9,-1
 356 626 l 1,10,11
 313 618 313 618 283 596 c 1,12,-1
 236 299 l 1,13,14
 220 187 220 187 220 168 c 0,15,16
 220 60 220 60 340 60 c 0,17,18
 463 60 463 60 490 223 c 1,19,-1
 547 596 l 1,20,21
 529 619 529 619 481 626 c 1,22,-1
 487 667 l 1,23,-1
 716 667 l 1,24,-1
 710 626 l 1,25,26
 667 618 667 618 637 596 c 1,27,-1
 583 245 l 2,28,29
 563 117 563 117 500.5 55 c 128,-1,30
 438 -7 438 -7 308 -7 c 0,0,1
321 782 m 2,31,32
 297 801 297 801 297 828 c 128,-1,33
 297 855 297 855 312.5 870 c 128,-1,34
 328 885 328 885 351 885 c 0,35,36
 385 885 385 885 403 851 c 2,37,-1
 464 732 l 1,38,-1
 425 699 l 1,39,-1
 321 782 l 2,31,32
EndSplineSet
EndChar

StartChar: Uacute
Encoding: 218 218 156
Width: 654
GlyphClass: 2
Flags: W
LayerCount: 2
Fore
SplineSet
308 -7 m 0,0,1
 72 -7 72 -7 72 161 c 0,2,3
 72 200 72 200 99 353 c 1,4,-1
 136 596 l 1,5,6
 118 619 118 619 70 626 c 1,7,-1
 76 667 l 1,8,-1
 362 667 l 1,9,-1
 356 626 l 1,10,11
 313 618 313 618 283 596 c 1,12,-1
 236 299 l 1,13,14
 220 187 220 187 220 168 c 0,15,16
 220 60 220 60 340 60 c 0,17,18
 463 60 463 60 490 223 c 1,19,-1
 547 596 l 1,20,21
 529 619 529 619 481 626 c 1,22,-1
 487 667 l 1,23,-1
 716 667 l 1,24,-1
 710 626 l 1,25,26
 667 618 667 618 637 596 c 1,27,-1
 583 245 l 2,28,29
 563 117 563 117 500.5 55 c 128,-1,30
 438 -7 438 -7 308 -7 c 0,0,1
464 864 m 2,31,32
 490 896 490 896 514.5 896 c 128,-1,33
 539 896 539 896 552.5 882.5 c 128,-1,34
 566 869 566 869 566 850 c 0,35,36
 566 819 566 819 531 797 c 2,37,-1
 400 713 l 1,38,-1
 370 747 l 1,39,-1
 464 864 l 2,31,32
EndSplineSet
EndChar

StartChar: Ucircumflex
Encoding: 219 219 157
Width: 654
GlyphClass: 2
Flags: W
LayerCount: 2
Fore
SplineSet
308 -7 m 0,0,1
 72 -7 72 -7 72 161 c 0,2,3
 72 200 72 200 99 353 c 1,4,-1
 136 596 l 1,5,6
 118 619 118 619 70 626 c 1,7,-1
 76 667 l 1,8,-1
 362 667 l 1,9,-1
 356 626 l 1,10,11
 313 618 313 618 283 596 c 1,12,-1
 236 299 l 1,13,14
 220 187 220 187 220 168 c 0,15,16
 220 60 220 60 340 60 c 0,17,18
 463 60 463 60 490 223 c 1,19,-1
 547 596 l 1,20,21
 529 619 529 619 481 626 c 1,22,-1
 487 667 l 1,23,-1
 716 667 l 1,24,-1
 710 626 l 1,25,26
 667 618 667 618 637 596 c 1,27,-1
 583 245 l 2,28,29
 563 117 563 117 500.5 55 c 128,-1,30
 438 -7 438 -7 308 -7 c 0,0,1
388 850 m 2,31,32
 416 877 416 877 446 877 c 128,-1,33
 476 877 476 877 496 850 c 2,34,-1
 574 743 l 1,35,-1
 539 706 l 1,36,-1
 431 779 l 1,37,-1
 299 706 l 1,38,-1
 276 743 l 1,39,-1
 388 850 l 2,31,32
EndSplineSet
EndChar

StartChar: Udieresis
Encoding: 220 220 158
Width: 654
GlyphClass: 2
Flags: W
LayerCount: 2
Fore
SplineSet
308 -7 m 0,0,1
 72 -7 72 -7 72 161 c 0,2,3
 72 200 72 200 99 353 c 1,4,-1
 136 596 l 1,5,6
 118 619 118 619 70 626 c 1,7,-1
 76 667 l 1,8,-1
 362 667 l 1,9,-1
 356 626 l 1,10,11
 313 618 313 618 283 596 c 1,12,-1
 236 299 l 1,13,14
 220 187 220 187 220 168 c 0,15,16
 220 60 220 60 340 60 c 0,17,18
 463 60 463 60 490 223 c 1,19,-1
 547 596 l 1,20,21
 529 619 529 619 481 626 c 1,22,-1
 487 667 l 1,23,-1
 716 667 l 1,24,-1
 710 626 l 1,25,26
 667 618 667 618 637 596 c 1,27,-1
 583 245 l 2,28,29
 563 117 563 117 500.5 55 c 128,-1,30
 438 -7 438 -7 308 -7 c 0,0,1
395.5 750.5 m 128,-1,32
 376 729 376 729 346.5 729 c 128,-1,33
 317 729 317 729 302 743.5 c 128,-1,34
 287 758 287 758 287 789 c 128,-1,35
 287 820 287 820 306.5 841 c 128,-1,36
 326 862 326 862 355.5 862 c 128,-1,37
 385 862 385 862 400 847.5 c 128,-1,38
 415 833 415 833 415 802.5 c 128,-1,31
 415 772 415 772 395.5 750.5 c 128,-1,32
558.5 750.5 m 128,-1,40
 539 729 539 729 509.5 729 c 128,-1,41
 480 729 480 729 465 743.5 c 128,-1,42
 450 758 450 758 450 789 c 128,-1,43
 450 820 450 820 469.5 841 c 128,-1,44
 489 862 489 862 518.5 862 c 128,-1,45
 548 862 548 862 563 847.5 c 128,-1,46
 578 833 578 833 578 802.5 c 128,-1,39
 578 772 578 772 558.5 750.5 c 128,-1,40
EndSplineSet
EndChar

StartChar: Yacute
Encoding: 221 221 159
Width: 577
GlyphClass: 2
Flags: W
LayerCount: 2
Fore
SplineSet
185 71 m 1,0,-1
 217 269 l 1,1,-1
 126 585 l 2,2,3
 116 617 116 617 69 627 c 1,4,-1
 73 667 l 1,5,-1
 349 667 l 1,6,-1
 343 627 l 1,7,8
 290 620 290 620 273 605 c 1,9,-1
 343 357 l 1,10,-1
 503 597 l 1,11,12
 478 620 478 620 423 627 c 1,13,-1
 428 667 l 1,14,-1
 654 667 l 1,15,-1
 649 627 l 1,16,17
 611 624 611 624 585 601 c 1,18,-1
 363 268 l 1,19,-1
 332 71 l 1,20,21
 347 54 347 54 409 41 c 1,22,-1
 404 0 l 1,23,-1
 98 0 l 1,24,-1
 103 41 l 1,25,26
 156 49 156 49 185 71 c 1,0,-1
448 864 m 2,27,28
 474 896 474 896 498.5 896 c 128,-1,29
 523 896 523 896 536.5 882.5 c 128,-1,30
 550 869 550 869 550 850 c 0,31,32
 550 819 550 819 515 797 c 2,33,-1
 384 713 l 1,34,-1
 354 747 l 1,35,-1
 448 864 l 2,27,28
EndSplineSet
EndChar

StartChar: Thorn
Encoding: 222 222 160
Width: 601
GlyphClass: 2
Flags: W
LayerCount: 2
Fore
SplineSet
302 213 m 2,0,1
 371 213 371 213 408 255.5 c 128,-1,2
 445 298 445 298 445 374 c 0,3,4
 445 423 445 423 418.5 449.5 c 128,-1,5
 392 476 392 476 342.5 476 c 128,-1,6
 293 476 293 476 268 472 c 1,7,-1
 274 537 l 1,8,-1
 366 537 l 2,9,10
 601 537 601 537 601 386 c 0,11,12
 601 274 601 274 517.5 212 c 128,-1,13
 434 150 434 150 291 150 c 0,14,15
 259 150 259 150 217 153 c 1,16,-1
 227 213 l 1,17,-1
 302 213 l 2,0,1
84 626 m 1,18,-1
 90 667 l 1,19,-1
 376 667 l 1,20,-1
 370 626 l 1,21,22
 327 618 327 618 297 596 c 1,23,-1
 214 71 l 1,24,25
 232 52 232 52 281 41 c 1,26,-1
 276 0 l 1,27,-1
 -10 0 l 1,28,-1
 -5 41 l 1,29,30
 36 47 36 47 67 71 c 1,31,-1
 150 596 l 1,32,33
 132 619 132 619 84 626 c 1,18,-1
EndSplineSet
EndChar

StartChar: germandbls
Encoding: 223 223 161
Width: 646
GlyphClass: 2
Flags: W
LayerCount: 2
Fore
SplineSet
202.5 642.5 m 128,-1,1
 272 686 272 686 375.5 686 c 128,-1,2
 479 686 479 686 535.5 653.5 c 128,-1,3
 592 621 592 621 592 560 c 128,-1,4
 592 499 592 499 539 450 c 128,-1,5
 486 401 486 401 401 371 c 1,6,7
 503 352 503 352 561 304.5 c 128,-1,8
 619 257 619 257 619 191 c 0,9,10
 619 110 619 110 548.5 52.5 c 128,-1,11
 478 -5 478 -5 384 -5 c 0,12,13
 235 -5 235 -5 235 75 c 0,14,15
 235 111 235 111 256.5 133 c 128,-1,16
 278 155 278 155 308.5 155 c 128,-1,17
 339 155 339 155 361 134 c 1,18,19
 343 117 343 117 343 94 c 0,20,21
 343 48 343 48 384.5 48 c 128,-1,22
 426 48 426 48 449.5 91 c 128,-1,23
 473 134 473 134 473 193.5 c 128,-1,24
 473 253 473 253 431.5 285 c 128,-1,25
 390 317 390 317 299 328 c 1,26,-1
 311 401 l 1,27,28
 358 410 358 410 401 458 c 128,-1,29
 444 506 444 506 444 557 c 0,30,31
 444 632 444 632 370 632 c 0,32,33
 284 632 284 632 261 520 c 0,34,35
 257 500 257 500 252 470 c 2,36,-1
 188 59 l 2,37,38
 181 15 181 15 174.5 -14.5 c 128,-1,39
 168 -44 168 -44 151 -87 c 128,-1,40
 134 -130 134 -130 111 -155.5 c 128,-1,41
 88 -181 88 -181 48 -200 c 128,-1,42
 8 -219 8 -219 -44 -219 c 128,-1,43
 -96 -219 -96 -219 -130 -197 c 128,-1,44
 -164 -175 -164 -175 -164 -137.5 c 128,-1,45
 -164 -100 -164 -100 -143 -80.5 c 128,-1,46
 -122 -61 -122 -61 -98 -61 c 0,47,48
 -49 -61 -49 -61 -41 -103 c 1,49,50
 -62 -114 -62 -114 -62 -141 c 0,51,52
 -62 -171 -62 -171 -33 -171 c 0,53,54
 15 -171 15 -171 28 -117 c 0,55,56
 37 -77 37 -77 41.5 -16 c 128,-1,57
 46 45 46 45 50 70 c 2,58,-1
 120 515 l 2,59,0
 133 599 133 599 202.5 642.5 c 128,-1,1
EndSplineSet
EndChar

StartChar: agrave
Encoding: 224 224 162
Width: 570
GlyphClass: 2
Flags: W
LayerCount: 2
Fore
SplineSet
467 93 m 128,-1,1
 467 69 467 69 488 69 c 0,2,3
 511 69 511 69 535 84 c 1,4,-1
 548 46 l 1,5,6
 467 -6 467 -6 406 -6 c 0,7,8
 334 -6 334 -6 326 56 c 1,9,10
 279 -11 279 -11 196 -11 c 0,11,12
 129 -11 129 -11 83 38 c 128,-1,13
 37 87 37 87 37 181 c 0,14,15
 37 334 37 334 113 413 c 128,-1,16
 189 492 189 492 309 492 c 0,17,18
 356 492 356 492 413 472 c 1,19,20
 446 491 446 491 497 491 c 0,21,22
 509 491 509 491 529 489 c 1,23,-1
 522 450 l 1,24,0
 467 117 467 117 467 93 c 128,-1,1
241 50 m 0,25,26
 277 50 277 50 304.5 102.5 c 128,-1,27
 332 155 332 155 348 249 c 2,28,-1
 380 434 l 1,29,30
 356 443 356 443 332 443 c 0,31,32
 268 443 268 443 224.5 375.5 c 128,-1,33
 181 308 181 308 181 179 c 128,-1,34
 181 50 181 50 241 50 c 0,25,26
237 592 m 2,35,36
 213 611 213 611 213 638 c 128,-1,37
 213 665 213 665 228.5 680 c 128,-1,38
 244 695 244 695 267 695 c 0,39,40
 301 695 301 695 319 661 c 2,41,-1
 380 542 l 1,42,-1
 341 509 l 1,43,-1
 237 592 l 2,35,36
EndSplineSet
EndChar

StartChar: aacute
Encoding: 225 225 163
Width: 570
GlyphClass: 2
Flags: W
LayerCount: 2
Fore
SplineSet
467 93 m 128,-1,1
 467 69 467 69 488 69 c 0,2,3
 511 69 511 69 535 84 c 1,4,-1
 548 46 l 1,5,6
 467 -6 467 -6 406 -6 c 0,7,8
 334 -6 334 -6 326 56 c 1,9,10
 279 -11 279 -11 196 -11 c 0,11,12
 129 -11 129 -11 83 38 c 128,-1,13
 37 87 37 87 37 181 c 0,14,15
 37 334 37 334 113 413 c 128,-1,16
 189 492 189 492 309 492 c 0,17,18
 356 492 356 492 413 472 c 1,19,20
 446 491 446 491 497 491 c 0,21,22
 509 491 509 491 529 489 c 1,23,-1
 522 450 l 1,24,0
 467 117 467 117 467 93 c 128,-1,1
241 50 m 0,25,26
 277 50 277 50 304.5 102.5 c 128,-1,27
 332 155 332 155 348 249 c 2,28,-1
 380 434 l 1,29,30
 356 443 356 443 332 443 c 0,31,32
 268 443 268 443 224.5 375.5 c 128,-1,33
 181 308 181 308 181 179 c 128,-1,34
 181 50 181 50 241 50 c 0,25,26
380 674 m 2,35,36
 406 706 406 706 430.5 706 c 128,-1,37
 455 706 455 706 468.5 692.5 c 128,-1,38
 482 679 482 679 482 660 c 0,39,40
 482 629 482 629 447 607 c 2,41,-1
 316 523 l 1,42,-1
 286 557 l 1,43,-1
 380 674 l 2,35,36
EndSplineSet
EndChar

StartChar: acircumflex
Encoding: 226 226 164
Width: 570
GlyphClass: 2
Flags: W
LayerCount: 2
Fore
SplineSet
467 93 m 128,-1,1
 467 69 467 69 488 69 c 0,2,3
 511 69 511 69 535 84 c 1,4,-1
 548 46 l 1,5,6
 467 -6 467 -6 406 -6 c 0,7,8
 334 -6 334 -6 326 56 c 1,9,10
 279 -11 279 -11 196 -11 c 0,11,12
 129 -11 129 -11 83 38 c 128,-1,13
 37 87 37 87 37 181 c 0,14,15
 37 334 37 334 113 413 c 128,-1,16
 189 492 189 492 309 492 c 0,17,18
 356 492 356 492 413 472 c 1,19,20
 446 491 446 491 497 491 c 0,21,22
 509 491 509 491 529 489 c 1,23,-1
 522 450 l 1,24,0
 467 117 467 117 467 93 c 128,-1,1
241 50 m 0,25,26
 277 50 277 50 304.5 102.5 c 128,-1,27
 332 155 332 155 348 249 c 2,28,-1
 380 434 l 1,29,30
 356 443 356 443 332 443 c 0,31,32
 268 443 268 443 224.5 375.5 c 128,-1,33
 181 308 181 308 181 179 c 128,-1,34
 181 50 181 50 241 50 c 0,25,26
304 660 m 2,35,36
 332 687 332 687 362 687 c 128,-1,37
 392 687 392 687 412 660 c 2,38,-1
 490 553 l 1,39,-1
 455 516 l 1,40,-1
 347 589 l 1,41,-1
 215 516 l 1,42,-1
 192 553 l 1,43,-1
 304 660 l 2,35,36
EndSplineSet
EndChar

StartChar: atilde
Encoding: 227 227 165
Width: 570
GlyphClass: 2
Flags: W
LayerCount: 2
Fore
SplineSet
467 93 m 128,-1,1
 467 69 467 69 488 69 c 0,2,3
 511 69 511 69 535 84 c 1,4,-1
 548 46 l 1,5,6
 467 -6 467 -6 406 -6 c 0,7,8
 334 -6 334 -6 326 56 c 1,9,10
 279 -11 279 -11 196 -11 c 0,11,12
 129 -11 129 -11 83 38 c 128,-1,13
 37 87 37 87 37 181 c 0,14,15
 37 334 37 334 113 413 c 128,-1,16
 189 492 189 492 309 492 c 0,17,18
 356 492 356 492 413 472 c 1,19,20
 446 491 446 491 497 491 c 0,21,22
 509 491 509 491 529 489 c 1,23,-1
 522 450 l 1,24,0
 467 117 467 117 467 93 c 128,-1,1
241 50 m 0,25,26
 277 50 277 50 304.5 102.5 c 128,-1,27
 332 155 332 155 348 249 c 2,28,-1
 380 434 l 1,29,30
 356 443 356 443 332 443 c 0,31,32
 268 443 268 443 224.5 375.5 c 128,-1,33
 181 308 181 308 181 179 c 128,-1,34
 181 50 181 50 241 50 c 0,25,26
346.5 644 m 128,-1,36
 384 624 384 624 409 624 c 128,-1,37
 434 624 434 624 468 663 c 1,38,39
 501 651 501 651 516 632 c 1,40,41
 458 537 458 537 392 537 c 0,42,43
 372 537 372 537 334 556.5 c 128,-1,44
 296 576 296 576 276 576 c 0,45,46
 245 576 245 576 212 538 c 1,47,48
 179 550 179 550 164 570 c 1,49,50
 223 664 223 664 289 664 c 0,51,35
 309 664 309 664 346.5 644 c 128,-1,36
EndSplineSet
EndChar

StartChar: adieresis
Encoding: 228 228 166
Width: 570
GlyphClass: 2
Flags: W
LayerCount: 2
Fore
SplineSet
467 93 m 128,-1,1
 467 69 467 69 488 69 c 0,2,3
 511 69 511 69 535 84 c 1,4,-1
 548 46 l 1,5,6
 467 -6 467 -6 406 -6 c 0,7,8
 334 -6 334 -6 326 56 c 1,9,10
 279 -11 279 -11 196 -11 c 0,11,12
 129 -11 129 -11 83 38 c 128,-1,13
 37 87 37 87 37 181 c 0,14,15
 37 334 37 334 113 413 c 128,-1,16
 189 492 189 492 309 492 c 0,17,18
 356 492 356 492 413 472 c 1,19,20
 446 491 446 491 497 491 c 0,21,22
 509 491 509 491 529 489 c 1,23,-1
 522 450 l 1,24,0
 467 117 467 117 467 93 c 128,-1,1
241 50 m 0,25,26
 277 50 277 50 304.5 102.5 c 128,-1,27
 332 155 332 155 348 249 c 2,28,-1
 380 434 l 1,29,30
 356 443 356 443 332 443 c 0,31,32
 268 443 268 443 224.5 375.5 c 128,-1,33
 181 308 181 308 181 179 c 128,-1,34
 181 50 181 50 241 50 c 0,25,26
311.5 571.5 m 128,-1,36
 292 550 292 550 262.5 550 c 128,-1,37
 233 550 233 550 218 564.5 c 128,-1,38
 203 579 203 579 203 610 c 128,-1,39
 203 641 203 641 222.5 662 c 128,-1,40
 242 683 242 683 271.5 683 c 128,-1,41
 301 683 301 683 316 668.5 c 128,-1,42
 331 654 331 654 331 623.5 c 128,-1,35
 331 593 331 593 311.5 571.5 c 128,-1,36
474.5 571.5 m 128,-1,44
 455 550 455 550 425.5 550 c 128,-1,45
 396 550 396 550 381 564.5 c 128,-1,46
 366 579 366 579 366 610 c 128,-1,47
 366 641 366 641 385.5 662 c 128,-1,48
 405 683 405 683 434.5 683 c 128,-1,49
 464 683 464 683 479 668.5 c 128,-1,50
 494 654 494 654 494 623.5 c 128,-1,43
 494 593 494 593 474.5 571.5 c 128,-1,44
EndSplineSet
EndChar

StartChar: aring
Encoding: 229 229 167
Width: 570
GlyphClass: 2
Flags: W
LayerCount: 2
Fore
SplineSet
467 93 m 128,-1,1
 467 69 467 69 488 69 c 0,2,3
 511 69 511 69 535 84 c 1,4,-1
 548 46 l 1,5,6
 467 -6 467 -6 406 -6 c 0,7,8
 334 -6 334 -6 326 56 c 1,9,10
 279 -11 279 -11 196 -11 c 0,11,12
 129 -11 129 -11 83 38 c 128,-1,13
 37 87 37 87 37 181 c 0,14,15
 37 334 37 334 113 413 c 128,-1,16
 189 492 189 492 309 492 c 0,17,18
 356 492 356 492 413 472 c 1,19,20
 446 491 446 491 497 491 c 0,21,22
 509 491 509 491 529 489 c 1,23,-1
 522 450 l 1,24,0
 467 117 467 117 467 93 c 128,-1,1
241 50 m 0,25,26
 277 50 277 50 304.5 102.5 c 128,-1,27
 332 155 332 155 348 249 c 2,28,-1
 380 434 l 1,29,30
 356 443 356 443 332 443 c 0,31,32
 268 443 268 443 224.5 375.5 c 128,-1,33
 181 308 181 308 181 179 c 128,-1,34
 181 50 181 50 241 50 c 0,25,26
262 538.5 m 128,-1,36
 236 563 236 563 236 606.5 c 128,-1,37
 236 650 236 650 272.5 684.5 c 128,-1,38
 309 719 309 719 360 719 c 128,-1,39
 411 719 411 719 437 694 c 128,-1,40
 463 669 463 669 463 625 c 128,-1,41
 463 581 463 581 426 547.5 c 128,-1,42
 389 514 389 514 338.5 514 c 128,-1,35
 288 514 288 514 262 538.5 c 128,-1,36
308 602 m 0,43,44
 308 561 308 561 340 561 c 0,45,46
 365 561 365 561 378 580.5 c 128,-1,47
 391 600 391 600 391 629 c 0,48,49
 391 672 391 672 358 672 c 0,50,51
 333 672 333 672 320.5 651.5 c 128,-1,52
 308 631 308 631 308 602 c 0,43,44
EndSplineSet
EndChar

StartChar: ae
Encoding: 230 230 168
Width: 751
GlyphClass: 2
Flags: W
LayerCount: 2
Fore
SplineSet
469 210 m 2,0,-1
 458 210 l 1,1,2
 454 186 454 186 454 160 c 0,3,4
 454 109 454 109 480.5 85.5 c 128,-1,5
 507 62 507 62 547.5 62 c 128,-1,6
 588 62 588 62 629.5 77.5 c 128,-1,7
 671 93 671 93 701 117 c 1,8,-1
 734 78 l 1,9,10
 634 -7 634 -7 511 -7 c 0,11,12
 406 -7 406 -7 353 62 c 1,13,14
 260 -7 260 -7 145 -7 c 0,15,16
 81 -7 81 -7 45.5 20.5 c 128,-1,17
 10 48 10 48 10 103 c 0,18,19
 10 173 10 173 68.5 218 c 128,-1,20
 127 263 127 263 232 270 c 2,21,-1
 321 276 l 1,22,-1
 330 329 l 2,23,24
 336 363 336 363 336 390 c 128,-1,25
 336 417 336 417 318 432.5 c 128,-1,26
 300 448 300 448 273 448 c 128,-1,27
 246 448 246 448 224 432.5 c 128,-1,28
 202 417 202 417 202 395.5 c 128,-1,29
 202 374 202 374 218 360 c 1,30,31
 212 336 212 336 188.5 321 c 128,-1,32
 165 306 165 306 137.5 306 c 128,-1,33
 110 306 110 306 91.5 321 c 128,-1,34
 73 336 73 336 73 365 c 0,35,36
 73 423 73 423 130.5 457.5 c 128,-1,37
 188 492 188 492 288 492 c 128,-1,38
 388 492 388 492 429 443 c 1,39,40
 500 492 500 492 601 492 c 0,41,42
 674 492 674 492 712.5 462 c 128,-1,43
 751 432 751 432 751 384 c 0,44,45
 751 304 751 304 672.5 257 c 128,-1,46
 594 210 594 210 469 210 c 2,0,-1
177 183.5 m 128,-1,48
 144 158 144 158 144 108 c 128,-1,49
 144 58 144 58 194 58 c 0,50,51
 241 58 241 58 296 103 c 1,52,-1
 313 217 l 1,53,-1
 263 213 l 2,54,47
 210 209 210 209 177 183.5 c 128,-1,48
583 443 m 0,55,56
 546 443 546 443 514.5 396.5 c 128,-1,57
 483 350 483 350 467 268 c 1,58,59
 524 271 524 271 575 305.5 c 128,-1,60
 626 340 626 340 626 391.5 c 128,-1,61
 626 443 626 443 583 443 c 0,55,56
EndSplineSet
EndChar

StartChar: ccedilla
Encoding: 231 231 169
Width: 452
GlyphClass: 2
Flags: W
LayerCount: 2
Fore
SplineSet
421 68 m 1,0,-1
 390 104 l 1,1,2
 325 51 325 51 260 51 c 0,3,4
 213 51 213 51 190.5 81 c 128,-1,5
 168 111 168 111 168 177 c 0,6,7
 168 282 168 282 198.5 362.5 c 128,-1,8
 229 443 229 443 287 443 c 0,9,10
 306 443 306 443 318 432.5 c 128,-1,11
 330 422 330 422 330 402 c 128,-1,12
 330 382 330 382 311 360 c 1,13,14
 314 342 314 342 331.5 330 c 128,-1,15
 349 318 349 318 378.5 318 c 128,-1,16
 408 318 408 318 435 340.5 c 128,-1,17
 462 363 462 363 462 400.5 c 128,-1,18
 462 438 462 438 418.5 463.5 c 128,-1,19
 375 489 375 489 303 489 c 0,20,21
 168 489 168 489 95 409 c 128,-1,22
 22 329 22 329 22 186 c 0,23,24
 22 92 22 92 73.5 42.5 c 128,-1,25
 125 -7 125 -7 230.5 -7 c 128,-1,26
 336 -7 336 -7 421 68 c 1,0,-1
237 -39 m 1,27,28
 295 -57 295 -57 295 -103 c 128,-1,29
 295 -149 295 -149 259 -179.5 c 128,-1,30
 223 -210 223 -210 174.5 -210 c 128,-1,31
 126 -210 126 -210 103 -188.5 c 128,-1,32
 80 -167 80 -167 80 -142 c 128,-1,33
 80 -117 80 -117 95 -102 c 128,-1,34
 110 -87 110 -87 128.5 -87 c 128,-1,35
 147 -87 147 -87 164 -96 c 1,36,37
 149 -111 149 -111 149 -129 c 128,-1,38
 149 -147 149 -147 156 -157.5 c 128,-1,39
 163 -168 163 -168 179 -168 c 128,-1,40
 195 -168 195 -168 207 -154 c 128,-1,41
 219 -140 219 -140 219 -117 c 0,42,43
 219 -78 219 -78 167 -73 c 1,44,-1
 150 -49 l 1,45,-1
 215 16 l 1,46,-1
 252 7 l 1,47,-1
 237 -39 l 1,27,28
EndSplineSet
EndChar

StartChar: egrave
Encoding: 232 232 170
Width: 499
GlyphClass: 2
Flags: W
LayerCount: 2
Fore
SplineSet
181 210 m 2,0,-1
 170 210 l 1,1,2
 166 181 166 181 166 160 c 0,3,4
 166 113 166 113 191 87.5 c 128,-1,5
 216 62 216 62 257.5 62 c 128,-1,6
 299 62 299 62 340.5 77 c 128,-1,7
 382 92 382 92 413 117 c 1,8,-1
 446 78 l 1,9,10
 345 -7 345 -7 223 -7 c 0,11,12
 133 -7 133 -7 80 46 c 128,-1,13
 27 99 27 99 27 189 c 0,14,15
 27 329 27 329 104 410.5 c 128,-1,16
 181 492 181 492 313 492 c 0,17,18
 387 492 387 492 432.5 464.5 c 128,-1,19
 478 437 478 437 478 392 c 0,20,21
 478 308 478 308 398 259 c 128,-1,22
 318 210 318 210 181 210 c 2,0,-1
300.5 305.5 m 128,-1,24
 353 341 353 341 353 392 c 128,-1,25
 353 443 353 443 302 443 c 128,-1,26
 251 443 251 443 223.5 399.5 c 128,-1,27
 196 356 196 356 179 268 c 1,28,23
 248 270 248 270 300.5 305.5 c 128,-1,24
213 592 m 2,29,30
 189 611 189 611 189 638 c 128,-1,31
 189 665 189 665 204.5 680 c 128,-1,32
 220 695 220 695 243 695 c 0,33,34
 277 695 277 695 295 661 c 2,35,-1
 356 542 l 1,36,-1
 317 509 l 1,37,-1
 213 592 l 2,29,30
EndSplineSet
EndChar

StartChar: eacute
Encoding: 233 233 171
Width: 499
GlyphClass: 2
Flags: W
LayerCount: 2
Fore
SplineSet
181 210 m 2,0,-1
 170 210 l 1,1,2
 166 181 166 181 166 160 c 0,3,4
 166 113 166 113 191 87.5 c 128,-1,5
 216 62 216 62 257.5 62 c 128,-1,6
 299 62 299 62 340.5 77 c 128,-1,7
 382 92 382 92 413 117 c 1,8,-1
 446 78 l 1,9,10
 345 -7 345 -7 223 -7 c 0,11,12
 133 -7 133 -7 80 46 c 128,-1,13
 27 99 27 99 27 189 c 0,14,15
 27 329 27 329 104 410.5 c 128,-1,16
 181 492 181 492 313 492 c 0,17,18
 387 492 387 492 432.5 464.5 c 128,-1,19
 478 437 478 437 478 392 c 0,20,21
 478 308 478 308 398 259 c 128,-1,22
 318 210 318 210 181 210 c 2,0,-1
300.5 305.5 m 128,-1,24
 353 341 353 341 353 392 c 128,-1,25
 353 443 353 443 302 443 c 128,-1,26
 251 443 251 443 223.5 399.5 c 128,-1,27
 196 356 196 356 179 268 c 1,28,23
 248 270 248 270 300.5 305.5 c 128,-1,24
356 674 m 2,29,30
 382 706 382 706 406.5 706 c 128,-1,31
 431 706 431 706 444.5 692.5 c 128,-1,32
 458 679 458 679 458 660 c 0,33,34
 458 629 458 629 423 607 c 2,35,-1
 292 523 l 1,36,-1
 262 557 l 1,37,-1
 356 674 l 2,29,30
EndSplineSet
EndChar

StartChar: ecircumflex
Encoding: 234 234 172
Width: 499
GlyphClass: 2
Flags: W
LayerCount: 2
Fore
SplineSet
181 210 m 2,0,-1
 170 210 l 1,1,2
 166 181 166 181 166 160 c 0,3,4
 166 113 166 113 191 87.5 c 128,-1,5
 216 62 216 62 257.5 62 c 128,-1,6
 299 62 299 62 340.5 77 c 128,-1,7
 382 92 382 92 413 117 c 1,8,-1
 446 78 l 1,9,10
 345 -7 345 -7 223 -7 c 0,11,12
 133 -7 133 -7 80 46 c 128,-1,13
 27 99 27 99 27 189 c 0,14,15
 27 329 27 329 104 410.5 c 128,-1,16
 181 492 181 492 313 492 c 0,17,18
 387 492 387 492 432.5 464.5 c 128,-1,19
 478 437 478 437 478 392 c 0,20,21
 478 308 478 308 398 259 c 128,-1,22
 318 210 318 210 181 210 c 2,0,-1
300.5 305.5 m 128,-1,24
 353 341 353 341 353 392 c 128,-1,25
 353 443 353 443 302 443 c 128,-1,26
 251 443 251 443 223.5 399.5 c 128,-1,27
 196 356 196 356 179 268 c 1,28,23
 248 270 248 270 300.5 305.5 c 128,-1,24
280 660 m 2,29,30
 308 687 308 687 338 687 c 128,-1,31
 368 687 368 687 388 660 c 2,32,-1
 466 553 l 1,33,-1
 431 516 l 1,34,-1
 323 589 l 1,35,-1
 191 516 l 1,36,-1
 168 553 l 1,37,-1
 280 660 l 2,29,30
EndSplineSet
EndChar

StartChar: edieresis
Encoding: 235 235 173
Width: 499
GlyphClass: 2
Flags: W
LayerCount: 2
Fore
SplineSet
181 210 m 2,0,-1
 170 210 l 1,1,2
 166 181 166 181 166 160 c 0,3,4
 166 113 166 113 191 87.5 c 128,-1,5
 216 62 216 62 257.5 62 c 128,-1,6
 299 62 299 62 340.5 77 c 128,-1,7
 382 92 382 92 413 117 c 1,8,-1
 446 78 l 1,9,10
 345 -7 345 -7 223 -7 c 0,11,12
 133 -7 133 -7 80 46 c 128,-1,13
 27 99 27 99 27 189 c 0,14,15
 27 329 27 329 104 410.5 c 128,-1,16
 181 492 181 492 313 492 c 0,17,18
 387 492 387 492 432.5 464.5 c 128,-1,19
 478 437 478 437 478 392 c 0,20,21
 478 308 478 308 398 259 c 128,-1,22
 318 210 318 210 181 210 c 2,0,-1
300.5 305.5 m 128,-1,24
 353 341 353 341 353 392 c 128,-1,25
 353 443 353 443 302 443 c 128,-1,26
 251 443 251 443 223.5 399.5 c 128,-1,27
 196 356 196 356 179 268 c 1,28,23
 248 270 248 270 300.5 305.5 c 128,-1,24
287.5 571.5 m 128,-1,30
 268 550 268 550 238.5 550 c 128,-1,31
 209 550 209 550 194 564.5 c 128,-1,32
 179 579 179 579 179 610 c 128,-1,33
 179 641 179 641 198.5 662 c 128,-1,34
 218 683 218 683 247.5 683 c 128,-1,35
 277 683 277 683 292 668.5 c 128,-1,36
 307 654 307 654 307 623.5 c 128,-1,29
 307 593 307 593 287.5 571.5 c 128,-1,30
450.5 571.5 m 128,-1,38
 431 550 431 550 401.5 550 c 128,-1,39
 372 550 372 550 357 564.5 c 128,-1,40
 342 579 342 579 342 610 c 128,-1,41
 342 641 342 641 361.5 662 c 128,-1,42
 381 683 381 683 410.5 683 c 128,-1,43
 440 683 440 683 455 668.5 c 128,-1,44
 470 654 470 654 470 623.5 c 128,-1,37
 470 593 470 593 450.5 571.5 c 128,-1,38
EndSplineSet
EndChar

StartChar: igrave
Encoding: 236 236 174
Width: 302
GlyphClass: 2
Flags: W
LayerCount: 2
Fore
SplineSet
109 376 m 0,0,1
 109 419 109 419 69 419 c 0,2,3
 64 419 64 419 48 417 c 1,4,-1
 45 456 l 1,5,6
 81 471 81 471 138.5 481 c 128,-1,7
 196 491 196 491 240 492 c 1,8,-1
 267 478 l 1,9,-1
 212 123 l 2,10,11
 208 99 208 99 208 93 c 0,12,13
 208 68 208 68 231 68 c 0,14,15
 248 68 248 68 277 84 c 1,16,-1
 290 48 l 1,17,18
 270 28 270 28 227 11 c 128,-1,19
 184 -6 184 -6 144 -6 c 0,20,21
 67 -6 67 -6 67 81 c 0,22,23
 67 103 67 103 72 136 c 2,24,-1
 107 354 l 2,25,26
 109 370 109 370 109 376 c 0,0,1
105 592 m 2,27,28
 81 611 81 611 81 638 c 128,-1,29
 81 665 81 665 96.5 680 c 128,-1,30
 112 695 112 695 135 695 c 0,31,32
 169 695 169 695 187 661 c 2,33,-1
 248 542 l 1,34,-1
 209 509 l 1,35,-1
 105 592 l 2,27,28
EndSplineSet
EndChar

StartChar: iacute
Encoding: 237 237 175
Width: 302
GlyphClass: 2
Flags: W
LayerCount: 2
Fore
SplineSet
109 376 m 0,0,1
 109 419 109 419 69 419 c 0,2,3
 64 419 64 419 48 417 c 1,4,-1
 45 456 l 1,5,6
 81 471 81 471 138.5 481 c 128,-1,7
 196 491 196 491 240 492 c 1,8,-1
 267 478 l 1,9,-1
 212 123 l 2,10,11
 208 99 208 99 208 93 c 0,12,13
 208 68 208 68 231 68 c 0,14,15
 248 68 248 68 277 84 c 1,16,-1
 290 48 l 1,17,18
 270 28 270 28 227 11 c 128,-1,19
 184 -6 184 -6 144 -6 c 0,20,21
 67 -6 67 -6 67 81 c 0,22,23
 67 103 67 103 72 136 c 2,24,-1
 107 354 l 2,25,26
 109 370 109 370 109 376 c 0,0,1
248 674 m 2,27,28
 274 706 274 706 298.5 706 c 128,-1,29
 323 706 323 706 336.5 692.5 c 128,-1,30
 350 679 350 679 350 660 c 0,31,32
 350 629 350 629 315 607 c 2,33,-1
 184 523 l 1,34,-1
 154 557 l 1,35,-1
 248 674 l 2,27,28
EndSplineSet
EndChar

StartChar: icircumflex
Encoding: 238 238 176
Width: 302
GlyphClass: 2
Flags: W
LayerCount: 2
Fore
SplineSet
109 376 m 0,0,1
 109 419 109 419 69 419 c 0,2,3
 64 419 64 419 48 417 c 1,4,-1
 45 456 l 1,5,6
 81 471 81 471 138.5 481 c 128,-1,7
 196 491 196 491 240 492 c 1,8,-1
 267 478 l 1,9,-1
 212 123 l 2,10,11
 208 99 208 99 208 93 c 0,12,13
 208 68 208 68 231 68 c 0,14,15
 248 68 248 68 277 84 c 1,16,-1
 290 48 l 1,17,18
 270 28 270 28 227 11 c 128,-1,19
 184 -6 184 -6 144 -6 c 0,20,21
 67 -6 67 -6 67 81 c 0,22,23
 67 103 67 103 72 136 c 2,24,-1
 107 354 l 2,25,26
 109 370 109 370 109 376 c 0,0,1
162 660 m 2,27,28
 190 687 190 687 220 687 c 128,-1,29
 250 687 250 687 270 660 c 2,30,-1
 348 553 l 1,31,-1
 313 516 l 1,32,-1
 205 589 l 1,33,-1
 73 516 l 1,34,-1
 50 553 l 1,35,-1
 162 660 l 2,27,28
EndSplineSet
EndChar

StartChar: idieresis
Encoding: 239 239 177
Width: 302
GlyphClass: 2
Flags: W
LayerCount: 2
Fore
SplineSet
109 376 m 0,0,1
 109 419 109 419 69 419 c 0,2,3
 64 419 64 419 48 417 c 1,4,-1
 45 456 l 1,5,6
 81 471 81 471 138.5 481 c 128,-1,7
 196 491 196 491 240 492 c 1,8,-1
 267 478 l 1,9,-1
 212 123 l 2,10,11
 208 99 208 99 208 93 c 0,12,13
 208 68 208 68 231 68 c 0,14,15
 248 68 248 68 277 84 c 1,16,-1
 290 48 l 1,17,18
 270 28 270 28 227 11 c 128,-1,19
 184 -6 184 -6 144 -6 c 0,20,21
 67 -6 67 -6 67 81 c 0,22,23
 67 103 67 103 72 136 c 2,24,-1
 107 354 l 2,25,26
 109 370 109 370 109 376 c 0,0,1
169.5 571.5 m 128,-1,28
 150 550 150 550 120.5 550 c 128,-1,29
 91 550 91 550 76 564.5 c 128,-1,30
 61 579 61 579 61 610 c 128,-1,31
 61 641 61 641 80.5 662 c 128,-1,32
 100 683 100 683 129.5 683 c 128,-1,33
 159 683 159 683 174 668.5 c 128,-1,34
 189 654 189 654 189 623.5 c 128,-1,27
 189 593 189 593 169.5 571.5 c 128,-1,28
332.5 571.5 m 128,-1,36
 313 550 313 550 283.5 550 c 128,-1,37
 254 550 254 550 239 564.5 c 128,-1,38
 224 579 224 579 224 610 c 128,-1,39
 224 641 224 641 243.5 662 c 128,-1,40
 263 683 263 683 292.5 683 c 128,-1,41
 322 683 322 683 337 668.5 c 128,-1,42
 352 654 352 654 352 623.5 c 128,-1,35
 352 593 352 593 332.5 571.5 c 128,-1,36
EndSplineSet
EndChar

StartChar: eth
Encoding: 240 240 178
Width: 545
GlyphClass: 2
Flags: W
LayerCount: 2
Fore
SplineSet
231 -7 m 0,0,1
 132 -7 132 -7 77.5 42.5 c 128,-1,2
 23 92 23 92 23 183 c 0,3,4
 23 311 23 311 97 394 c 128,-1,5
 171 477 171 477 288 477 c 0,6,7
 326 477 326 477 372 466 c 1,8,9
 357 525 357 525 322 566 c 0,10,11
 291 603 291 603 186 651 c 1,12,-1
 218 700 l 1,13,14
 355 664 355 664 438.5 580 c 128,-1,15
 522 496 522 496 522 345.5 c 128,-1,16
 522 195 522 195 453.5 94 c 128,-1,17
 385 -7 385 -7 231 -7 c 0,0,1
380 390 m 2,18,-1
 380 404 l 1,19,20
 341 419 341 419 312 419 c 0,21,22
 261 419 261 419 228 380 c 0,23,24
 168 309 168 309 168 165 c 0,25,26
 168 49 168 49 240 49 c 0,27,28
 279 49 279 49 307.5 81.5 c 128,-1,29
 336 114 336 114 351 168 c 0,30,31
 380 271 380 271 380 390 c 2,18,-1
185 510 m 1,32,-1
 166 569 l 1,33,-1
 481 685 l 1,34,-1
 502 621 l 1,35,-1
 376 575 l 1,36,-1
 185 510 l 1,32,-1
EndSplineSet
EndChar

StartChar: ntilde
Encoding: 241 241 179
Width: 585
GlyphClass: 2
Flags: W
LayerCount: 2
Fore
SplineSet
493 122 m 1,0,-1
 489 93 l 1,1,2
 489 68 489 68 511 68 c 0,3,4
 528 68 528 68 557 84 c 1,5,-1
 570 48 l 1,6,7
 550 28 550 28 507 11 c 128,-1,8
 464 -6 464 -6 424 -6 c 0,9,10
 347 -6 347 -6 347 80 c 0,11,12
 347 103 347 103 352 136 c 2,13,-1
 383 329 l 2,14,15
 386 348 386 348 386 365 c 0,16,17
 386 425 386 425 344 425 c 0,18,19
 307 425 307 425 266 353.5 c 128,-1,20
 225 282 225 282 211 196 c 2,21,-1
 179 0 l 1,22,-1
 38 0 l 1,23,-1
 95 354 l 2,24,25
 97 370 97 370 97 376 c 0,26,27
 97 419 97 419 57 419 c 0,28,29
 52 419 52 419 36 417 c 1,30,-1
 33 456 l 1,31,32
 69 471 69 471 126.5 481 c 128,-1,33
 184 491 184 491 228 492 c 1,34,-1
 244 483 l 1,35,-1
 240 392 l 1,36,37
 302 492 302 492 401 492 c 0,38,39
 461 492 461 492 494.5 459.5 c 128,-1,40
 528 427 528 427 528 369 c 0,41,42
 528 348 528 348 525 329 c 2,43,-1
 493 122 l 1,0,-1
360.5 644 m 128,-1,45
 398 624 398 624 423 624 c 128,-1,46
 448 624 448 624 482 663 c 1,47,48
 515 651 515 651 530 632 c 1,49,50
 472 537 472 537 406 537 c 0,51,52
 386 537 386 537 348 556.5 c 128,-1,53
 310 576 310 576 290 576 c 0,54,55
 259 576 259 576 226 538 c 1,56,57
 193 550 193 550 178 570 c 1,58,59
 237 664 237 664 303 664 c 0,60,44
 323 664 323 664 360.5 644 c 128,-1,45
EndSplineSet
EndChar

StartChar: ograve
Encoding: 242 242 180
Width: 540
GlyphClass: 2
Flags: W
LayerCount: 2
Fore
SplineSet
171 167 m 0,0,1
 171 106 171 106 188.5 77.5 c 128,-1,2
 206 49 206 49 243 49 c 0,3,4
 300 49 300 49 337.5 126 c 128,-1,5
 375 203 375 203 375 319 c 0,6,7
 375 380 375 380 358 408 c 128,-1,8
 341 436 341 436 304 436 c 0,9,10
 247 436 247 436 209 359 c 128,-1,11
 171 282 171 282 171 167 c 0,0,1
27 191 m 0,12,13
 27 336 27 336 101 414 c 128,-1,14
 175 492 175 492 313 492 c 0,15,16
 414 492 414 492 466.5 442 c 128,-1,17
 519 392 519 392 519 295 c 0,18,19
 519 150 519 150 445 71.5 c 128,-1,20
 371 -7 371 -7 234 -7 c 0,21,22
 133 -7 133 -7 80 43.5 c 128,-1,23
 27 94 27 94 27 191 c 0,12,13
229 592 m 2,24,25
 205 611 205 611 205 638 c 128,-1,26
 205 665 205 665 220.5 680 c 128,-1,27
 236 695 236 695 259 695 c 0,28,29
 293 695 293 695 311 661 c 2,30,-1
 372 542 l 1,31,-1
 333 509 l 1,32,-1
 229 592 l 2,24,25
EndSplineSet
EndChar

StartChar: oacute
Encoding: 243 243 181
Width: 540
GlyphClass: 2
Flags: W
LayerCount: 2
Fore
SplineSet
171 167 m 0,0,1
 171 106 171 106 188.5 77.5 c 128,-1,2
 206 49 206 49 243 49 c 0,3,4
 300 49 300 49 337.5 126 c 128,-1,5
 375 203 375 203 375 319 c 0,6,7
 375 380 375 380 358 408 c 128,-1,8
 341 436 341 436 304 436 c 0,9,10
 247 436 247 436 209 359 c 128,-1,11
 171 282 171 282 171 167 c 0,0,1
27 191 m 0,12,13
 27 336 27 336 101 414 c 128,-1,14
 175 492 175 492 313 492 c 0,15,16
 414 492 414 492 466.5 442 c 128,-1,17
 519 392 519 392 519 295 c 0,18,19
 519 150 519 150 445 71.5 c 128,-1,20
 371 -7 371 -7 234 -7 c 0,21,22
 133 -7 133 -7 80 43.5 c 128,-1,23
 27 94 27 94 27 191 c 0,12,13
372 674 m 2,24,25
 398 706 398 706 422.5 706 c 128,-1,26
 447 706 447 706 460.5 692.5 c 128,-1,27
 474 679 474 679 474 660 c 0,28,29
 474 629 474 629 439 607 c 2,30,-1
 308 523 l 1,31,-1
 278 557 l 1,32,-1
 372 674 l 2,24,25
EndSplineSet
EndChar

StartChar: ocircumflex
Encoding: 244 244 182
Width: 540
GlyphClass: 2
Flags: W
LayerCount: 2
Fore
SplineSet
171 167 m 0,0,1
 171 106 171 106 188.5 77.5 c 128,-1,2
 206 49 206 49 243 49 c 0,3,4
 300 49 300 49 337.5 126 c 128,-1,5
 375 203 375 203 375 319 c 0,6,7
 375 380 375 380 358 408 c 128,-1,8
 341 436 341 436 304 436 c 0,9,10
 247 436 247 436 209 359 c 128,-1,11
 171 282 171 282 171 167 c 0,0,1
27 191 m 0,12,13
 27 336 27 336 101 414 c 128,-1,14
 175 492 175 492 313 492 c 0,15,16
 414 492 414 492 466.5 442 c 128,-1,17
 519 392 519 392 519 295 c 0,18,19
 519 150 519 150 445 71.5 c 128,-1,20
 371 -7 371 -7 234 -7 c 0,21,22
 133 -7 133 -7 80 43.5 c 128,-1,23
 27 94 27 94 27 191 c 0,12,13
296 660 m 2,24,25
 324 687 324 687 354 687 c 128,-1,26
 384 687 384 687 404 660 c 2,27,-1
 482 553 l 1,28,-1
 447 516 l 1,29,-1
 339 589 l 1,30,-1
 207 516 l 1,31,-1
 184 553 l 1,32,-1
 296 660 l 2,24,25
EndSplineSet
EndChar

StartChar: otilde
Encoding: 245 245 183
Width: 540
GlyphClass: 2
Flags: W
LayerCount: 2
Fore
SplineSet
171 167 m 0,0,1
 171 106 171 106 188.5 77.5 c 128,-1,2
 206 49 206 49 243 49 c 0,3,4
 300 49 300 49 337.5 126 c 128,-1,5
 375 203 375 203 375 319 c 0,6,7
 375 380 375 380 358 408 c 128,-1,8
 341 436 341 436 304 436 c 0,9,10
 247 436 247 436 209 359 c 128,-1,11
 171 282 171 282 171 167 c 0,0,1
27 191 m 0,12,13
 27 336 27 336 101 414 c 128,-1,14
 175 492 175 492 313 492 c 0,15,16
 414 492 414 492 466.5 442 c 128,-1,17
 519 392 519 392 519 295 c 0,18,19
 519 150 519 150 445 71.5 c 128,-1,20
 371 -7 371 -7 234 -7 c 0,21,22
 133 -7 133 -7 80 43.5 c 128,-1,23
 27 94 27 94 27 191 c 0,12,13
338.5 644 m 128,-1,25
 376 624 376 624 401 624 c 128,-1,26
 426 624 426 624 460 663 c 1,27,28
 493 651 493 651 508 632 c 1,29,30
 450 537 450 537 384 537 c 0,31,32
 364 537 364 537 326 556.5 c 128,-1,33
 288 576 288 576 268 576 c 0,34,35
 237 576 237 576 204 538 c 1,36,37
 171 550 171 550 156 570 c 1,38,39
 215 664 215 664 281 664 c 0,40,24
 301 664 301 664 338.5 644 c 128,-1,25
EndSplineSet
EndChar

StartChar: odieresis
Encoding: 246 246 184
Width: 540
GlyphClass: 2
Flags: W
LayerCount: 2
Fore
SplineSet
171 167 m 0,0,1
 171 106 171 106 188.5 77.5 c 128,-1,2
 206 49 206 49 243 49 c 0,3,4
 300 49 300 49 337.5 126 c 128,-1,5
 375 203 375 203 375 319 c 0,6,7
 375 380 375 380 358 408 c 128,-1,8
 341 436 341 436 304 436 c 0,9,10
 247 436 247 436 209 359 c 128,-1,11
 171 282 171 282 171 167 c 0,0,1
27 191 m 0,12,13
 27 336 27 336 101 414 c 128,-1,14
 175 492 175 492 313 492 c 0,15,16
 414 492 414 492 466.5 442 c 128,-1,17
 519 392 519 392 519 295 c 0,18,19
 519 150 519 150 445 71.5 c 128,-1,20
 371 -7 371 -7 234 -7 c 0,21,22
 133 -7 133 -7 80 43.5 c 128,-1,23
 27 94 27 94 27 191 c 0,12,13
303.5 571.5 m 128,-1,25
 284 550 284 550 254.5 550 c 128,-1,26
 225 550 225 550 210 564.5 c 128,-1,27
 195 579 195 579 195 610 c 128,-1,28
 195 641 195 641 214.5 662 c 128,-1,29
 234 683 234 683 263.5 683 c 128,-1,30
 293 683 293 683 308 668.5 c 128,-1,31
 323 654 323 654 323 623.5 c 128,-1,24
 323 593 323 593 303.5 571.5 c 128,-1,25
466.5 571.5 m 128,-1,33
 447 550 447 550 417.5 550 c 128,-1,34
 388 550 388 550 373 564.5 c 128,-1,35
 358 579 358 579 358 610 c 128,-1,36
 358 641 358 641 377.5 662 c 128,-1,37
 397 683 397 683 426.5 683 c 128,-1,38
 456 683 456 683 471 668.5 c 128,-1,39
 486 654 486 654 486 623.5 c 128,-1,32
 486 593 486 593 466.5 571.5 c 128,-1,33
EndSplineSet
EndChar

StartChar: divide
Encoding: 247 247 185
Width: 573
GlyphClass: 2
Flags: W
LayerCount: 2
Fore
SplineSet
49 238 m 1,0,-1
 64 333 l 1,1,-1
 533 333 l 1,2,-1
 518 238 l 1,3,-1
 49 238 l 1,0,-1
209.5 65.5 m 128,-1,5
 192 84 192 84 192 114 c 128,-1,6
 192 144 192 144 218.5 168.5 c 128,-1,7
 245 193 245 193 275 193 c 128,-1,8
 305 193 305 193 322.5 174.5 c 128,-1,9
 340 156 340 156 340 126 c 128,-1,10
 340 96 340 96 313.5 71.5 c 128,-1,11
 287 47 287 47 257 47 c 128,-1,4
 227 47 227 47 209.5 65.5 c 128,-1,5
262.5 396.5 m 128,-1,13
 245 415 245 415 245 445 c 128,-1,14
 245 475 245 475 271 499.5 c 128,-1,15
 297 524 297 524 327 524 c 128,-1,16
 357 524 357 524 374.5 505.5 c 128,-1,17
 392 487 392 487 392 457 c 128,-1,18
 392 427 392 427 366 402.5 c 128,-1,19
 340 378 340 378 310 378 c 128,-1,12
 280 378 280 378 262.5 396.5 c 128,-1,13
EndSplineSet
EndChar

StartChar: oslash
Encoding: 248 248 186
Width: 540
GlyphClass: 2
Flags: W
LayerCount: 2
Fore
SplineSet
23 191 m 0,0,1
 23 336 23 336 97 414 c 128,-1,2
 171 492 171 492 309 492 c 0,3,4
 376 492 376 492 421 470 c 1,5,-1
 475 531 l 1,6,-1
 535 477 l 1,7,-1
 482 418 l 1,8,9
 515 372 515 372 515 295 c 0,10,11
 515 150 515 150 441 71.5 c 128,-1,12
 367 -7 367 -7 230 -7 c 0,13,14
 167 -7 167 -7 121 13 c 1,15,-1
 70 -45 l 1,16,-1
 10 9 l 1,17,-1
 58 63 l 1,18,19
 23 112 23 112 23 191 c 0,0,1
300 436 m 0,20,21
 245 436 245 436 208 365 c 128,-1,22
 171 294 171 294 167 185 c 1,23,-1
 358 399 l 1,24,25
 340 436 340 436 300 436 c 0,20,21
239 49 m 0,26,27
 292 49 292 49 328.5 117.5 c 128,-1,28
 365 186 365 186 370 292 c 1,29,-1
 182 81 l 1,30,31
 198 49 198 49 239 49 c 0,26,27
EndSplineSet
EndChar

StartChar: ugrave
Encoding: 249 249 187
Width: 584
GlyphClass: 2
Flags: W
LayerCount: 2
Fore
SplineSet
200 119 m 0,0,1
 200 60 200 60 241 60 c 0,2,3
 275 60 275 60 316 123 c 128,-1,4
 357 186 357 186 370 265 c 2,5,-1
 405 470 l 1,6,7
 441 489 441 489 476 489 c 128,-1,8
 511 489 511 489 548 484 c 1,9,-1
 501 197 l 2,10,11
 486 101 486 101 486 92 c 0,12,13
 486 69 486 69 506 69 c 0,14,15
 529 69 529 69 554 84 c 1,16,-1
 567 46 l 1,17,18
 490 -6 490 -6 427 -6 c 0,19,20
 382 -6 382 -6 362.5 17 c 128,-1,21
 343 40 343 40 343 86 c 1,22,23
 280 -8 280 -8 185 -8 c 0,24,25
 125 -8 125 -8 91 24.5 c 128,-1,26
 57 57 57 57 57 113 c 0,27,28
 57 130 57 130 76 250 c 128,-1,29
 95 370 95 370 95 377 c 0,30,31
 95 419 95 419 55 419 c 0,32,33
 50 419 50 419 34 417 c 1,34,-1
 31 456 l 1,35,36
 116 492 116 492 226 492 c 1,37,-1
 253 474 l 1,38,39
 200 152 200 152 200 119 c 0,0,1
236 592 m 2,40,41
 212 611 212 611 212 638 c 128,-1,42
 212 665 212 665 227.5 680 c 128,-1,43
 243 695 243 695 266 695 c 0,44,45
 300 695 300 695 318 661 c 2,46,-1
 379 542 l 1,47,-1
 340 509 l 1,48,-1
 236 592 l 2,40,41
EndSplineSet
EndChar

StartChar: uacute
Encoding: 250 250 188
Width: 584
GlyphClass: 2
Flags: W
LayerCount: 2
Fore
SplineSet
200 119 m 0,0,1
 200 60 200 60 241 60 c 0,2,3
 275 60 275 60 316 123 c 128,-1,4
 357 186 357 186 370 265 c 2,5,-1
 405 470 l 1,6,7
 441 489 441 489 476 489 c 128,-1,8
 511 489 511 489 548 484 c 1,9,-1
 501 197 l 2,10,11
 486 101 486 101 486 92 c 0,12,13
 486 69 486 69 506 69 c 0,14,15
 529 69 529 69 554 84 c 1,16,-1
 567 46 l 1,17,18
 490 -6 490 -6 427 -6 c 0,19,20
 382 -6 382 -6 362.5 17 c 128,-1,21
 343 40 343 40 343 86 c 1,22,23
 280 -8 280 -8 185 -8 c 0,24,25
 125 -8 125 -8 91 24.5 c 128,-1,26
 57 57 57 57 57 113 c 0,27,28
 57 130 57 130 76 250 c 128,-1,29
 95 370 95 370 95 377 c 0,30,31
 95 419 95 419 55 419 c 0,32,33
 50 419 50 419 34 417 c 1,34,-1
 31 456 l 1,35,36
 116 492 116 492 226 492 c 1,37,-1
 253 474 l 1,38,39
 200 152 200 152 200 119 c 0,0,1
379 674 m 2,40,41
 405 706 405 706 429.5 706 c 128,-1,42
 454 706 454 706 467.5 692.5 c 128,-1,43
 481 679 481 679 481 660 c 0,44,45
 481 629 481 629 446 607 c 2,46,-1
 315 523 l 1,47,-1
 285 557 l 1,48,-1
 379 674 l 2,40,41
EndSplineSet
EndChar

StartChar: ucircumflex
Encoding: 251 251 189
Width: 584
GlyphClass: 2
Flags: W
LayerCount: 2
Fore
SplineSet
200 119 m 0,0,1
 200 60 200 60 241 60 c 0,2,3
 275 60 275 60 316 123 c 128,-1,4
 357 186 357 186 370 265 c 2,5,-1
 405 470 l 1,6,7
 441 489 441 489 476 489 c 128,-1,8
 511 489 511 489 548 484 c 1,9,-1
 501 197 l 2,10,11
 486 101 486 101 486 92 c 0,12,13
 486 69 486 69 506 69 c 0,14,15
 529 69 529 69 554 84 c 1,16,-1
 567 46 l 1,17,18
 490 -6 490 -6 427 -6 c 0,19,20
 382 -6 382 -6 362.5 17 c 128,-1,21
 343 40 343 40 343 86 c 1,22,23
 280 -8 280 -8 185 -8 c 0,24,25
 125 -8 125 -8 91 24.5 c 128,-1,26
 57 57 57 57 57 113 c 0,27,28
 57 130 57 130 76 250 c 128,-1,29
 95 370 95 370 95 377 c 0,30,31
 95 419 95 419 55 419 c 0,32,33
 50 419 50 419 34 417 c 1,34,-1
 31 456 l 1,35,36
 116 492 116 492 226 492 c 1,37,-1
 253 474 l 1,38,39
 200 152 200 152 200 119 c 0,0,1
303 660 m 2,40,41
 331 687 331 687 361 687 c 128,-1,42
 391 687 391 687 411 660 c 2,43,-1
 489 553 l 1,44,-1
 454 516 l 1,45,-1
 346 589 l 1,46,-1
 214 516 l 1,47,-1
 191 553 l 1,48,-1
 303 660 l 2,40,41
EndSplineSet
EndChar

StartChar: udieresis
Encoding: 252 252 190
Width: 584
GlyphClass: 2
Flags: W
LayerCount: 2
Fore
SplineSet
200 119 m 0,0,1
 200 60 200 60 241 60 c 0,2,3
 275 60 275 60 316 123 c 128,-1,4
 357 186 357 186 370 265 c 2,5,-1
 405 470 l 1,6,7
 441 489 441 489 476 489 c 128,-1,8
 511 489 511 489 548 484 c 1,9,-1
 501 197 l 2,10,11
 486 101 486 101 486 92 c 0,12,13
 486 69 486 69 506 69 c 0,14,15
 529 69 529 69 554 84 c 1,16,-1
 567 46 l 1,17,18
 490 -6 490 -6 427 -6 c 0,19,20
 382 -6 382 -6 362.5 17 c 128,-1,21
 343 40 343 40 343 86 c 1,22,23
 280 -8 280 -8 185 -8 c 0,24,25
 125 -8 125 -8 91 24.5 c 128,-1,26
 57 57 57 57 57 113 c 0,27,28
 57 130 57 130 76 250 c 128,-1,29
 95 370 95 370 95 377 c 0,30,31
 95 419 95 419 55 419 c 0,32,33
 50 419 50 419 34 417 c 1,34,-1
 31 456 l 1,35,36
 116 492 116 492 226 492 c 1,37,-1
 253 474 l 1,38,39
 200 152 200 152 200 119 c 0,0,1
310.5 571.5 m 128,-1,41
 291 550 291 550 261.5 550 c 128,-1,42
 232 550 232 550 217 564.5 c 128,-1,43
 202 579 202 579 202 610 c 128,-1,44
 202 641 202 641 221.5 662 c 128,-1,45
 241 683 241 683 270.5 683 c 128,-1,46
 300 683 300 683 315 668.5 c 128,-1,47
 330 654 330 654 330 623.5 c 128,-1,40
 330 593 330 593 310.5 571.5 c 128,-1,41
473.5 571.5 m 128,-1,49
 454 550 454 550 424.5 550 c 128,-1,50
 395 550 395 550 380 564.5 c 128,-1,51
 365 579 365 579 365 610 c 128,-1,52
 365 641 365 641 384.5 662 c 128,-1,53
 404 683 404 683 433.5 683 c 128,-1,54
 463 683 463 683 478 668.5 c 128,-1,55
 493 654 493 654 493 623.5 c 128,-1,48
 493 593 493 593 473.5 571.5 c 128,-1,49
EndSplineSet
EndChar

StartChar: yacute
Encoding: 253 253 191
Width: 500
GlyphClass: 2
Flags: W
LayerCount: 2
Fore
SplineSet
249 115 m 1,0,1
 386 333 386 333 386 400 c 0,2,3
 386 434 386 434 341 437 c 1,4,-1
 337 474 l 1,5,6
 390 490 390 490 450 490 c 0,7,8
 466 490 466 490 490 488 c 1,9,-1
 507 462 l 1,10,11
 485 372 485 372 428 280 c 1,12,-1
 206 -65 l 2,13,14
 190 -90 190 -90 190 -107 c 0,15,16
 190 -134 190 -134 222 -134 c 0,17,18
 241 -134 241 -134 256 -122 c 1,19,20
 258 -136 258 -136 258 -142 c 0,21,22
 258 -178 258 -178 231.5 -199 c 128,-1,23
 205 -220 205 -220 172 -220 c 128,-1,24
 139 -220 139 -220 117 -201.5 c 128,-1,25
 95 -183 95 -183 95 -150 c 0,26,27
 95 -102 95 -102 164 -5 c 1,28,29
 136 -3 136 -3 126 0 c 1,30,-1
 77 366 l 2,31,32
 68 427 68 427 16 427 c 1,33,-1
 10 459 l 1,34,35
 57 489 57 489 162 489 c 0,36,37
 187 489 187 489 200 488 c 1,38,-1
 249 115 l 1,0,1
339 674 m 2,39,40
 365 706 365 706 389.5 706 c 128,-1,41
 414 706 414 706 427.5 692.5 c 128,-1,42
 441 679 441 679 441 660 c 0,43,44
 441 629 441 629 406 607 c 2,45,-1
 275 523 l 1,46,-1
 245 557 l 1,47,-1
 339 674 l 2,39,40
EndSplineSet
EndChar

StartChar: thorn
Encoding: 254 254 192
Width: 567
GlyphClass: 2
Flags: W
LayerCount: 2
Fore
SplineSet
372.5 405 m 128,-1,1
 358 432 358 432 320 432 c 0,2,3
 245 432 245 432 211 284 c 1,4,-1
 176 66 l 1,5,6
 199 46 199 46 239 46 c 0,7,8
 306 46 306 46 346.5 117 c 128,-1,9
 387 188 387 188 387 314 c 0,10,0
 387 378 387 378 372.5 405 c 128,-1,1
115 580 m 0,11,12
 115 623 115 623 75 623 c 0,13,14
 70 623 70 623 54 621 c 1,15,-1
 51 660 l 1,16,17
 87 675 87 675 144.5 685 c 128,-1,18
 202 695 202 695 246 696 c 1,19,-1
 273 682 l 1,20,-1
 233 425 l 1,21,22
 256 456 256 456 295.5 474 c 128,-1,23
 335 492 335 492 380 492 c 0,24,25
 533 492 533 492 533 298 c 0,26,27
 533 155 533 155 459.5 74 c 128,-1,28
 386 -7 386 -7 255 -7 c 0,29,30
 207 -7 207 -7 167 7 c 1,31,-1
 154 -81 l 2,32,33
 149 -111 149 -111 149 -118 c 0,34,35
 149 -142 149 -142 171 -142 c 0,36,37
 188 -142 188 -142 217 -126 c 1,38,-1
 230 -162 l 1,39,40
 210 -182 210 -182 167 -199 c 128,-1,41
 124 -216 124 -216 90 -216 c 0,42,43
 6 -216 6 -216 6 -130 c 0,44,45
 6 -116 6 -116 12 -74 c 2,46,-1
 113 558 l 2,47,48
 115 574 115 574 115 580 c 0,11,12
EndSplineSet
EndChar

StartChar: ydieresis
Encoding: 255 255 193
Width: 500
GlyphClass: 2
Flags: W
LayerCount: 2
Fore
SplineSet
249 115 m 1,0,1
 386 333 386 333 386 400 c 0,2,3
 386 434 386 434 341 437 c 1,4,-1
 337 474 l 1,5,6
 390 490 390 490 450 490 c 0,7,8
 466 490 466 490 490 488 c 1,9,-1
 507 462 l 1,10,11
 485 372 485 372 428 280 c 1,12,-1
 206 -65 l 2,13,14
 190 -90 190 -90 190 -107 c 0,15,16
 190 -134 190 -134 222 -134 c 0,17,18
 241 -134 241 -134 256 -122 c 1,19,20
 258 -136 258 -136 258 -142 c 0,21,22
 258 -178 258 -178 231.5 -199 c 128,-1,23
 205 -220 205 -220 172 -220 c 128,-1,24
 139 -220 139 -220 117 -201.5 c 128,-1,25
 95 -183 95 -183 95 -150 c 0,26,27
 95 -102 95 -102 164 -5 c 1,28,29
 136 -3 136 -3 126 0 c 1,30,-1
 77 366 l 2,31,32
 68 427 68 427 16 427 c 1,33,-1
 10 459 l 1,34,35
 57 489 57 489 162 489 c 0,36,37
 187 489 187 489 200 488 c 1,38,-1
 249 115 l 1,0,1
270.5 571.5 m 128,-1,40
 251 550 251 550 221.5 550 c 128,-1,41
 192 550 192 550 177 564.5 c 128,-1,42
 162 579 162 579 162 610 c 128,-1,43
 162 641 162 641 181.5 662 c 128,-1,44
 201 683 201 683 230.5 683 c 128,-1,45
 260 683 260 683 275 668.5 c 128,-1,46
 290 654 290 654 290 623.5 c 128,-1,39
 290 593 290 593 270.5 571.5 c 128,-1,40
433.5 571.5 m 128,-1,48
 414 550 414 550 384.5 550 c 128,-1,49
 355 550 355 550 340 564.5 c 128,-1,50
 325 579 325 579 325 610 c 128,-1,51
 325 641 325 641 344.5 662 c 128,-1,52
 364 683 364 683 393.5 683 c 128,-1,53
 423 683 423 683 438 668.5 c 128,-1,54
 453 654 453 654 453 623.5 c 128,-1,47
 453 593 453 593 433.5 571.5 c 128,-1,48
EndSplineSet
EndChar

StartChar: Amacron
Encoding: 256 256 194
Width: 614
GlyphClass: 2
Flags: W
LayerCount: 2
Fore
SplineSet
396 65 m 1,0,-1
 372 208 l 1,1,-1
 166 208 l 1,2,-1
 96 70 l 1,3,4
 121 47 121 47 176 40 c 1,5,-1
 171 0 l 1,6,-1
 -55 0 l 1,7,-1
 -50 40 l 1,8,9
 -3 44 -3 44 16 65 c 1,10,-1
 325 667 l 1,11,-1
 429 667 l 1,12,-1
 550 74 l 1,13,14
 561 47 561 47 604 40 c 1,15,-1
 600 0 l 1,16,-1
 324 0 l 1,17,-1
 330 40 l 1,18,19
 379 47 379 47 396 65 c 1,0,-1
321 511 m 1,20,-1
 198 271 l 1,21,-1
 361 271 l 1,22,-1
 321 511 l 1,20,-1
234 740 m 1,23,-1
 245 808 l 1,24,-1
 556 808 l 1,25,-1
 545 740 l 1,26,-1
 234 740 l 1,23,-1
EndSplineSet
EndChar

StartChar: amacron
Encoding: 257 257 195
Width: 570
GlyphClass: 2
Flags: W
LayerCount: 2
Fore
SplineSet
467 93 m 128,-1,1
 467 69 467 69 488 69 c 0,2,3
 511 69 511 69 535 84 c 1,4,-1
 548 46 l 1,5,6
 467 -6 467 -6 406 -6 c 0,7,8
 334 -6 334 -6 326 56 c 1,9,10
 279 -11 279 -11 196 -11 c 0,11,12
 129 -11 129 -11 83 38 c 128,-1,13
 37 87 37 87 37 181 c 0,14,15
 37 334 37 334 113 413 c 128,-1,16
 189 492 189 492 309 492 c 0,17,18
 356 492 356 492 413 472 c 1,19,20
 446 491 446 491 497 491 c 0,21,22
 509 491 509 491 529 489 c 1,23,-1
 522 450 l 1,24,0
 467 117 467 117 467 93 c 128,-1,1
241 50 m 0,25,26
 277 50 277 50 304.5 102.5 c 128,-1,27
 332 155 332 155 348 249 c 2,28,-1
 380 434 l 1,29,30
 356 443 356 443 332 443 c 0,31,32
 268 443 268 443 224.5 375.5 c 128,-1,33
 181 308 181 308 181 179 c 128,-1,34
 181 50 181 50 241 50 c 0,25,26
182 552 m 1,35,-1
 193 620 l 1,36,-1
 504 620 l 1,37,-1
 493 552 l 1,38,-1
 182 552 l 1,35,-1
EndSplineSet
EndChar

StartChar: Abreve
Encoding: 258 258 196
Width: 614
GlyphClass: 2
Flags: W
LayerCount: 2
Fore
SplineSet
396 65 m 1,0,-1
 372 208 l 1,1,-1
 166 208 l 1,2,-1
 96 70 l 1,3,4
 121 47 121 47 176 40 c 1,5,-1
 171 0 l 1,6,-1
 -55 0 l 1,7,-1
 -50 40 l 1,8,9
 -3 44 -3 44 16 65 c 1,10,-1
 325 667 l 1,11,-1
 429 667 l 1,12,-1
 550 74 l 1,13,14
 561 47 561 47 604 40 c 1,15,-1
 600 0 l 1,16,-1
 324 0 l 1,17,-1
 330 40 l 1,18,19
 379 47 379 47 396 65 c 1,0,-1
321 511 m 1,20,-1
 198 271 l 1,21,-1
 361 271 l 1,22,-1
 321 511 l 1,20,-1
490 739 m 128,-1,24
 446 702 446 702 387.5 702 c 128,-1,25
 329 702 329 702 296 734.5 c 128,-1,26
 263 767 263 767 263 823 c 0,27,28
 263 842 263 842 284 846 c 0,29,30
 300 849 300 849 326 849 c 1,31,32
 326 780 326 780 398 780 c 128,-1,33
 470 780 470 780 492 849 c 1,34,35
 526 849 526 849 550 839 c 1,36,23
 534 776 534 776 490 739 c 128,-1,24
EndSplineSet
EndChar

StartChar: abreve
Encoding: 259 259 197
Width: 570
GlyphClass: 2
Flags: W
LayerCount: 2
Fore
SplineSet
467 93 m 128,-1,1
 467 69 467 69 488 69 c 0,2,3
 511 69 511 69 535 84 c 1,4,-1
 548 46 l 1,5,6
 467 -6 467 -6 406 -6 c 0,7,8
 334 -6 334 -6 326 56 c 1,9,10
 279 -11 279 -11 196 -11 c 0,11,12
 129 -11 129 -11 83 38 c 128,-1,13
 37 87 37 87 37 181 c 0,14,15
 37 334 37 334 113 413 c 128,-1,16
 189 492 189 492 309 492 c 0,17,18
 356 492 356 492 413 472 c 1,19,20
 446 491 446 491 497 491 c 0,21,22
 509 491 509 491 529 489 c 1,23,-1
 522 450 l 1,24,0
 467 117 467 117 467 93 c 128,-1,1
241 50 m 0,25,26
 277 50 277 50 304.5 102.5 c 128,-1,27
 332 155 332 155 348 249 c 2,28,-1
 380 434 l 1,29,30
 356 443 356 443 332 443 c 0,31,32
 268 443 268 443 224.5 375.5 c 128,-1,33
 181 308 181 308 181 179 c 128,-1,34
 181 50 181 50 241 50 c 0,25,26
438 559 m 128,-1,36
 394 522 394 522 335.5 522 c 128,-1,37
 277 522 277 522 244 554.5 c 128,-1,38
 211 587 211 587 211 643 c 0,39,40
 211 662 211 662 232 666 c 0,41,42
 248 669 248 669 274 669 c 1,43,44
 274 600 274 600 346 600 c 128,-1,45
 418 600 418 600 440 669 c 1,46,47
 474 669 474 669 498 659 c 1,48,35
 482 596 482 596 438 559 c 128,-1,36
EndSplineSet
EndChar

StartChar: Aogonek
Encoding: 260 260 198
Width: 614
GlyphClass: 2
Flags: W
LayerCount: 2
Fore
SplineSet
422 -39.5 m 128,-1,1
 386 -77 386 -77 386 -110.5 c 128,-1,2
 386 -144 386 -144 409 -144 c 128,-1,3
 432 -144 432 -144 463 -122 c 1,4,-1
 483 -157 l 1,5,6
 436 -204 436 -204 371 -204 c 0,7,8
 336 -204 336 -204 312.5 -184.5 c 128,-1,9
 289 -165 289 -165 289 -136 c 128,-1,10
 289 -107 289 -107 306 -84 c 128,-1,11
 323 -61 323 -61 343 -45.5 c 128,-1,12
 363 -30 363 -30 380 -4 c 128,-1,13
 397 22 397 22 397 51 c 1,14,-1
 386 127 l 1,15,-1
 372 208 l 1,16,-1
 166 208 l 1,17,-1
 96 70 l 1,18,19
 121 47 121 47 176 40 c 1,20,-1
 171 0 l 1,21,-1
 -55 0 l 1,22,-1
 -50 40 l 1,23,24
 -3 44 -3 44 16 65 c 1,25,-1
 325 667 l 1,26,-1
 429 667 l 1,27,-1
 550 74 l 1,28,29
 561 47 561 47 604 40 c 1,30,-1
 600 0 l 1,31,-1
 528 0 l 1,32,0
 458 -2 458 -2 422 -39.5 c 128,-1,1
321 511 m 1,33,-1
 198 271 l 1,34,-1
 361 271 l 1,35,-1
 321 511 l 1,33,-1
EndSplineSet
EndChar

StartChar: aogonek
Encoding: 261 261 199
Width: 570
GlyphClass: 2
Flags: W
LayerCount: 2
Fore
SplineSet
380 -115 m 0,0,1
 380 -144 380 -144 403 -144 c 128,-1,2
 426 -144 426 -144 457 -122 c 1,3,-1
 477 -157 l 1,4,5
 430 -204 430 -204 365 -204 c 0,6,7
 330 -204 330 -204 306.5 -184.5 c 128,-1,8
 283 -165 283 -165 283 -139 c 128,-1,9
 283 -113 283 -113 296 -92.5 c 128,-1,10
 309 -72 309 -72 322.5 -59 c 128,-1,11
 336 -46 336 -46 362.5 -23.5 c 128,-1,12
 389 -1 389 -1 399 8 c 1,13,-1
 548 46 l 1,14,15
 487 22 487 22 433.5 -22.5 c 128,-1,16
 380 -67 380 -67 380 -115 c 0,0,1
467 93 m 128,-1,18
 467 69 467 69 488 69 c 0,19,20
 511 69 511 69 535 84 c 1,21,-1
 548 46 l 1,22,-1
 406 -6 l 1,23,24
 334 -6 334 -6 326 56 c 1,25,26
 279 -11 279 -11 196 -11 c 0,27,28
 129 -11 129 -11 83 38 c 128,-1,29
 37 87 37 87 37 181 c 0,30,31
 37 334 37 334 113 413 c 128,-1,32
 189 492 189 492 309 492 c 0,33,34
 356 492 356 492 413 472 c 1,35,36
 446 491 446 491 497 491 c 0,37,38
 509 491 509 491 529 489 c 1,39,-1
 522 450 l 1,40,17
 467 117 467 117 467 93 c 128,-1,18
241 50 m 0,41,42
 277 50 277 50 304.5 102.5 c 128,-1,43
 332 155 332 155 348 249 c 2,44,-1
 380 434 l 1,45,46
 356 443 356 443 332 443 c 0,47,48
 268 443 268 443 224.5 375.5 c 128,-1,49
 181 308 181 308 181 179 c 128,-1,50
 181 50 181 50 241 50 c 0,41,42
EndSplineSet
EndChar

StartChar: Cacute
Encoding: 262 262 200
Width: 552
GlyphClass: 2
Flags: W
LayerCount: 2
Fore
SplineSet
289 -10 m 0,0,1
 170 -10 170 -10 108.5 56.5 c 128,-1,2
 47 123 47 123 47 249 c 0,3,4
 47 449 47 449 136.5 561.5 c 128,-1,5
 226 674 226 674 397 674 c 0,6,7
 481 674 481 674 531.5 641 c 128,-1,8
 582 608 582 608 582 555 c 0,9,10
 582 515 582 515 553.5 485.5 c 128,-1,11
 525 456 525 456 494 456 c 128,-1,12
 463 456 463 456 443.5 469 c 128,-1,13
 424 482 424 482 418 502 c 1,14,15
 443 535 443 535 443 563 c 128,-1,16
 443 591 443 591 427.5 606 c 128,-1,17
 412 621 412 621 384 621 c 0,18,19
 338 621 338 621 303 586 c 128,-1,20
 268 551 268 551 249 494 c 0,21,22
 212 382 212 382 212 246 c 0,23,24
 212 58 212 58 333 58 c 0,25,26
 414 58 414 58 497 133 c 1,27,-1
 525 101 l 1,28,29
 469 48 469 48 407 19 c 128,-1,30
 345 -10 345 -10 289 -10 c 0,0,1
422 864 m 2,31,32
 448 896 448 896 472.5 896 c 128,-1,33
 497 896 497 896 510.5 882.5 c 128,-1,34
 524 869 524 869 524 850 c 0,35,36
 524 819 524 819 489 797 c 2,37,-1
 358 713 l 1,38,-1
 328 747 l 1,39,-1
 422 864 l 2,31,32
EndSplineSet
EndChar

StartChar: cacute
Encoding: 263 263 201
Width: 452
GlyphClass: 2
Flags: W
LayerCount: 2
Fore
SplineSet
421 68 m 1,0,1
 336 -7 336 -7 230.5 -7 c 128,-1,2
 125 -7 125 -7 73.5 42.5 c 128,-1,3
 22 92 22 92 22 186 c 0,4,5
 22 329 22 329 95 409 c 128,-1,6
 168 489 168 489 303 489 c 0,7,8
 375 489 375 489 418.5 463.5 c 128,-1,9
 462 438 462 438 462 400.5 c 128,-1,10
 462 363 462 363 435 340.5 c 128,-1,11
 408 318 408 318 378.5 318 c 128,-1,12
 349 318 349 318 331.5 330 c 128,-1,13
 314 342 314 342 311 360 c 1,14,15
 330 382 330 382 330 402 c 128,-1,16
 330 422 330 422 318 432.5 c 128,-1,17
 306 443 306 443 287 443 c 0,18,19
 229 443 229 443 198.5 362.5 c 128,-1,20
 168 282 168 282 168 177 c 0,21,22
 168 111 168 111 190.5 81 c 128,-1,23
 213 51 213 51 260 51 c 0,24,25
 325 51 325 51 390 104 c 1,26,-1
 421 68 l 1,0,1
329 674 m 2,27,28
 355 706 355 706 379.5 706 c 128,-1,29
 404 706 404 706 417.5 692.5 c 128,-1,30
 431 679 431 679 431 660 c 0,31,32
 431 629 431 629 396 607 c 2,33,-1
 265 523 l 1,34,-1
 235 557 l 1,35,-1
 329 674 l 2,27,28
EndSplineSet
EndChar

StartChar: Ccircumflex
Encoding: 264 264 202
Width: 552
GlyphClass: 2
Flags: W
LayerCount: 2
Fore
SplineSet
289 -10 m 0,0,1
 170 -10 170 -10 108.5 56.5 c 128,-1,2
 47 123 47 123 47 249 c 0,3,4
 47 449 47 449 136.5 561.5 c 128,-1,5
 226 674 226 674 397 674 c 0,6,7
 481 674 481 674 531.5 641 c 128,-1,8
 582 608 582 608 582 555 c 0,9,10
 582 515 582 515 553.5 485.5 c 128,-1,11
 525 456 525 456 494 456 c 128,-1,12
 463 456 463 456 443.5 469 c 128,-1,13
 424 482 424 482 418 502 c 1,14,15
 443 535 443 535 443 563 c 128,-1,16
 443 591 443 591 427.5 606 c 128,-1,17
 412 621 412 621 384 621 c 0,18,19
 338 621 338 621 303 586 c 128,-1,20
 268 551 268 551 249 494 c 0,21,22
 212 382 212 382 212 246 c 0,23,24
 212 58 212 58 333 58 c 0,25,26
 414 58 414 58 497 133 c 1,27,-1
 525 101 l 1,28,29
 469 48 469 48 407 19 c 128,-1,30
 345 -10 345 -10 289 -10 c 0,0,1
346 850 m 2,31,32
 374 877 374 877 404 877 c 128,-1,33
 434 877 434 877 454 850 c 2,34,-1
 532 743 l 1,35,-1
 497 706 l 1,36,-1
 389 779 l 1,37,-1
 257 706 l 1,38,-1
 234 743 l 1,39,-1
 346 850 l 2,31,32
EndSplineSet
EndChar

StartChar: ccircumflex
Encoding: 265 265 203
Width: 452
GlyphClass: 2
Flags: W
LayerCount: 2
Fore
SplineSet
421 68 m 1,0,1
 336 -7 336 -7 230.5 -7 c 128,-1,2
 125 -7 125 -7 73.5 42.5 c 128,-1,3
 22 92 22 92 22 186 c 0,4,5
 22 329 22 329 95 409 c 128,-1,6
 168 489 168 489 303 489 c 0,7,8
 375 489 375 489 418.5 463.5 c 128,-1,9
 462 438 462 438 462 400.5 c 128,-1,10
 462 363 462 363 435 340.5 c 128,-1,11
 408 318 408 318 378.5 318 c 128,-1,12
 349 318 349 318 331.5 330 c 128,-1,13
 314 342 314 342 311 360 c 1,14,15
 330 382 330 382 330 402 c 128,-1,16
 330 422 330 422 318 432.5 c 128,-1,17
 306 443 306 443 287 443 c 0,18,19
 229 443 229 443 198.5 362.5 c 128,-1,20
 168 282 168 282 168 177 c 0,21,22
 168 111 168 111 190.5 81 c 128,-1,23
 213 51 213 51 260 51 c 0,24,25
 325 51 325 51 390 104 c 1,26,-1
 421 68 l 1,0,1
253 660 m 2,27,28
 281 687 281 687 311 687 c 128,-1,29
 341 687 341 687 361 660 c 2,30,-1
 439 553 l 1,31,-1
 404 516 l 1,32,-1
 296 589 l 1,33,-1
 164 516 l 1,34,-1
 141 553 l 1,35,-1
 253 660 l 2,27,28
EndSplineSet
EndChar

StartChar: Cdotaccent
Encoding: 266 266 204
Width: 552
GlyphClass: 2
Flags: W
LayerCount: 2
Fore
SplineSet
289 -10 m 0,0,1
 170 -10 170 -10 108.5 56.5 c 128,-1,2
 47 123 47 123 47 249 c 0,3,4
 47 449 47 449 136.5 561.5 c 128,-1,5
 226 674 226 674 397 674 c 0,6,7
 481 674 481 674 531.5 641 c 128,-1,8
 582 608 582 608 582 555 c 0,9,10
 582 515 582 515 553.5 485.5 c 128,-1,11
 525 456 525 456 494 456 c 128,-1,12
 463 456 463 456 443.5 469 c 128,-1,13
 424 482 424 482 418 502 c 1,14,15
 443 535 443 535 443 563 c 128,-1,16
 443 591 443 591 427.5 606 c 128,-1,17
 412 621 412 621 384 621 c 0,18,19
 338 621 338 621 303 586 c 128,-1,20
 268 551 268 551 249 494 c 0,21,22
 212 382 212 382 212 246 c 0,23,24
 212 58 212 58 333 58 c 0,25,26
 414 58 414 58 497 133 c 1,27,-1
 525 101 l 1,28,29
 469 48 469 48 407 19 c 128,-1,30
 345 -10 345 -10 289 -10 c 0,0,1
447.5 748.5 m 128,-1,32
 425 726 425 726 391 726 c 128,-1,33
 357 726 357 726 339.5 741 c 128,-1,34
 322 756 322 756 322 788.5 c 128,-1,35
 322 821 322 821 344.5 843.5 c 128,-1,36
 367 866 367 866 401 866 c 128,-1,37
 435 866 435 866 452.5 850.5 c 128,-1,38
 470 835 470 835 470 803 c 128,-1,31
 470 771 470 771 447.5 748.5 c 128,-1,32
EndSplineSet
EndChar

StartChar: cdotaccent
Encoding: 267 267 205
Width: 452
GlyphClass: 2
Flags: W
LayerCount: 2
Fore
SplineSet
421 68 m 1,0,1
 336 -7 336 -7 230.5 -7 c 128,-1,2
 125 -7 125 -7 73.5 42.5 c 128,-1,3
 22 92 22 92 22 186 c 0,4,5
 22 329 22 329 95 409 c 128,-1,6
 168 489 168 489 303 489 c 0,7,8
 375 489 375 489 418.5 463.5 c 128,-1,9
 462 438 462 438 462 400.5 c 128,-1,10
 462 363 462 363 435 340.5 c 128,-1,11
 408 318 408 318 378.5 318 c 128,-1,12
 349 318 349 318 331.5 330 c 128,-1,13
 314 342 314 342 311 360 c 1,14,15
 330 382 330 382 330 402 c 128,-1,16
 330 422 330 422 318 432.5 c 128,-1,17
 306 443 306 443 287 443 c 0,18,19
 229 443 229 443 198.5 362.5 c 128,-1,20
 168 282 168 282 168 177 c 0,21,22
 168 111 168 111 190.5 81 c 128,-1,23
 213 51 213 51 260 51 c 0,24,25
 325 51 325 51 390 104 c 1,26,-1
 421 68 l 1,0,1
356.5 572.5 m 128,-1,28
 334 550 334 550 300 550 c 128,-1,29
 266 550 266 550 248.5 565 c 128,-1,30
 231 580 231 580 231 612.5 c 128,-1,31
 231 645 231 645 253.5 667.5 c 128,-1,32
 276 690 276 690 310 690 c 128,-1,33
 344 690 344 690 361.5 674.5 c 128,-1,34
 379 659 379 659 379 627 c 128,-1,27
 379 595 379 595 356.5 572.5 c 128,-1,28
EndSplineSet
EndChar

StartChar: Ccaron
Encoding: 268 268 206
Width: 552
GlyphClass: 2
Flags: W
LayerCount: 2
Fore
SplineSet
289 -10 m 0,0,1
 170 -10 170 -10 108.5 56.5 c 128,-1,2
 47 123 47 123 47 249 c 0,3,4
 47 449 47 449 136.5 561.5 c 128,-1,5
 226 674 226 674 397 674 c 0,6,7
 481 674 481 674 531.5 641 c 128,-1,8
 582 608 582 608 582 555 c 0,9,10
 582 515 582 515 553.5 485.5 c 128,-1,11
 525 456 525 456 494 456 c 128,-1,12
 463 456 463 456 443.5 469 c 128,-1,13
 424 482 424 482 418 502 c 1,14,15
 443 535 443 535 443 563 c 128,-1,16
 443 591 443 591 427.5 606 c 128,-1,17
 412 621 412 621 384 621 c 0,18,19
 338 621 338 621 303 586 c 128,-1,20
 268 551 268 551 249 494 c 0,21,22
 212 382 212 382 212 246 c 0,23,24
 212 58 212 58 333 58 c 0,25,26
 414 58 414 58 497 133 c 1,27,-1
 525 101 l 1,28,29
 469 48 469 48 407 19 c 128,-1,30
 345 -10 345 -10 289 -10 c 0,0,1
431 733 m 2,31,32
 404 706 404 706 373.5 706 c 128,-1,33
 343 706 343 706 323 733 c 2,34,-1
 245 840 l 1,35,-1
 280 877 l 1,36,-1
 387 804 l 1,37,-1
 518 877 l 1,38,-1
 543 840 l 1,39,-1
 431 733 l 2,31,32
EndSplineSet
EndChar

StartChar: ccaron
Encoding: 269 269 207
Width: 452
GlyphClass: 2
Flags: W
LayerCount: 2
Fore
SplineSet
421 68 m 1,0,1
 336 -7 336 -7 230.5 -7 c 128,-1,2
 125 -7 125 -7 73.5 42.5 c 128,-1,3
 22 92 22 92 22 186 c 0,4,5
 22 329 22 329 95 409 c 128,-1,6
 168 489 168 489 303 489 c 0,7,8
 375 489 375 489 418.5 463.5 c 128,-1,9
 462 438 462 438 462 400.5 c 128,-1,10
 462 363 462 363 435 340.5 c 128,-1,11
 408 318 408 318 378.5 318 c 128,-1,12
 349 318 349 318 331.5 330 c 128,-1,13
 314 342 314 342 311 360 c 1,14,15
 330 382 330 382 330 402 c 128,-1,16
 330 422 330 422 318 432.5 c 128,-1,17
 306 443 306 443 287 443 c 0,18,19
 229 443 229 443 198.5 362.5 c 128,-1,20
 168 282 168 282 168 177 c 0,21,22
 168 111 168 111 190.5 81 c 128,-1,23
 213 51 213 51 260 51 c 0,24,25
 325 51 325 51 390 104 c 1,26,-1
 421 68 l 1,0,1
338 543 m 2,27,28
 311 516 311 516 280.5 516 c 128,-1,29
 250 516 250 516 230 543 c 2,30,-1
 152 650 l 1,31,-1
 187 687 l 1,32,-1
 294 614 l 1,33,-1
 425 687 l 1,34,-1
 450 650 l 1,35,-1
 338 543 l 2,27,28
EndSplineSet
EndChar

StartChar: Dcaron
Encoding: 270 270 208
Width: 679
GlyphClass: 2
Flags: W
LayerCount: 2
Fore
SplineSet
302 667 m 2,0,1
 556 667 556 667 622 534 c 1,2,3
 648 484 648 484 648 407 c 128,-1,4
 648 330 648 330 626.5 259.5 c 128,-1,5
 605 189 605 189 557.5 129 c 128,-1,6
 510 69 510 69 423.5 34.5 c 128,-1,7
 337 0 337 0 218 0 c 2,8,-1
 -7 0 l 1,9,-1
 -2 41 l 1,10,11
 37 47 37 47 69 70 c 1,12,-1
 153 596 l 1,13,14
 135 619 135 619 87 626 c 1,15,-1
 93 667 l 1,16,-1
 302 667 l 2,0,1
222 99 m 0,17,18
 222 63 222 63 258 63 c 0,19,20
 315 63 315 63 358.5 89 c 128,-1,21
 402 115 402 115 426.5 153.5 c 128,-1,22
 451 192 451 192 466 244 c 0,23,24
 492 330 492 330 492 429 c 0,25,26
 492 605 492 605 329 605 c 2,27,-1
 302 605 l 1,28,-1
 224 117 l 2,29,30
 222 103 222 103 222 99 c 0,17,18
442 733 m 2,31,32
 415 706 415 706 384.5 706 c 128,-1,33
 354 706 354 706 334 733 c 2,34,-1
 256 840 l 1,35,-1
 291 877 l 1,36,-1
 398 804 l 1,37,-1
 529 877 l 1,38,-1
 554 840 l 1,39,-1
 442 733 l 2,31,32
EndSplineSet
EndChar

StartChar: dcaron
Encoding: 271 271 209
Width: 702
GlyphClass: 2
Flags: W
LayerCount: 2
Fore
SplineSet
475 93 m 0,0,1
 475 69 475 69 497 69 c 0,2,3
 514 69 514 69 543 85 c 1,4,-1
 556 49 l 1,5,6
 536 29 536 29 493 12 c 128,-1,7
 450 -5 450 -5 416 -5 c 0,8,9
 335 -5 335 -5 332 73 c 1,10,11
 309 33 309 33 267.5 13 c 128,-1,12
 226 -7 226 -7 181 -7 c 0,13,14
 107 -7 107 -7 67.5 38.5 c 128,-1,15
 28 84 28 84 28 172 c 0,16,17
 28 322 28 322 100 407 c 128,-1,18
 172 492 172 492 297 492 c 0,19,20
 349 492 349 492 392 468 c 1,21,22
 407 566 407 566 407 579 c 0,23,24
 407 623 407 623 367 623 c 0,25,26
 361 623 361 623 347 621 c 1,27,-1
 344 660 l 1,28,29
 380 675 380 675 437.5 685 c 128,-1,30
 495 695 495 695 539 696 c 1,31,-1
 567 682 l 1,32,-1
 479 129 l 2,33,34
 475 104 475 104 475 93 c 0,0,1
384 419 m 1,35,36
 361 438 361 438 315.5 438 c 128,-1,37
 270 438 270 438 236 396 c 0,38,39
 173 321 173 321 173 163 c 0,40,41
 173 53 173 53 235 53 c 0,42,43
 326 53 326 53 355 234 c 2,44,-1
 384 419 l 1,35,36
603 498 m 1,45,46
 637 563 637 563 637 594 c 128,-1,47
 637 625 637 625 620 641 c 1,48,49
 643 667 643 667 673.5 667 c 128,-1,50
 704 667 704 667 718.5 655 c 128,-1,51
 733 643 733 643 733 624 c 0,52,53
 733 570 733 570 648 478 c 1,54,-1
 603 498 l 1,45,46
EndSplineSet
EndChar

StartChar: Dcroat
Encoding: 272 272 210
Width: 683
GlyphClass: 2
Flags: W
LayerCount: 2
Fore
SplineSet
44 292 m 1,0,-1
 55 362 l 1,1,-1
 408 362 l 1,2,-1
 397 292 l 1,3,-1
 44 292 l 1,0,-1
304 667 m 2,4,5
 558 667 558 667 624 534 c 1,6,7
 650 484 650 484 650 407 c 128,-1,8
 650 330 650 330 628.5 259.5 c 128,-1,9
 607 189 607 189 559.5 129 c 128,-1,10
 512 69 512 69 425.5 34.5 c 128,-1,11
 339 0 339 0 220 0 c 2,12,-1
 -5 0 l 1,13,-1
 0 41 l 1,14,15
 39 47 39 47 71 70 c 1,16,-1
 155 596 l 1,17,18
 137 619 137 619 89 626 c 1,19,-1
 95 667 l 1,20,-1
 304 667 l 2,4,5
224 99 m 0,21,22
 224 63 224 63 260 63 c 0,23,24
 317 63 317 63 360.5 89 c 128,-1,25
 404 115 404 115 428.5 153.5 c 128,-1,26
 453 192 453 192 468 244 c 0,27,28
 494 330 494 330 494 429 c 0,29,30
 494 605 494 605 331 605 c 2,31,-1
 304 605 l 1,32,-1
 226 117 l 2,33,34
 224 103 224 103 224 99 c 0,21,22
EndSplineSet
EndChar

StartChar: dcroat
Encoding: 273 273 211
Width: 570
GlyphClass: 2
Flags: W
LayerCount: 2
Fore
SplineSet
483 93 m 0,0,1
 483 69 483 69 505 69 c 0,2,3
 522 69 522 69 551 85 c 1,4,-1
 564 49 l 1,5,6
 544 29 544 29 501 12 c 128,-1,7
 458 -5 458 -5 424 -5 c 0,8,9
 343 -5 343 -5 340 73 c 1,10,11
 317 33 317 33 275.5 13 c 128,-1,12
 234 -7 234 -7 189 -7 c 0,13,14
 115 -7 115 -7 75.5 38.5 c 128,-1,15
 36 84 36 84 36 172 c 0,16,17
 36 322 36 322 108 407 c 128,-1,18
 180 492 180 492 305 492 c 0,19,20
 357 492 357 492 400 468 c 1,21,22
 415 566 415 566 415 579 c 0,23,24
 415 623 415 623 375 623 c 0,25,26
 369 623 369 623 355 621 c 1,27,-1
 352 660 l 1,28,29
 388 675 388 675 445.5 685 c 128,-1,30
 503 695 503 695 547 696 c 1,31,-1
 575 682 l 1,32,-1
 487 129 l 2,33,34
 483 104 483 104 483 93 c 0,0,1
392 419 m 1,35,36
 369 438 369 438 323.5 438 c 128,-1,37
 278 438 278 438 244 396 c 0,38,39
 181 321 181 321 181 163 c 0,40,41
 181 53 181 53 243 53 c 0,42,43
 334 53 334 53 363 234 c 2,44,-1
 392 419 l 1,35,36
289 513 m 1,45,-1
 300 581 l 1,46,-1
 611 581 l 1,47,-1
 600 513 l 1,48,-1
 289 513 l 1,45,-1
EndSplineSet
EndChar

StartChar: Emacron
Encoding: 274 274 212
Width: 562
GlyphClass: 2
Flags: W
LayerCount: 2
Fore
SplineSet
553 503 m 1,0,1
 528 496 528 496 511.5 496 c 128,-1,2
 495 496 495 496 485 499 c 1,3,4
 483 567 483 567 463 606 c 1,5,-1
 294 606 l 1,6,-1
 256 372 l 1,7,-1
 347 376 l 2,8,9
 365 377 365 377 383 395.5 c 128,-1,10
 401 414 401 414 413 443 c 1,11,-1
 455 443 l 1,12,-1
 422 236 l 1,13,-1
 380 236 l 1,14,15
 373 276 373 276 362.5 292.5 c 128,-1,16
 352 309 352 309 335 310 c 2,17,-1
 247 314 l 1,18,-1
 207 62 l 1,19,-1
 394 62 l 1,20,21
 430 107 430 107 457 184 c 1,22,23
 481 191 481 191 497.5 191 c 128,-1,24
 514 191 514 191 525 188 c 1,25,-1
 485 0 l 1,26,-1
 -15 0 l 1,27,-1
 -10 41 l 1,28,29
 31 47 31 47 62 71 c 1,30,-1
 145 596 l 1,31,32
 127 619 127 619 79 626 c 1,33,-1
 85 667 l 1,34,-1
 575 667 l 1,35,-1
 553 503 l 1,0,1
203 740 m 1,36,-1
 214 808 l 1,37,-1
 525 808 l 1,38,-1
 514 740 l 1,39,-1
 203 740 l 1,36,-1
EndSplineSet
EndChar

StartChar: emacron
Encoding: 275 275 213
Width: 499
GlyphClass: 2
Flags: W
LayerCount: 2
Fore
SplineSet
181 210 m 2,0,-1
 170 210 l 1,1,2
 166 181 166 181 166 160 c 0,3,4
 166 113 166 113 191 87.5 c 128,-1,5
 216 62 216 62 257.5 62 c 128,-1,6
 299 62 299 62 340.5 77 c 128,-1,7
 382 92 382 92 413 117 c 1,8,-1
 446 78 l 1,9,10
 345 -7 345 -7 223 -7 c 0,11,12
 133 -7 133 -7 80 46 c 128,-1,13
 27 99 27 99 27 189 c 0,14,15
 27 329 27 329 104 410.5 c 128,-1,16
 181 492 181 492 313 492 c 0,17,18
 387 492 387 492 432.5 464.5 c 128,-1,19
 478 437 478 437 478 392 c 0,20,21
 478 308 478 308 398 259 c 128,-1,22
 318 210 318 210 181 210 c 2,0,-1
300.5 305.5 m 128,-1,24
 353 341 353 341 353 392 c 128,-1,25
 353 443 353 443 302 443 c 128,-1,26
 251 443 251 443 223.5 399.5 c 128,-1,27
 196 356 196 356 179 268 c 1,28,23
 248 270 248 270 300.5 305.5 c 128,-1,24
156 552 m 1,29,-1
 167 620 l 1,30,-1
 478 620 l 1,31,-1
 467 552 l 1,32,-1
 156 552 l 1,29,-1
EndSplineSet
EndChar

StartChar: Ebreve
Encoding: 276 276 214
Width: 562
GlyphClass: 2
Flags: W
LayerCount: 2
Fore
SplineSet
553 503 m 1,0,1
 528 496 528 496 511.5 496 c 128,-1,2
 495 496 495 496 485 499 c 1,3,4
 483 567 483 567 463 606 c 1,5,-1
 294 606 l 1,6,-1
 256 372 l 1,7,-1
 347 376 l 2,8,9
 365 377 365 377 383 395.5 c 128,-1,10
 401 414 401 414 413 443 c 1,11,-1
 455 443 l 1,12,-1
 422 236 l 1,13,-1
 380 236 l 1,14,15
 373 276 373 276 362.5 292.5 c 128,-1,16
 352 309 352 309 335 310 c 2,17,-1
 247 314 l 1,18,-1
 207 62 l 1,19,-1
 394 62 l 1,20,21
 430 107 430 107 457 184 c 1,22,23
 481 191 481 191 497.5 191 c 128,-1,24
 514 191 514 191 525 188 c 1,25,-1
 485 0 l 1,26,-1
 -15 0 l 1,27,-1
 -10 41 l 1,28,29
 31 47 31 47 62 71 c 1,30,-1
 145 596 l 1,31,32
 127 619 127 619 79 626 c 1,33,-1
 85 667 l 1,34,-1
 575 667 l 1,35,-1
 553 503 l 1,0,1
458 739 m 128,-1,37
 414 702 414 702 355.5 702 c 128,-1,38
 297 702 297 702 264 734.5 c 128,-1,39
 231 767 231 767 231 823 c 0,40,41
 231 842 231 842 252 846 c 0,42,43
 269 849 269 849 294 849 c 1,44,45
 294 780 294 780 366 780 c 128,-1,46
 438 780 438 780 460 849 c 1,47,48
 494 849 494 849 518 839 c 1,49,36
 502 776 502 776 458 739 c 128,-1,37
EndSplineSet
EndChar

StartChar: ebreve
Encoding: 277 277 215
Width: 499
GlyphClass: 2
Flags: W
LayerCount: 2
Fore
SplineSet
181 210 m 2,0,-1
 170 210 l 1,1,2
 166 181 166 181 166 160 c 0,3,4
 166 113 166 113 191 87.5 c 128,-1,5
 216 62 216 62 257.5 62 c 128,-1,6
 299 62 299 62 340.5 77 c 128,-1,7
 382 92 382 92 413 117 c 1,8,-1
 446 78 l 1,9,10
 345 -7 345 -7 223 -7 c 0,11,12
 133 -7 133 -7 80 46 c 128,-1,13
 27 99 27 99 27 189 c 0,14,15
 27 329 27 329 104 410.5 c 128,-1,16
 181 492 181 492 313 492 c 0,17,18
 387 492 387 492 432.5 464.5 c 128,-1,19
 478 437 478 437 478 392 c 0,20,21
 478 308 478 308 398 259 c 128,-1,22
 318 210 318 210 181 210 c 2,0,-1
300.5 305.5 m 128,-1,24
 353 341 353 341 353 392 c 128,-1,25
 353 443 353 443 302 443 c 128,-1,26
 251 443 251 443 223.5 399.5 c 128,-1,27
 196 356 196 356 179 268 c 1,28,23
 248 270 248 270 300.5 305.5 c 128,-1,24
413 559 m 128,-1,30
 369 522 369 522 310.5 522 c 128,-1,31
 252 522 252 522 219 554.5 c 128,-1,32
 186 587 186 587 186 643 c 0,33,34
 186 662 186 662 207 666 c 0,35,36
 223 669 223 669 249 669 c 1,37,38
 249 600 249 600 321 600 c 128,-1,39
 393 600 393 600 415 669 c 1,40,41
 449 669 449 669 473 659 c 1,42,29
 457 596 457 596 413 559 c 128,-1,30
EndSplineSet
EndChar

StartChar: Edotaccent
Encoding: 278 278 216
Width: 562
GlyphClass: 2
Flags: W
LayerCount: 2
Fore
SplineSet
553 503 m 1,0,1
 528 496 528 496 511.5 496 c 128,-1,2
 495 496 495 496 485 499 c 1,3,4
 483 567 483 567 463 606 c 1,5,-1
 294 606 l 1,6,-1
 256 372 l 1,7,-1
 347 376 l 2,8,9
 365 377 365 377 383 395.5 c 128,-1,10
 401 414 401 414 413 443 c 1,11,-1
 455 443 l 1,12,-1
 422 236 l 1,13,-1
 380 236 l 1,14,15
 373 276 373 276 362.5 292.5 c 128,-1,16
 352 309 352 309 335 310 c 2,17,-1
 247 314 l 1,18,-1
 207 62 l 1,19,-1
 394 62 l 1,20,21
 430 107 430 107 457 184 c 1,22,23
 481 191 481 191 497.5 191 c 128,-1,24
 514 191 514 191 525 188 c 1,25,-1
 485 0 l 1,26,-1
 -15 0 l 1,27,-1
 -10 41 l 1,28,29
 31 47 31 47 62 71 c 1,30,-1
 145 596 l 1,31,32
 127 619 127 619 79 626 c 1,33,-1
 85 667 l 1,34,-1
 575 667 l 1,35,-1
 553 503 l 1,0,1
419.5 748.5 m 128,-1,37
 397 726 397 726 363 726 c 128,-1,38
 329 726 329 726 311.5 741 c 128,-1,39
 294 756 294 756 294 788.5 c 128,-1,40
 294 821 294 821 316.5 843.5 c 128,-1,41
 339 866 339 866 373 866 c 128,-1,42
 407 866 407 866 424.5 850.5 c 128,-1,43
 442 835 442 835 442 803 c 128,-1,36
 442 771 442 771 419.5 748.5 c 128,-1,37
EndSplineSet
EndChar

StartChar: edotaccent
Encoding: 279 279 217
Width: 499
GlyphClass: 2
Flags: W
LayerCount: 2
Fore
SplineSet
181 210 m 2,0,-1
 170 210 l 1,1,2
 166 181 166 181 166 160 c 0,3,4
 166 113 166 113 191 87.5 c 128,-1,5
 216 62 216 62 257.5 62 c 128,-1,6
 299 62 299 62 340.5 77 c 128,-1,7
 382 92 382 92 413 117 c 1,8,-1
 446 78 l 1,9,10
 345 -7 345 -7 223 -7 c 0,11,12
 133 -7 133 -7 80 46 c 128,-1,13
 27 99 27 99 27 189 c 0,14,15
 27 329 27 329 104 410.5 c 128,-1,16
 181 492 181 492 313 492 c 0,17,18
 387 492 387 492 432.5 464.5 c 128,-1,19
 478 437 478 437 478 392 c 0,20,21
 478 308 478 308 398 259 c 128,-1,22
 318 210 318 210 181 210 c 2,0,-1
300.5 305.5 m 128,-1,24
 353 341 353 341 353 392 c 128,-1,25
 353 443 353 443 302 443 c 128,-1,26
 251 443 251 443 223.5 399.5 c 128,-1,27
 196 356 196 356 179 268 c 1,28,23
 248 270 248 270 300.5 305.5 c 128,-1,24
380.5 572.5 m 128,-1,30
 358 550 358 550 324 550 c 128,-1,31
 290 550 290 550 272.5 565 c 128,-1,32
 255 580 255 580 255 612.5 c 128,-1,33
 255 645 255 645 277.5 667.5 c 128,-1,34
 300 690 300 690 334 690 c 128,-1,35
 368 690 368 690 385.5 674.5 c 128,-1,36
 403 659 403 659 403 627 c 128,-1,29
 403 595 403 595 380.5 572.5 c 128,-1,30
EndSplineSet
EndChar

StartChar: Eogonek
Encoding: 280 280 218
Width: 562
GlyphClass: 2
Flags: W
LayerCount: 2
Fore
SplineSet
553 503 m 1,0,1
 528 496 528 496 511.5 496 c 128,-1,2
 495 496 495 496 485 499 c 1,3,4
 483 567 483 567 463 606 c 1,5,-1
 294 606 l 1,6,-1
 256 372 l 1,7,-1
 347 376 l 2,8,9
 365 377 365 377 383 395.5 c 128,-1,10
 401 414 401 414 413 443 c 1,11,-1
 455 443 l 1,12,-1
 422 236 l 1,13,-1
 380 236 l 1,14,15
 373 276 373 276 362.5 292.5 c 128,-1,16
 352 309 352 309 335 310 c 2,17,-1
 247 314 l 1,18,-1
 207 62 l 1,19,-1
 394 62 l 1,20,21
 430 107 430 107 457 184 c 1,22,23
 481 191 481 191 497.5 191 c 128,-1,24
 514 191 514 191 525 188 c 1,25,-1
 485 0 l 1,26,-1
 -15 0 l 1,27,-1
 -10 41 l 1,28,29
 31 47 31 47 62 71 c 1,30,-1
 145 596 l 1,31,32
 127 619 127 619 79 626 c 1,33,-1
 85 667 l 1,34,-1
 575 667 l 1,35,-1
 553 503 l 1,0,1
388.5 -48 m 128,-1,37
 361 -82 361 -82 361 -113 c 128,-1,38
 361 -144 361 -144 384 -144 c 128,-1,39
 407 -144 407 -144 438 -122 c 1,40,-1
 458 -157 l 1,41,42
 411 -204 411 -204 346 -204 c 0,43,44
 311 -204 311 -204 287.5 -184.5 c 128,-1,45
 264 -165 264 -165 264 -139 c 128,-1,46
 264 -113 264 -113 277 -92.5 c 128,-1,47
 290 -72 290 -72 303.5 -59 c 128,-1,48
 317 -46 317 -46 343.5 -23.5 c 128,-1,49
 370 -1 370 -1 380 8 c 1,50,-1
 461 0 l 1,51,36
 416 -14 416 -14 388.5 -48 c 128,-1,37
EndSplineSet
EndChar

StartChar: eogonek
Encoding: 281 281 219
Width: 499
GlyphClass: 2
Flags: W
LayerCount: 2
Fore
SplineSet
300.5 305.5 m 128,-1,1
 353 341 353 341 353 392 c 128,-1,2
 353 443 353 443 302 443 c 128,-1,3
 251 443 251 443 223.5 399.5 c 128,-1,4
 196 356 196 356 179 268 c 1,5,0
 248 270 248 270 300.5 305.5 c 128,-1,1
181 210 m 2,6,-1
 170 210 l 1,7,8
 166 181 166 181 166 160 c 0,9,10
 166 113 166 113 191 87.5 c 128,-1,11
 216 62 216 62 257.5 62 c 128,-1,12
 299 62 299 62 340.5 77 c 128,-1,13
 382 92 382 92 413 117 c 1,14,-1
 446 78 l 1,15,16
 427 62 427 62 409 51 c 1,17,18
 359 16 359 16 322.5 -31.5 c 128,-1,19
 286 -79 286 -79 286 -111.5 c 128,-1,20
 286 -144 286 -144 309 -144 c 128,-1,21
 332 -144 332 -144 363 -122 c 1,22,-1
 383 -157 l 1,23,24
 336 -204 336 -204 271 -204 c 0,25,26
 236 -204 236 -204 212.5 -184.5 c 128,-1,27
 189 -165 189 -165 189 -132 c 0,28,29
 189 -101 189 -101 215 -73 c 0,30,31
 235 -51 235 -51 263.5 -27.5 c 128,-1,32
 292 -4 292 -4 299 2 c 1,33,34
 260 -7 260 -7 223 -7 c 0,35,36
 133 -7 133 -7 80 46 c 128,-1,37
 27 99 27 99 27 189 c 0,38,39
 27 329 27 329 104 410.5 c 128,-1,40
 181 492 181 492 313 492 c 0,41,42
 387 492 387 492 432.5 464.5 c 128,-1,43
 478 437 478 437 478 392 c 0,44,45
 478 308 478 308 398 259 c 128,-1,46
 318 210 318 210 181 210 c 2,6,-1
EndSplineSet
EndChar

StartChar: Ecaron
Encoding: 282 282 220
Width: 562
GlyphClass: 2
Flags: W
LayerCount: 2
Fore
SplineSet
553 503 m 1,0,1
 528 496 528 496 511.5 496 c 128,-1,2
 495 496 495 496 485 499 c 1,3,4
 483 567 483 567 463 606 c 1,5,-1
 294 606 l 1,6,-1
 256 372 l 1,7,-1
 347 376 l 2,8,9
 365 377 365 377 383 395.5 c 128,-1,10
 401 414 401 414 413 443 c 1,11,-1
 455 443 l 1,12,-1
 422 236 l 1,13,-1
 380 236 l 1,14,15
 373 276 373 276 362.5 292.5 c 128,-1,16
 352 309 352 309 335 310 c 2,17,-1
 247 314 l 1,18,-1
 207 62 l 1,19,-1
 394 62 l 1,20,21
 430 107 430 107 457 184 c 1,22,23
 481 191 481 191 497.5 191 c 128,-1,24
 514 191 514 191 525 188 c 1,25,-1
 485 0 l 1,26,-1
 -15 0 l 1,27,-1
 -10 41 l 1,28,29
 31 47 31 47 62 71 c 1,30,-1
 145 596 l 1,31,32
 127 619 127 619 79 626 c 1,33,-1
 85 667 l 1,34,-1
 575 667 l 1,35,-1
 553 503 l 1,0,1
410 733 m 2,36,37
 383 706 383 706 352.5 706 c 128,-1,38
 322 706 322 706 302 733 c 2,39,-1
 224 840 l 1,40,-1
 259 877 l 1,41,-1
 366 804 l 1,42,-1
 497 877 l 1,43,-1
 522 840 l 1,44,-1
 410 733 l 2,36,37
EndSplineSet
EndChar

